<?xml version="1.0" encoding="UTF-8"?><svg id="_レイヤー_2" xmlns="http://www.w3.org/2000/svg" viewBox="0 0 621.51 377.69"><defs><style>.cls-1{fill:#000;}.cls-1,.cls-2{stroke-width:0px;}.cls-2{fill:#f7b52c;}.cls-3{fill:none;stroke:#000;}</style></defs><g id="_レイヤー_1-2"><path class="cls-1" d="M185.04,11.74v10.49h-2.71l-.18-2.58c-1.99,2.45-4.13,3.14-6.66,3.14-6.53,0-10.13-4.52-10.13-10.59,0-6.58,4.06-10.64,10.08-10.64,7.42,0,9.03,5.46,9.52,7.09h-4.03c-1.07-3.47-4.03-3.85-5.56-3.85-4.08,0-6.07,3.14-6.07,7.12s1.33,5.43,1.96,6.07c1.28,1.28,2.86,1.56,4.01,1.56,2.63,0,5.05-1.2,5.94-4.98h-5.08v-2.83h8.9Z"/><path class="cls-1" d="M201.55,2.12l7.63,20.1h-3.98l-1.4-4.03h-8.85l-1.43,4.03h-3.95l7.6-20.1h4.39ZM199.35,5.71l-3.44,9.72h6.89l-3.44-9.72Z"/><path class="cls-1" d="M228.58,2.12v2.96h-10.87v5.87h9.44v2.96h-9.44v8.32h-3.83V2.12h14.7Z"/><path class="cls-1" d="M237.41,22.22h-3.8V2.12h3.8v20.1Z"/><path class="cls-1" d="M260.27,2.12v2.96h-7.12v17.14h-3.8V5.08h-7.09v-2.96h18.01Z"/><path class="cls-1" d="M267.78,25.64c-2.53-3.55-3.52-8.6-3.52-11.76,0-3.34,1.07-8.32,3.52-11.76h2.88c-1.96,3.62-2.98,7.65-2.98,11.76s1.02,8.14,2.98,11.76h-2.88Z"/><path class="cls-1" d="M287.3,1.5c.33.03.51.05.51.28,0,.15-.15.38-.51.46,0,.64-.03,1.61-.1,3.75h8.27c-.31,13.57-.54,17.83-8.7,17.4-.1-1.17-.28-1.96-.89-3.62.54.13,1.1.25,2.09.25,1.89,0,2.71-.36,3.24-2.86.51-2.35.61-6.81.64-7.93h-4.92c-1.2,8.7-6.05,12.3-9.85,14.42-.69-1.07-1.35-1.79-2.47-2.6,6.84-3.5,8.16-7.81,8.83-11.81h-8.04v-3.24h8.32c.08-2.19-.08-3.75-.18-4.77l3.78.28ZM291.82.84c1.1.94,2.45,2.45,2.73,2.76-.94.69-1.05.76-1.84,1.43-1.02-1.3-2.14-2.42-2.68-2.93l1.79-1.25ZM295.54,0c.87.77,1.96,1.96,2.6,2.83-.71.38-.82.46-1.94,1.33-.66-.92-1.68-2.09-2.55-2.91l1.89-1.25Z"/><path class="cls-1" d="M319.64,2.47c.51,0,1.28-.05,1.76-.18l2.53,2.09c-.33.43-.51.71-.79,1.4-2.47,6.17-2.98,7.35-4.92,9.92-2.99,4.01-6.84,6.2-9.75,7.73-.66-.92-1.48-1.71-2.68-2.65,6.63-3.01,10.41-6.17,13.5-15.1h-16.02v-3.21h16.38Z"/><path class="cls-1" d="M338.81,23.42h-3.19v-9.34c-.36.2-3.72,2.12-5.84,2.86-.51-.87-1.28-1.81-2.17-2.55,4.31-1.4,9.24-3.6,14.01-9.44l2.58,2.02c.1.08.18.18.18.31,0,.23-.18.25-.33.25s-.23-.03-.36-.05c-1.63,1.71-3.11,3.11-4.87,4.44v11.51Z"/><path class="cls-1" d="M354.87,7.27c.92,1.5,1.81,3.39,2.4,4.85-.66.23-1.79.69-2.76,1.33-.76-1.96-1.45-3.24-2.45-5l2.81-1.17ZM369.67,7.42c.25.08.46.13.46.33,0,.25-.33.33-.49.36-1.96,7.99-5.31,12.2-12.37,15.13-.89-1.43-1.51-1.99-2.04-2.45,5.31-2.02,10.03-5.08,11.33-14.34l3.11.97ZM360.2,6.05c.74,1.22,1.53,2.7,2.19,4.95-.54.2-1.84.64-2.76,1.12-.56-1.56-1.4-3.44-2.27-4.92l2.83-1.15Z"/><path class="cls-1" d="M384.46,7.93c3.57,1.79,7.07,4.06,9.21,6.17-1,1.05-1.35,1.48-2.45,2.78-3.11-2.99-6.28-4.77-8.06-5.71v12.45h-3.62V1.25l3.62.2c.26.03.49.05.49.28,0,.28-.33.36-.49.38v7.65l1.3-1.84Z"/><path class="cls-1" d="M397.65,25.64c1.96-3.62,2.98-7.65,2.98-11.76s-1.02-8.14-2.98-11.76h2.88c2.45,3.44,3.52,8.42,3.52,11.76,0,3.16-1,8.21-3.52,11.76h-2.88Z"/><path class="cls-1" d="M429.08,9.18c-2.02.2-3.88.43-9.13,2.65-1.25.54-6.12,2.6-6.12,5.69,0,1.86,2.02,2.58,6.63,2.58,3.9,0,6.38-.66,8.57-1.35-.25.94-.38,1.68-.33,3.85-3.16.61-6.81.77-8.5.77-4.49,0-6.25-.71-7.42-1.33-1.58-.84-2.7-2.37-2.7-4.29,0-3.06,2.32-5.26,5.54-7.12-1.35-1.4-1.56-3.09-1.96-6.38-.08-.69-.18-1.38-.59-2.5l4.31-.92c-.1,1.22-.15,1.81-.15,2.6,0,2.65.56,4.67,1.22,5.74,3.52-1.63,4.75-2.09,9.29-3.8l1.35,3.8Z"/><path class="cls-1" d="M440.23,2.7c.2.08.31.18.31.36,0,.28-.38.36-.71.41-.94,3.29-1.45,6.71-1.45,10.13,0,1.5.08,2.25.18,3.01.23-.41,1.17-2.22,1.38-2.58.2.38.64,1.15,1.63,2.17-1.3,2.09-2.14,4.41-2.12,6.63l-2.91.56c-.36-1.25-1.33-4.72-1.33-10.08,0-2.68.28-7.14,1.48-11.74l3.55,1.12ZM452.45,2.14c.28.05.36.18.36.33,0,.25-.36.33-.61.36-.08.59-.18,1.28-.25,3.34,2.27-.41,3.24-.74,4.01-1v3.29c-2.07.51-3.34.71-4.08.84,0,2.75.23,5.43.38,6.4,2.19.77,4.06,1.84,5.08,2.76-.38.66-1.33,2.63-1.5,3.04-1.53-1.43-2.5-1.86-3.24-2.19,0,3.5-3.93,3.72-5.05,3.72-3.7,0-5-2.27-5-4.01,0-2.55,2.5-3.95,5.26-3.95.46,0,.77.05,1.07.08-.08-1-.25-3.16-.28-5.41-1.56.13-2.86.18-3.62.18s-1.22-.03-1.76-.05v-3.42c.79.08,1.68.18,3.16.18,1.05,0,1.73-.05,2.19-.08,0-.23.03-4.46.03-5.05l3.88.64ZM447.45,17.76c-1.58,0-2.07.71-2.07,1.28,0,.71.74,1.22,1.79,1.22.18,0,2.14-.03,2.14-1.61,0-.18-.03-.36-.05-.56-.36-.15-.84-.33-1.81-.33Z"/><path class="cls-2" d="M17.5,77.9v5.01H5.06v41.76H0v-46.76h17.5Z"/><path class="cls-2" d="M68.99,101.26c.3.15.69.4.69.79,0,.5-.4.6-1.44.79-.84,1.88-2.13,4.61-6.05,9.67.4.69,2.63,4.41,3.92,4.41,1.49,0,2.13-3.72,2.23-4.41,1.34,1.29,2.68,2.13,4.41,2.93-.45,2.33-2.33,8.88-5.9,8.88-3.27,0-7.29-5.7-8.48-7.54-4.81,4.66-7.89,6.25-9.77,7.14-1.69-2.13-2.78-2.93-5.11-4.02,4.41-1.98,7.93-4.12,12.1-8.43-1.34-3.12-2.88-7.54-3.72-13.39h-8.53v6.15c4.12-1.04,5.9-1.64,7.19-2.03-.4,1.79-.59,3.62-.69,5.5-1.09.4-2.98,1.09-6.5,2.08v7.64c0,3.32-.35,7.14-9.97,6.89.05-2.83-1.54-5.26-2.13-6.2,1.69.4,3.03.5,4.41.5,1.24,0,1.79-.25,1.79-2.08v-5.06c-2.28.54-5.36,1.34-7.69,1.74-.15.5-.3,1.19-1.04,1.19-.3,0-.59-.35-.69-.69l-1.64-5.9c3.17-.5,6.5-1.19,11.06-2.18v-7.54h-10.51v-5.41h10.51v-5.01c-1.24.35-4.66,1.34-7.79,1.79-.79-2.18-2.48-4.31-3.02-5.01,1.49-.1,11.21-1.24,19.49-5.9l3.82,4.21c.25.3.3.6.3.79,0,.4-.25.64-.74.64s-.84-.2-1.29-.5c-1.74.94-2.78,1.29-4.86,2.08v6.89h8.03c-.25-4.07-.4-8.53-.45-14.33l5.9.3c.25,0,1.04.05,1.04.64,0,.5-.4.64-1.04.94,0,3.37.1,8.13.35,12.45h15.03v5.41h-14.58c.2,1.49.74,4.86,1.93,8.48,2.63-3.77,3.47-6.05,4.07-7.64l5.36,2.33ZM62.84,79.79c2.33,2.18,4.86,5.45,6.3,8.13-1.59.94-3.17,1.88-4.66,3.02-1.54-2.73-4.81-6.89-6-8.03l4.36-3.12Z"/><path class="cls-2" d="M81.59,124.92v-5.01h12.45v-41.76h5.06v46.76h-17.51Z"/><path class="cls-1" d="M124.94,86.78c-1.75,1.85-6.05,6.37-6.05,14.63s4.31,12.78,6.05,14.63l-2.63,2.38c-5.87-5.91-7.01-12.57-7.01-17.02s1.14-11.11,7.01-17.02l2.63,2.39Z"/><path class="cls-1" d="M139.53,117.53h-4.38v-17.87c-1.03,1.32-1.39,1.71-1.82,2.14-.78-1.57-1.71-2.42-2.85-3.31,4.49-5.09,6.09-9.4,7.55-13.67l4.24,1.46c.29.11.43.25.43.5,0,.39-.36.53-1,.5-.21.78-.43,1.53-2.39,5.59.61.14,1.03.25,1.03.64,0,.32-.25.5-.82.85v23.17ZM146.9,116.04v1.5h-4.06v-31.36h20.58v31.36h-4.13v-1.5h-12.39ZM159.29,112.37v-22.5h-12.39v22.5h12.39ZM158.58,94.14v3.24h-3.74v2.53h2.71v11.04h-3.06v-.96h-2.81v.96h-3.1v-11.04h2.71v-2.53h-3.7v-3.24h3.7v-3.45l3.59.18c.5.04.78.07.78.39,0,.25-.43.5-.82.75v2.14h3.74ZM154.49,103.04h-2.81v3.63h2.81v-3.63Z"/><path class="cls-1" d="M189.2,85.35c.64.04.85.29.85.53s-.39.5-.85.68c-.21,10.04-.46,20.29,14.31,27.23-1.6,1.28-2.31,2.03-3.24,3.77-4.09-1.99-7.08-5.02-7.8-5.77-2.92-2.92-4.27-5.41-5.48-8.15-2.42,6.44-7.51,11.04-13.28,13.88-1.32-1.78-2.1-2.6-3.7-3.63,8.69-3.2,11.82-9.33,12.85-12.35,1.5-4.42,1.71-8.12,1.6-16.55l4.73.36Z"/><path class="cls-1" d="M223.53,112.12c8.4-1.6,10.57-7.87,10.57-11.61,0-4.13-2.67-8.97-9.08-9.29-1.21,13.28-6.34,22.82-10,22.82-2.74,0-7.55-4.49-7.55-10.86,0-7.58,6.87-16.3,17.02-16.3,7.58,0,14.38,5.13,14.38,13.63,0,5.3-2.38,8.76-4.2,10.79-2.42,2.74-5.38,4.02-8.01,5.05-1.07-1.78-1.74-2.71-3.13-4.24ZM212,102.87c0,3.03,1.6,5.41,2.71,5.41,1.03,0,2.03-2.42,2.6-3.84,2.53-6.09,2.6-10.71,2.67-12.35-4.84,1.5-7.97,7.01-7.97,10.79Z"/><path class="cls-1" d="M252.91,110.73c.43.21.78.39.78.68,0,.39-.53.5-1.1.5-1.25,2.35-3.6,5.09-4.06,5.66-1.21-1.07-2.03-1.64-3.49-2.17,1.53-1.57,2.99-3.38,4.49-6.34l3.38,1.67ZM275.69,87.17v3.35h-4.95c.04.07.07.14.07.25,0,.25-.36.36-1.03.43-.14.28-.21.43-.64,1.1h8.62v3.27h-32.64v-3.27h8.44c-.57-.78-.82-1.07-1.14-1.42l1.32-.36h-6.66v-3.35h11.96v-2.39l4.52.25c.25,0,.71.04.71.39,0,.29-.32.46-.64.61v1.14h12.07ZM261.38,108.35h-11.04v-11.43h22.07v11.43h-9.01c.39.43,1.42,1.57,2.35,2.96-1,.6-2.03,1.21-3.1,1.89-.96-1.71-2.1-3.03-2.88-3.88l1.6-.96ZM257.96,109.38c.36.04.68.14.68.43s-.25.5-.5.6v2.35c0,1.32.64,1.35,1.71,1.35h4.91c1.74,0,2.14-1.21,2.56-3.1,1.25.96,2.35,1.53,3.6,1.85-.68,2.63-1.28,4.56-5.34,4.56h-7.58c-3.06,0-3.74-1-3.74-3.24v-5.16l3.7.36ZM268.25,101.37v-1.74h-13.6v1.74h13.6ZM254.65,103.79v1.85h13.6v-1.85h-13.6ZM257.11,90.51c.29.29.68.78,1.14,1.5l-.96.29h7.16c.25-.43.5-.89.89-1.78h-8.22ZM273.34,108.81c2.06,1.99,3.56,4.27,4.49,5.7-1.92,1.21-2.17,1.35-3.28,2.31-.71-1.25-2.67-4.27-4.52-6.16l3.31-1.85Z"/><path class="cls-1" d="M295.37,90.91v3.2h-11.36v-3.2h11.36ZM288.6,115.97v1.53h-3.74v-12.64h10.15v12.42h-3.38v-1.32h-3.03ZM294.33,86.31v3.03h-8.86v-3.03h8.86ZM294.33,95.68v3.06h-8.86v-3.06h8.86ZM294.33,100.3v3.1h-8.86v-3.1h8.86ZM291.63,112.51v-4.09h-3.03v4.09h3.03ZM316.4,103.12c.14.07.39.28.39.5,0,.5-.53.46-1.17.39-1.46,2.71-2.28,4.24-2.85,5.09.18.53.75,2.42,1.21,2.42.43,0,.78-2.28.93-3.03.64,1.07,1.32,1.89,2.6,2.56-.82,4.45-1.74,6.48-3.42,6.48-1.5,0-3.13-3.03-3.88-4.88-1.89,2.28-3.38,3.77-5.38,5.3-.82-1.21-1.46-1.89-2.6-2.6,1.07-.75,1.64-1.21,2.42-1.92h-4.98v2.88h-3.52v-14.63h10.15v10.11c1.53-1.67,2.21-2.63,2.56-3.17-.5-2.06-.93-4.49-1.25-8.26h-12.64v-3.35h2.46c-.18-1.03-.61-2.46-1.25-3.95l2.49-1h-3.2v-3.35h3.67v-3.67l4.17.14c.57.04.78.14.78.39,0,.18,0,.32-.93.78v2.35h3.67v3.35h-3.03l2.46.85c.11.04.39.14.39.39,0,.39-.46.43-.75.5-.43,1.28-1.14,2.96-1.25,3.2h2.74c-.04-1.03-.14-3.35-.14-4.24,0-.5.11-6.59.11-7.72l3.81.11c.29,0,.89.04.89.43,0,.25-.21.36-.93.75-.14,2.28-.18,4.59-.18,6.87s.04,3.13.04,3.81h5.84v3.35h-5.66c.04.75.11,1.82.39,3.7.39-.75.71-1.5,1.35-3.1l3.49,2.14ZM299.03,92.08c.93,2.21,1.25,3.67,1.39,4.38l-2.03.57h3.06c.5-1.28,1.07-2.88,1.6-4.95h-4.02ZM302.66,106.36v-1.85h-2.99v1.85h2.99ZM299.67,108.6v1.99h2.99v-1.99h-2.99ZM314.59,87.52c.85,1.85,1.53,3.6,2.14,6.09-1.64.43-1.96.57-3.38,1.21-.21-.89-.82-3.67-2.06-5.95l3.31-1.35Z"/><path class="cls-1" d="M323.13,98.95c1.28-.53,3.24-1.64,6.76-3.6-.68-1.32-2.24-4.2-4.02-6.44l5.02-1.96c.25-.11.36-.14.46-.14.29,0,.5.18.5.46,0,.25-.18.39-.32.53.14.21.75,1.5,1.57,3.17.18.36.5,1.03,1,2.06.32-.18,2.53-1.35,4.24-2.06-1.67-2.28-2.42-3.06-3.31-3.99l3.95-1.89c.68.61,1.71,1.6,3.74,4.31,1.46-.39,2.88-.61,4.38-.61,6.59,0,8.62,4.34,8.62,7.83,0,8.58-10.22,8.9-13.17,8.94-.64-2.1-.78-2.6-1.74-4.56,2.1.07,10.29.39,10.29-4.52,0-2.1-1.6-3.42-3.77-3.42-.32,0-.93.04-1.96.21,1.14,1.89,1.6,2.81,2.06,3.74-2.31.93-2.81,1.14-4.56,1.96-.5-1.14-.92-2.24-2.14-4.27-2.46.96-3.81,1.71-4.73,2.21,2.67,5.45,5.62,13.46,6.62,18.01-.21.07-3.45,1.6-5.16,2.38-.71-6.05-2.85-12.17-5.55-17.94-2.49,1.53-4.2,2.88-5.87,4.17l-2.88-4.59Z"/><path class="cls-1" d="M389.12,89.48v27.98h-4.56v-2.06h-16.27v2.06h-4.59v-27.98h7.05c.25-.53,1.28-2.92,1.57-4.73l5.23.64c.46.07.64.25.64.46,0,.43-.5.53-1.03.68-.68,1.5-.96,2.07-1.46,2.96h13.42ZM368.29,96.89h16.27v-3.52h-16.27v3.52ZM384.56,100.66h-16.27v3.52h16.27v-3.52ZM384.56,107.99h-16.27v3.52h16.27v-3.52Z"/><path class="cls-1" d="M406.43,117.5h-4.34v-18.44c-1.46,1.96-2.14,2.53-2.56,2.88-.5-.75-1.71-2.31-3.03-3.17,1.82-1.53,3.45-3.7,5.09-6.26,1.85-2.85,2.53-4.81,3.56-7.62l4.02,1.46c.36.14.53.32.53.57,0,.32-.43.46-1.03.53-.78,2.1-1.53,3.7-2.67,5.66.93.39,1.17.53,1.17.85,0,.29-.5.5-.75.61v22.93ZM430.49,94.36h-22.11v-3.38h22.11v3.38ZM414.37,115.86v1.64h-4.52v-11.96h19.19v11.96h-4.59v-1.64h-10.07ZM427.72,89.41h-16.62v-3.31h16.62v3.31ZM427.72,99.24h-16.62v-3.35h16.62v3.35ZM427.72,104.04h-16.62v-3.27h16.62v3.27ZM424.44,112.26v-3.03h-10.07v3.03h10.07Z"/><path class="cls-1" d="M440.42,107.28c3.7,2.24,6.51,4.91,7.76,6.12l-3.45,3.45c-2.1-2.6-4.41-4.59-7.23-6.41l2.92-3.17Z"/><path class="cls-1" d="M487.37,89.48v27.98h-4.56v-2.06h-16.27v2.06h-4.59v-27.98h7.05c.25-.53,1.28-2.92,1.57-4.73l5.23.64c.46.07.64.25.64.46,0,.43-.5.53-1.03.68-.68,1.5-.96,2.07-1.46,2.96h13.42ZM466.55,96.89h16.27v-3.52h-16.27v3.52ZM482.82,100.66h-16.27v3.52h16.27v-3.52ZM482.82,107.99h-16.27v3.52h16.27v-3.52Z"/><path class="cls-1" d="M502.16,101.73v9.11c0,.93,0,2.17,2.53,2.17h14.74c3.2,0,3.45-1.78,3.92-5.27,1.5,1.03,2.56,1.5,4.49,1.82-.96,5.23-2.14,7.33-7.3,7.33h-16.3c-1.53,0-3.52-.11-4.77-.85-1.46-.85-1.85-3.03-1.85-4.02v-14.31h22.14v-7.26h-23.64v-4.17h28.12v17.59h-4.49v-2.14h-17.58Z"/><path class="cls-1" d="M559.27,85c.57.5,2.28,1.92,3.99,4.24-.5.32-.96.64-2.21,1.67h4.98v4.09h-11.46c.43,4.77,1.39,7.65,1.74,8.72,1.28-2.24,2.17-4.34,3.24-7.4l4.34,1.85c.21.07.43.32.43.57,0,.32-.25.36-1.07.5-2.85,5.84-3.31,6.83-4.88,9.04.71,1.17,2.38,3.95,3.38,3.95.85,0,1.46-3.45,1.53-3.84,1.67,1.57,2.53,2.03,3.67,2.42-.71,3.28-1.99,5.06-2.21,5.38-.85,1.17-1.99,1.17-2.35,1.17-2.85,0-5.8-4.17-6.76-5.52-3.03,3.52-5.77,5.16-6.83,5.8-.96-1.32-1.78-2.14-3.45-2.99,3.6-1.82,6.12-4.2,8.08-6.69-1.96-4.27-2.74-8.15-3.31-12.96h-9.18c0,1.14,0,2.24-.04,3.74h7.9c0,4.91-.21,7.65-.61,10.25-.29,1.71-.85,4.42-5.7,4.42-.29,0-.53-.04-1.1-.07-.21-1.1-1.17-3.42-1.5-3.99-1.1,4.81-2.53,6.91-3.06,7.69-1.5-1-3.13-1.5-4.2-1.71,3.63-5.02,3.7-11.14,3.7-18.72v-5.7h13.42c-.11-2.92-.14-4.06-.18-5.73l4.63.29c.39.04.78.04.78.43,0,.43-.64.64-.93.71.04,2.28.11,3.42.18,4.31h4.95c-.29-.36-1.96-2.42-3.17-3.52l3.24-2.38ZM540.76,102.69c-.18,2.6-.43,4.66-.82,6.51.57.07,1.5.29,2.35.29s1.42-.14,1.74-1.14c.25-.68.53-2.6.57-5.66h-3.84Z"/><path class="cls-1" d="M573.07,113.47c1.25-.14,2.6-.25,5.3-.71v-7.83h-6.09v-3.6h6.73v-15.7h22.57v3.52h-18.26v1.85h16.3v3.2h-16.3v1.92h16.27v3.27h-16.27v1.92h21.57v3.6h-5.34l1.96,1.46c.25.18.43.36.43.57,0,.36-.25.36-.92.32-1.1,1.03-1.42,1.28-4.24,3.38,1.53,1.03,4.34,2.74,7.9,3.63-.6.46-1.82,1.35-3.06,3.38-2.95-.96-7.97-3.95-10.79-6.76-.43,2.31-.39,2.63-.32,3.1-4.09,1.03-10.54,2.39-14.95,3.17-.25.57-.39.68-.61.68-.32,0-.5-.28-.68-.85l-1.21-3.52ZM582.68,112.02c3.7-.68,6.12-1.25,7.65-1.64-2.21-2.38-3.38-4.81-3.67-5.45h-3.99v7.08ZM591.15,104.93c.78,1.28,1.5,2.1,2.63,3.31,1.17-.89,2.31-1.92,3.56-3.31h-6.19Z"/><path class="cls-1" d="M611.87,116.04c1.75-1.85,6.05-6.37,6.05-14.63s-4.31-12.78-6.05-14.63l2.63-2.39c5.87,5.91,7.01,12.57,7.01,17.02s-1.14,11.11-7.01,17.02l-2.63-2.38Z"/><path class="cls-1" d="M311.36,146.65l11.95-11.95,4.07,4.07-11.95,11.95,11.95,11.95-4.07,4.07-11.95-11.95-11.95,11.95-4.07-4.07,11.95-11.95-11.95-11.95,4.07-4.07,11.95,11.95Z"/><path class="cls-2" d="M32.25,177.9v5.01h-12.45v41.76h-5.06v-46.76h17.5Z"/><path class="cls-2" d="M79.82,199.87v20.38h-5.26l-.35-5.01c-3.87,4.76-8.03,6.1-12.94,6.1-12.7,0-19.69-8.78-19.69-20.58,0-12.79,7.88-20.68,19.59-20.68,14.43,0,17.56,10.61,18.5,13.79h-7.84c-2.08-6.74-7.83-7.49-10.81-7.49-7.93,0-11.8,6.1-11.8,13.84s2.58,10.56,3.82,11.8c2.48,2.48,5.55,3.03,7.79,3.03,5.11,0,9.82-2.33,11.55-9.67h-9.87v-5.5h17.31Z"/><path class="cls-2" d="M111.57,181.18l14.83,39.08h-7.74l-2.73-7.83h-17.21l-2.78,7.83h-7.69l14.78-39.08h8.53ZM107.3,188.17l-6.69,18.89h13.39l-6.7-18.89Z"/><path class="cls-2" d="M134.83,224.92v-5.01h12.45v-41.76h5.06v46.76h-17.51Z"/><path class="cls-1" d="M178.19,186.78c-1.75,1.85-6.05,6.37-6.05,14.63s4.31,12.78,6.05,14.63l-2.63,2.38c-5.87-5.91-7.01-12.57-7.01-17.02s1.14-11.11,7.01-17.02l2.63,2.39Z"/><path class="cls-1" d="M212.61,200.3v14.63h-3.77l-.25-3.6c-2.78,3.42-5.77,4.38-9.29,4.38-9.11,0-14.13-6.3-14.13-14.77,0-9.18,5.66-14.84,14.06-14.84,10.36,0,12.6,7.62,13.28,9.9h-5.62c-1.5-4.84-5.62-5.38-7.76-5.38-5.7,0-8.47,4.38-8.47,9.93s1.85,7.58,2.74,8.47c1.78,1.78,3.99,2.17,5.59,2.17,3.67,0,7.05-1.67,8.29-6.94h-7.08v-3.95h12.42Z"/><path class="cls-1" d="M241.37,204.72c0,8.08-5.7,11-10.93,11s-10.96-2.96-10.96-11,5.66-11,10.96-11,10.93,2.92,10.93,11ZM224.5,204.72c0,3.99,2.21,7.23,5.94,7.23s5.91-3.42,5.91-7.23-2.07-7.23-5.91-7.23-5.94,3.28-5.94,7.23Z"/><path class="cls-1" d="M248.1,200.52c.25-1.89.85-6.8,10.25-6.8,2.35,0,9.75.43,9.75,6.69v11.46c0,.64.28,2.1.96,2.6v.46h-5.13c-.57-.85-.61-1.96-.61-2.46-1.32,1.5-3.42,3.24-8.12,3.24-1.96,0-8.19-.14-8.19-6.37,0-5.09,4.34-5.66,9.4-6.3,5.38-.71,6.91-.89,6.91-2.78,0-2.78-3.49-2.78-4.52-2.78-5.41,0-5.94,1.6-5.98,3.03h-4.73ZM263.3,204.86c-1.17.6-4.13,1.03-5.94,1.28-3.42.5-5.3.78-5.3,2.96,0,.71.36,2.85,4.56,2.85s6.69-2.31,6.69-4.41v-2.67Z"/><path class="cls-1" d="M281.1,186.88v28.05h-4.81v-28.05h4.81Z"/><path class="cls-1" d="M320.79,186.88l10.64,28.05h-5.55l-1.96-5.62h-12.35l-1.99,5.62h-5.52l10.61-28.05h6.12ZM317.73,191.9l-4.81,13.56h9.61l-4.81-13.56Z"/><path class="cls-1" d="M357.73,207.32c-.57,5.48-4.7,8.4-10.64,8.4-8.22,0-11.25-5.3-11.25-10.86,0-6.73,4.24-11.14,11.21-11.14,1.14,0,9.43.04,10.47,8.08h-4.98c-.36-4.31-4.49-4.31-5.45-4.31-1.42,0-3.6.29-4.84,2.06-1.25,1.74-1.39,3.88-1.39,5.09,0,1.03.14,3.77,1.78,5.59.68.78,1.89,1.71,4.38,1.71,5.09,0,5.45-3.2,5.62-4.63h5.09Z"/><path class="cls-1" d="M369.13,186.88v10.18c.71-.89,2.67-3.35,7.05-3.35,4.98,0,8.4,3.28,8.4,8.08v13.14h-4.81v-12.53c0-2.1-1.35-4.91-5.13-4.91-.96,0-3.52.21-4.7,2.35-.57,1.07-.82,2.17-.82,2.81v12.28h-4.81v-28.05h4.81Z"/><path class="cls-1" d="M397.6,191.87h-5.02v-4.98h5.02v4.98ZM397.5,214.93h-4.81v-20.47h4.81v20.47Z"/><path class="cls-1" d="M426.25,208.74c-.53,1.6-2.17,6.98-10.5,6.98-6.69,0-11.04-3.95-11.04-11,0-8.22,5.7-11,10.82-11,4.17,0,7.69,1.78,9.58,5.34.93,1.74,1.32,3.52,1.5,6.76h-17.02c.32,6.12,4.88,6.12,6.19,6.12,2.6,0,4.63-.75,5.52-3.2h4.95ZM421.65,202.51c-.32-1.25-1.32-5.02-6.09-5.02s-5.52,3.49-5.91,5.02h12Z"/><path class="cls-1" d="M435.72,194.46l6.34,14.77,6.3-14.77h5.23l-8.83,20.47h-5.45l-8.83-20.47h5.23Z"/><path class="cls-1" d="M479.17,208.74c-.53,1.6-2.17,6.98-10.5,6.98-6.69,0-11.04-3.95-11.04-11,0-8.22,5.7-11,10.82-11,4.17,0,7.69,1.78,9.58,5.34.93,1.74,1.32,3.52,1.5,6.76h-17.02c.32,6.12,4.88,6.12,6.19,6.12,2.6,0,4.63-.75,5.52-3.2h4.95ZM474.57,202.51c-.32-1.25-1.32-5.02-6.09-5.02s-5.52,3.49-5.91,5.02h12Z"/><path class="cls-1" d="M490.99,194.46l.11,2.74c1-1.96,2.95-3.49,5.7-3.49,3.95,0,5.3,2.63,5.8,3.6.89-1.5,2.46-3.6,6.19-3.6,3.17,0,6.66,1.64,6.66,6.98v14.24h-4.81v-13.42c0-1.14-.28-4.02-3.38-4.02-2.78,0-3.99,2.53-3.99,4.84v12.6h-4.81v-13.6c0-1.92-1.14-3.84-3.42-3.84s-3.95,2.24-3.95,4.84v12.6h-4.84v-20.47h4.73Z"/><path class="cls-1" d="M543.82,208.74c-.53,1.6-2.17,6.98-10.5,6.98-6.69,0-11.04-3.95-11.04-11,0-8.22,5.7-11,10.82-11,4.17,0,7.69,1.78,9.58,5.34.93,1.74,1.32,3.52,1.5,6.76h-17.02c.32,6.12,4.88,6.12,6.19,6.12,2.6,0,4.63-.75,5.52-3.2h4.95ZM539.23,202.51c-.32-1.25-1.32-5.02-6.09-5.02s-5.52,3.49-5.91,5.02h12Z"/><path class="cls-1" d="M555.58,194.46l.07,2.6c.71-.89,2.67-3.35,7.05-3.35,4.98,0,8.4,3.28,8.4,8.08v13.14h-4.81v-12.53c0-2.1-1.35-4.91-5.13-4.91-.96,0-3.52.21-4.7,2.35-.57,1.07-.82,2.17-.82,2.81v12.28h-4.81v-20.47h4.74Z"/><path class="cls-1" d="M585.69,194.46h4.98v3.45h-4.98v11.53c0,2.17,1.39,2.28,3.35,2.28h1.64v3.84c-.57.07-1.53.14-2.92.14-1.89,0-6.87,0-6.87-5.77v-12.03h-4.09v-3.45h4.09v-5.73h4.81v5.73Z"/><path class="cls-1" d="M597.11,216.04c1.75-1.85,6.05-6.37,6.05-14.63s-4.31-12.78-6.05-14.63l2.63-2.39c5.87,5.91,7.01,12.57,7.01,17.02s-1.14,11.11-7.01,17.02l-2.63-2.38Z"/><path class="cls-1" d="M99.37,288.07v-2.3h8.21v9.65h-2.21l-.14-2.78c-1.92,2.66-4.06,3.31-6.55,3.31-6.67,0-9.46-4.75-9.46-9.99s2.98-9.98,9.43-9.98c7.06,0,8.4,4.99,8.83,6.67h-3.17c-.53-1.56-1.42-4.08-5.69-4.08-4.49,0-6.34,3.17-6.34,7.42,0,5.93,3.55,7.37,6.02,7.37,1.58,0,5.23-.26,6.24-5.28h-5.18Z"/><path class="cls-1" d="M120.54,276.5l7.44,18.91h-3.14l-1.51-4.01h-9.1l-1.51,4.01h-3.14l7.42-18.91h3.55ZM118.76,279.33l-3.7,9.79h7.39l-3.7-9.79Z"/><path class="cls-1" d="M143.8,276.5v2.54h-10.61v5.78h9.26v2.57h-9.26v8.02h-3.02v-18.91h13.63Z"/><path class="cls-1" d="M149.39,295.41h-3v-18.91h3v18.91Z"/><path class="cls-1" d="M168.62,276.5v2.54h-6.91v16.37h-3v-16.37h-6.89v-2.54h16.8Z"/><path class="cls-1" d="M180,276.24c-1.3,1.3-4.39,4.34-4.39,10.06s3.1,8.79,4.39,10.06l-1.49,1.42c-1.1-1.01-4.99-4.68-4.99-11.47s3.89-10.46,4.99-11.47l1.49,1.42Z"/><path class="cls-1" d="M194.56,276.02c.31.02.48.07.48.26,0,.12-.1.34-.48.43,0,.6-.02,1.44-.12,3.7h7.95c-.36,13.87-.94,16.39-8.26,16.03-.12-1.03-.26-1.63-.67-2.71.55.14,1.18.29,2.26.29,1.22,0,2.52-.07,3.12-2.11.34-1.18.74-3.05.89-9.15h-5.45c-.38,3.12-1.54,9.79-9.31,13.9-.55-.84-.96-1.3-1.8-1.9,7.51-3.6,8.28-9.84,8.52-12h-7.87v-2.35h8.06c.1-2.18-.05-3.67-.12-4.68l2.81.29ZM199.2,275.42c.82.7,1.87,1.82,2.5,2.57-.53.36-.89.62-1.42,1.1-.7-.91-1.58-1.9-2.45-2.69l1.37-.98ZM202.58,274.56c.82.7,1.85,1.8,2.45,2.62-.62.34-.82.5-1.49,1.06-.62-.91-1.58-1.99-2.38-2.71l1.42-.96Z"/><path class="cls-1" d="M223.17,277.08c1.01,0,1.42-.14,1.66-.22l1.85,1.56c-.38.62-.48.79-.7,1.39-2.59,6.84-4.66,12.1-14.14,16.73-.62-.98-1.61-1.73-1.92-1.97,7.2-3.1,10.61-6.77,13.39-15.17h-15.7v-2.33h15.55Z"/><path class="cls-1" d="M238.11,296.54h-2.3v-9.36c-.86.53-3.94,2.26-6.29,3.05-.41-.67-.96-1.32-1.61-1.87,5.14-1.66,9.53-4.08,13.56-9.12l1.94,1.49c.1.07.17.19.17.31,0,.22-.26.26-.65.19-1.97,2.06-3.17,3.12-4.83,4.37v10.94Z"/><path class="cls-1" d="M250.43,281.56c.94,1.44,1.78,3.22,2.35,4.78-.67.22-1.37.53-2.04.94-.77-2.09-1.22-2.98-2.33-4.85l2.02-.86ZM264.79,281.4c.24.07.43.14.43.34,0,.26-.34.34-.46.36-1.78,7.01-4.7,11.28-11.88,14.19-.5-.77-.86-1.2-1.46-1.82,3.53-1.27,9.75-3.98,11.14-13.75l2.23.7ZM255.64,280.34c.98,1.61,1.66,3.1,2.18,4.87-.31.1-1.25.38-2.04.82-.53-1.61-1.15-3.1-2.21-4.85l2.06-.84Z"/><path class="cls-1" d="M275.64,282.12c2.52,1.25,6.17,3.29,9.03,6-.29.36-.74.91-1.51,2.14-3.14-3-6.53-4.92-8.54-5.91v12.31h-2.62v-20.88l2.64.17c.29.02.43.1.43.29,0,.26-.29.31-.46.36v6.96l1.03-1.44Z"/><path class="cls-1" d="M289.15,296.35c1.3-1.27,4.39-4.34,4.39-10.06s-3.1-8.76-4.39-10.06l1.49-1.42c1.08,1.01,4.99,4.7,4.99,11.47s-3.91,10.46-4.99,11.47l-1.49-1.42Z"/><path class="cls-1" d="M306.4,276.86c.34.12.53.19.53.41,0,.24-.29.26-.58.29-1.1,3.38-1.61,6.86-1.61,10.37,0,1.58.1,2.3.26,3.26.26-.79.96-2.57,1.39-3.34.19.29.5.84,1.34,1.39-.31.67-1.78,3.82-1.66,6.41l-2.26.65c-.65-1.75-1.49-4.32-1.49-8.9,0-4.2.58-6.96,1.51-11.5l2.54.96ZM312.67,287.97c-.29.58-.74,1.44-.74,2.45,0,1.49,1.73,1.78,4.27,1.78.79,0,3.36,0,5.93-.65-.1.46-.24,1.32-.22,2.64-1.58.24-4.01.36-5.64.36-2.93,0-6.7-.29-6.7-3.41,0-1.25.41-2.45.94-3.6l2.16.43ZM310.49,278.61c.65.05,1.37.12,2.59.12,2.83,0,5.14-.17,7.46-.77.07.48.24,2.11.29,2.45-2.54.5-5.16.7-7.78.7-1.18,0-1.94-.07-2.57-.1v-2.4Z"/><path class="cls-1" d="M329.76,284.76v6.53c0,1.61.26,3.26,4.13,3.26,9,0,10.13-.05,12.87-.48-.48.77-.82,1.56-.89,2.52h-10.92c-3.86,0-5.11-.53-6.31-2.28-.34.31-1.25,1.13-2.64,2.21.02.14.02.24.02.34,0,.31-.17.38-.29.38-.14,0-.26-.17-.36-.34l-1.27-2.3c1.2-.55,2.74-1.61,3.14-1.9v-5.69h-2.71v-2.26h5.23ZM326.04,275.37c1.49.98,3.22,2.47,4.37,3.67-.58.5-.89.86-1.78,1.85-1.54-1.66-2.45-2.45-4.13-3.79l1.54-1.73ZM339.29,293.13h-2.28v-3.41h-2.93v3.82h-2.28v-12.5h4.56c-.84-.65-1.7-1.22-2.59-1.75l1.34-1.44c.84.53,1.66,1.08,2.47,1.63.26-.14,1.37-.82,2.35-1.68h-7.9v-1.99h10.54l.96,1.27c-1.8,1.85-3.53,3.02-4.32,3.53.31.22.43.31.58.43h4.87v10.13c0,1.78-.84,2.42-3.79,2.47-.07-.77-.34-1.54-.7-2.21.26.02,1.2.1,1.44.1.55,0,.77-.22.77-.7v-1.1h-3.1v3.41ZM337.01,282.91h-2.93v1.66h2.93v-1.66ZM337.01,286.29h-2.93v1.68h2.93v-1.68ZM339.29,284.57h3.1v-1.66h-3.1v1.66ZM339.29,287.97h3.1v-1.68h-3.1v1.68Z"/><path class="cls-1" d="M348.4,283.82c.79-.1,1.13-.19,3.53-1.15,2.59-1.06,5.04-2.04,7.8-2.04,4.1,0,6.19,2.98,6.19,6.31,0,5.86-5.54,9.48-11.45,10.51-.34-.72-.67-1.2-1.54-2.18,8.28-1.27,10.46-5.45,10.46-8.16,0-2.54-1.63-4.18-3.84-4.18-2.76,0-7.01,1.9-9.89,4.08l-1.27-3.19ZM353.18,275.08c1.01.31,3.55,1.15,7.51,1.15.67,0,1.13-.02,1.54-.07-.19,1.08-.26,1.58-.34,2.64-5.16-.1-7.92-.89-9.1-1.22l.38-2.5Z"/><path class="cls-1" d="M376.91,281.8v2.23h-2.57v7.71c1.13-.34,1.92-.6,2.88-.94-.17.94-.26,1.58-.22,2.42-1.9.74-6.07,2.02-7.13,2.3-.07.43-.1.67-.36.67-.22,0-.24-.19-.34-.53l-.65-2.42c.6-.12,1.44-.29,3.31-.79v-8.42h-2.83v-2.23h2.83v-6.02l2.69.19c.14,0,.46.05.46.29,0,.22-.36.34-.65.38v5.16h2.57ZM383.1,282.79v-7.42l2.47.17c.17,0,.5.02.5.29,0,.22-.26.31-.6.41v5.54l3.67-1.51,1.15.58v7.97c0,2.26-.79,2.71-3.48,2.74-.17-.89-.43-1.7-.86-2.52.24.05.58.12,1.03.12.84,0,.94-.31.94-1.13v-4.82l-2.45,1.03v7.78h-2.38v-6.79l-1.94.82v7.2c0,.98.19,1.3,1.66,1.3h3.91c1.7,0,2.35-.02,2.54-2.74.5.53.96.89,2.23,1.42-.62,3.36-1.85,3.58-4.44,3.58h-4.9c-3.05,0-3.48-1.32-3.48-2.98v-6.74l-2.66,1.1-.79-2.11,3.46-1.44v-7.54l2.59.19c.22.02.48.05.48.26,0,.17-.24.29-.6.43v5.62l1.94-.79Z"/><path class="cls-1" d="M399.72,292.17c-1.75.91-3.6,1.78-5.28,2.54-.02.34-.07.7-.43.7-.14,0-.26-.14-.31-.31l-.55-2.45c.53-.14,1.03-.29,2.74-.94v-8.23h-2.52v-2.23h2.52v-5.62l2.3.17c.14,0,.46.02.46.26,0,.22-.22.36-.53.5v4.68h2.26v2.23h-2.26v7.3c1.18-.5,1.7-.77,2.26-1.06-.05,1.03-.02,1.32.02,2.06-.1.07-.31.19-.46.26,2.9-.43,5.42-1.18,7.61-1.9-.07.55-.19,1.1-.07,1.97-.65.22-2.38.82-3.41,1.13-2.69.79-3,.89-3.19.96-.07.24-.14.53-.46.53-.19,0-.31-.17-.34-.36l-.36-2.21ZM412.58,275.2c.58.48,1.63,1.63,2.09,2.35-.48.29-.94.55-1.56,1.27h2.11v1.97h-4.99c0,4.18.29,6.17.43,7.13.17-.34,1.32-2.81,1.73-5.67l2.26.72c.22.07.46.17.46.36,0,.24-.31.34-.7.41-.67,2.76-1.8,5.47-3.14,7.44.24.82.94,3.02,1.46,3.02.34,0,.86-.94,1.27-2.9.48.6,1.01,1.06,1.75,1.44-.77,2.9-1.85,4.44-2.95,4.44-1.56,0-2.38-2.16-3.1-4.06-.53.55-2.62,2.78-5.66,4.32-.5-.96-1.25-1.61-1.56-1.9,1.2-.5,4.2-1.94,6.5-4.85-.7-2.83-.86-5.59-.96-9.91h-7.75v-1.97h7.75v-3.55l2.35.17c.19.02.43.05.43.29,0,.19-.19.29-.48.43-.05,1.18-.07,1.92-.07,2.67h2.81c-.77-1.13-1.18-1.56-2.09-2.45l1.61-1.18ZM407.11,282.64v6.65h-4.06v1.18h-1.99v-7.83h6.05ZM403.06,284.57v2.78h2.09v-2.78h-2.09Z"/><path class="cls-1" d="M427.69,294.05c7.15-1.49,7.63-6.84,7.63-8.23,0-3.6-2.64-6.75-6.87-6.77-.26,2.76-.79,6.72-2.64,10.97-1.3,2.95-2.54,4.46-3.91,4.46-1.8,0-4.73-2.88-4.73-6.94,0-5.04,4.51-10.75,11.11-10.75,5.06,0,9.5,3.38,9.5,9,0,3.12-1.37,5.54-2.81,7.1-1.9,2.04-4.2,2.86-5.66,3.36-.67-1.13-1.15-1.68-1.63-2.21ZM419.55,287.37c0,2.4,1.27,4.18,2.21,4.18s1.61-1.82,2.23-3.38c1.13-2.9,1.73-5.62,1.82-8.71-3.79.96-6.26,4.87-6.26,7.92Z"/><path class="cls-1" d="M451.8,285.26c.12.02.43.12.43.29,0,.26-.48.34-.62.34-.1.22-.53,1.18-.62,1.37h8.54v9.99h-2.59v-1.06h-11.35v1.06h-2.57v-9.99h5.33c.43-.94.62-1.44.89-2.4-1.42.31-5.95,1.15-7.87,1.51-.1.29-.19.53-.43.53-.14,0-.26-.05-.38-.5l-.58-2.23c.62-.05.96-.07,2.93-.36v-8.62l2.66.17c.19.02.46.14.46.34s-.14.26-.58.43v2.4h5.57v2.11h-5.57v2.78c1.51-.24,4.06-.74,5.52-1.08-.19.74-.29,1.51-.31,2.26-.29.02-1.1.22-1.39.26l2.54.41ZM456.93,290.83v-1.63h-11.35v1.63h11.35ZM456.93,294.29v-1.75h-11.35v1.75h11.35ZM461.66,278.37c.07.07.14.17.14.31,0,.26-.19.29-.31.29-.14,0-.19-.02-.58-.19-2.23,1.15-5.35,2.23-6.53,2.59v1.27c0,.96.34,1.18,1.27,1.18h3.14c.82,0,1.15-.62,1.54-2.33.5.38.96.67,2.09.98-.79,3.58-2.02,3.58-3.46,3.58h-4.51c-1.97,0-2.5-.86-2.5-2.42v-8.52l2.64.22c.12,0,.46.02.46.26,0,.19-.14.26-.67.48v3.07c.53-.17,3.46-1.22,5.57-2.52l1.7,1.75Z"/><path class="cls-1" d="M469.48,297.24h-2.09v-10.15c-.53,1.7-1.13,3.24-2.06,4.83-.62-.82-.94-1.1-1.75-1.66,2.54-3.31,3.46-7.1,3.74-8.38h-3.12v-1.94h3.19v-4.63l2.09.14c.07,0,.5.1.5.34,0,.19-.14.26-.5.41v3.74h2.33v1.94h-2.33v.77c.79,2.09,1.61,3.53,3.02,5.09-.24.17-.84.5-1.49,1.49-.26-.41-.58-.86-1.54-3.24v11.26ZM480.13,281.11h4.34v1.78h-4.34v1.46h6.24v1.92h-6.24v1.87c.22.31.53.79,1.22,1.56,1.99-1.94,2.59-2.98,2.81-3.41l1.7,1.18c.1.07.22.19.22.38,0,.24-.26.26-.6.26-.7,1.01-1.75,2.02-2.78,2.9,1.32,1.15,2.06,1.7,4.22,2.76-.62.58-1.08,1.2-1.42,1.97-2.86-1.49-4.94-4.06-5.38-4.61v2.9c0,3.05-1.22,3.29-3.98,3.34-.41-1.58-.86-2.14-1.13-2.45.36.05.79.12,1.51.12,1.15,0,1.22-.31,1.22-1.03v-2.06c-2.14,1.32-3.75,2.09-4.78,2.59-.17.46-.19.55-.34.55-.22,0-.31-.24-.38-.41l-.86-1.87c2.45-.89,4.3-1.75,6.36-3.05v-3.5h-5.81v-1.92h5.81v-1.46h-4.34v-1.78h4.34v-1.3h-5.62v-1.85h3.29c-.55-.96-.96-1.51-1.44-2.09l2.04-.86c.58.77.67.96,1.66,2.57l-1.01.38h3.17c.17-.26.98-1.58,1.54-3.05l2.21.72c.17.05.29.22.29.36,0,.1-.19.24-.55.26-.31.58-.67,1.15-1.03,1.7h3.65v1.85h-5.81v1.3ZM474.76,286.39c.6.65,1.54,1.85,2.09,2.74-.22.17-1.25.96-1.56,1.25-.58-.91-1.78-2.33-2.21-2.81l1.68-1.18Z"/><path class="cls-1" d="M510.34,278.95v2.4h-10.87c-.02,1.22-.12,2.16-.24,3.02h7.92c.02,2.98-.26,8.95-1.82,11.21-1.1,1.58-2.54,1.61-4.9,1.68-.19-1.37-.7-2.14-1.15-2.74.34.07,1.13.22,2.14.22.86,0,1.82,0,2.42-1.61.26-.74.82-2.62.82-6.41h-5.88c-1.15,4.63-4.51,8.33-8.78,10.49-.46-.72-1.32-1.61-2.11-1.9,8.81-3.24,8.98-11.45,9.02-13.97h-8.52v-2.4h9.65v-3.7l2.66.17c.17,0,.5.1.5.34,0,.19-.14.26-.5.38v2.81h9.65Z"/><path class="cls-1" d="M522.19,276.19c.26.07.46.14.46.34,0,.17-.14.36-.6.41-.14.7-.22.98-.79,3.6,2.81-.12,5.76.55,5.76,5.76,0,4.66-1.37,7.66-2.33,8.74-.6.67-1.54,1.27-3.38,1.27-.91,0-1.75-.17-2.26-.29.05-1.1-.19-2.28-.29-2.71,1.3.43,2.06.5,2.57.5.72,0,1.56-.12,2.4-2.14.67-1.58.89-4.08.89-5.09,0-2.09-.5-3.74-2.9-3.74-.14,0-.5,0-1.03.07-1.58,5.83-3.65,9.75-6.29,13.25-.72-.48-1.58-.94-2.38-1.25,2.86-3.36,4.9-7.32,6.07-11.57-1.73.41-3,.72-4.85,1.42l-.82-2.62c1.01-.12,5.38-1.15,6.29-1.32.53-2.64.67-4.32.74-5.47l2.74.84ZM528.14,278.97c3.02,2.66,4.94,5.66,4.94,7.71s-1.94,2.71-3.77,3.26c-.31-.7-.86-1.61-1.25-2.16,1.25-.24,2.45-.46,2.45-1.58,0-1.44-2.02-4.15-4.22-6.05l1.85-1.18ZM529.73,276.38c.24.22,1.3,1.22,2.18,2.45-.55.38-.62.43-1.3.98-.5-.7-1.44-1.8-2.18-2.52l1.3-.91ZM531.91,274.92c.6.55,1.49,1.46,2.23,2.52-.6.34-.96.67-1.44,1.03-.72-1.18-1.22-1.8-2.14-2.69l1.34-.86Z"/><path class="cls-1" d="M85.51,314.92v2.11h-6.26v20.5h-2.11v-22.61h8.38Z"/><path class="cls-1" d="M107.06,318.44v18.72h-2.59v-1.61h-11.64v1.61h-2.59v-18.72h4.83c.58-1.34.96-2.42,1.15-3.41l2.88.41c.17.02.5.14.5.36,0,.29-.31.36-.72.43-.22.46-.74,1.66-1.06,2.21h9.24ZM92.83,323.44h11.64v-2.76h-11.64v2.76ZM104.47,325.57h-11.64v2.78h11.64v-2.78ZM104.47,330.54h-11.64v2.78h11.64v-2.78Z"/><path class="cls-1" d="M119.82,317.56c.1.07.26.19.26.36,0,.26-.22.26-.7.26-1.99,3.24-3.6,5.47-7.46,8.47-.67-1.01-1.2-1.51-1.94-1.92,3.38-2.5,5.54-4.61,7.58-8.64l2.26,1.46ZM115.42,326.03v-2.42h12.77c-2.16-2.21-2.95-4.13-3.5-5.42h-3.41v-2.35h5.47c.6,3.62,3.34,6.82,6.6,8.62-.94.91-1.13,1.18-1.61,2.18-1.15-.67-2.11-1.56-3.26-2.74-.48,11.28-.6,13.2-6.24,13.2-.24,0-.41-.02-.62-.02-.05-1.3-.55-2.28-.74-2.71.34.05,1.1.17,1.97.17,2.26,0,2.38-.67,2.74-3.6.1-.84.29-3.74.26-4.9h-4.49c-.14,2.23-.58,7.61-8.23,11.06-.5-1.08-1.39-1.82-1.8-2.16,5.86-2.16,7.34-5.54,7.56-8.9h-3.46Z"/><path class="cls-1" d="M145.67,334.05c7.15-1.49,7.63-6.84,7.63-8.23,0-3.6-2.64-6.75-6.87-6.77-.26,2.76-.79,6.72-2.64,10.97-1.3,2.95-2.54,4.46-3.91,4.46-1.8,0-4.73-2.88-4.73-6.94,0-5.04,4.51-10.75,11.11-10.75,5.06,0,9.5,3.38,9.5,9,0,3.12-1.37,5.54-2.81,7.1-1.9,2.04-4.2,2.86-5.66,3.36-.67-1.13-1.15-1.68-1.63-2.21ZM137.53,327.37c0,2.4,1.27,4.18,2.21,4.18s1.61-1.82,2.23-3.38c1.13-2.9,1.73-5.62,1.82-8.71-3.79.96-6.26,4.87-6.26,7.92Z"/><path class="cls-1" d="M162.14,335.77v1.42h-2.57v-21.05h16.63v21.03h-2.5v-1.39h-11.57ZM173.71,321.83v-3.41h-11.57v3.41h11.57ZM173.71,327.57v-3.46h-11.57v3.46h11.57ZM173.71,333.52v-3.65h-11.57v3.65h11.57Z"/><path class="cls-1" d="M185.34,337.21h-2.14v-9.62c-.55,2.09-1.2,3.84-1.99,5.54-.58-.5-1.08-.82-2.14-1.34,2.02-3.02,3.1-5.81,3.96-9.67h-3.1v-1.99h3.26v-4.94l2.26.17c.22.02.46.07.46.31,0,.26-.24.34-.58.46v4.01h2.59v1.99h-2.59v.72c.34.82,1.25,2.9,3.24,5.4-.65.48-1.3,1.1-1.82,1.66-.91-1.94-1.34-3.34-1.42-3.6v10.92ZM192.34,332.41c.17.1.31.17.31.38s-.19.31-.65.26c-1.22,1.73-2.04,2.57-3.36,3.79-.6-.55-1.34-1.06-2.02-1.44,1.42-1.01,2.9-2.54,3.82-4.01l1.9,1.01ZM197.6,319.36h3.7v5.54h-12.62v-5.54h3.46v-1.66h-4.32v-1.85h13.99v1.85h-4.2v1.66ZM196.21,335.03c0,1.44-.58,2.4-3.86,2.21-.19-1.32-.67-2.09-.89-2.4.53.1,1.15.19,1.68.19.72,0,.72-.31.72-.84v-3.05h-5.76v-1.85h13.73v1.85h-5.62v3.89ZM200.46,328h-11.04v-1.75h11.04v1.75ZM192.2,323.2v-2.21h-1.56v2.21h1.56ZM195.73,317.7h-1.73v1.66h1.73v-1.66ZM194,320.99v2.21h1.78v-2.21h-1.78ZM198.78,331.26c1.44,1.32,2.54,2.62,3.72,4.25-.89.41-1.66,1.06-1.94,1.3-1.25-2.02-2.86-3.62-3.55-4.27l1.78-1.27ZM197.6,320.99v2.21h1.73v-2.21h-1.73Z"/><path class="cls-1" d="M215.04,315.59c.14.02.5.1.5.41,0,.07-.02.34-.62.36-.19.43-.38.84-.89,1.87.72-.1,3.65-.43,5.98-1.27l.07,2.45c-3,.6-5.71.94-7.25,1.08-.79,1.34-1.13,1.9-1.66,2.69,1.22-.65,2.28-.65,2.54-.65.43,0,2.78,0,3.77,2.47,1.8-.79,4.66-2.02,5.38-2.38l.96,2.57c-2.62.74-4.01,1.3-5.9,2.04.1.89.1,1.82.1,2.57,0,1.13-.02,1.75-.07,2.4-.41-.02-1.61-.05-2.5,0,.19-2.06.12-3.5.1-3.87-3.91,2.04-4.42,3.14-4.42,4.1,0,.74.17,1.85,4.51,1.85,2.5,0,4.99-.36,7.42-1.01-.19.82-.29,1.46-.29,2.62-2.95.62-5.93.62-6.62.62-5.47,0-7.42-1.82-7.42-3.94,0-3.17,4.54-5.62,6.53-6.53-.19-.67-.48-1.71-2.26-1.71s-3.79,1.13-6.53,5.57l-2.23-1.37c1.13-1.18,3.84-4.54,5.79-7.87-1.94.1-2.54.12-4.44.1v-2.4c.77.07,1.7.17,3.36.17.96,0,1.75-.02,2.23-.05.82-1.66,1.1-2.3,1.44-3.43l2.42.53Z"/><path class="cls-1" d="M235.09,319.19v1.92h-9.36v-1.92h9.36ZM234.37,328.91v7.99h-2.3v-1.13h-3.24v1.56h-2.3v-8.42h7.85ZM233.84,315.83v1.97h-7.1v-1.97h7.1ZM233.82,322.45v1.85h-7.08v-1.85h7.08ZM233.82,325.69v1.85h-7.08v-1.85h7.08ZM228.83,330.85v2.83h3.24v-2.83h-3.24ZM238.57,328.02c.43.79,1.06,1.9,2.59,3.38,1.01-1.06,1.75-2.16,2.38-3.55h-8.02v-2.16h10.15l.94,1.1c-1.01,2.28-2.06,4.2-3.7,6.03.5.34,2.57,1.78,5.23,2.4-.67.67-1.13,1.27-1.51,2.04-2.16-.72-4.15-1.78-5.47-2.76-1.75,1.42-3.82,2.33-5.06,2.83-.38-.79-1.2-1.75-1.61-2.09,1.58-.38,3.12-1.01,4.92-2.3-.36-.34-1.75-1.78-2.71-3.67l1.87-1.25ZM244.31,315.88v5.71c0,.31.12.55.53.55h.7c.34,0,.82,0,.96-2.23.6.46,1.2.77,1.92.96-.48,2.47-.89,3.43-2.38,3.43h-1.94c-2.11,0-2.11-1.63-2.11-2.21v-4.13h-2.71c-.07,2.45-.14,4.94-2.35,7.32-.62-.55-1.46-1.06-2.16-1.25,2.06-1.8,2.06-4.13,2.06-5.76v-2.4h7.49Z"/><path class="cls-1" d="M256.77,326.25c.31.05.5.14.5.36,0,.24-.17.29-.65.41-.1.5-.62,2.86-.67,3.1.84,1.94,2.09,3.22,3.72,3.77v-9.48h-6.31v-2.23h15.24v2.23h-6.36v3.02h6.36v2.26h-6.36v4.66c1.54.1,3.07.1,3.65.1,2.18,0,3.17-.07,6.41-.31-.48,1.13-.65,1.8-.72,2.66h-8.74c-5.42,0-7.15-2.59-7.9-3.91-.79,1.7-1.66,2.95-2.69,4.3-.91-.72-1.15-.82-2.38-1.2.98-1.1,3.96-4.46,4.34-10.18l2.54.46ZM259.62,315.2l2.59.19c.24.02.65.05.65.29,0,.19-.1.22-.65.46v1.66h9.34v5.04h-2.52v-2.93h-16.18v2.98h-2.47v-5.09h9.24v-2.59Z"/><path class="cls-1" d="M279.14,316.14c.36.05.58.07.58.31s-.36.36-.6.41c-.5,3.12-.62,8.91-.62,10.61,0,4.46.31,6.6,2.9,6.6,4.8,0,8.45-5.57,9.17-7.13.72.96,1.13,1.46,1.9,2.11-3.94,6.29-8.54,7.58-11.28,7.58-5.04,0-5.26-4.78-5.26-9.19,0-1.63.29-8.86.29-10.34,0-.7-.02-.96-.07-1.37l3,.41Z"/><path class="cls-1" d="M315.39,324.42c-6.38,0-11.14,3.58-11.14,7.03,0,1.75,1.13,3.41,7.34,3.31-.58,1.51-.65,1.68-.84,2.38-3.38-.14-9.07-.55-9.07-5.47,0-3.05,2.38-4.87,3.84-6-3.6.48-7.82,1.34-10.56,2.14l-.67-2.88c2.76-.12,3.82-.29,5.93-.58,1.7-1.39,3.34-2.83,4.97-4.3.34-.29.82-.72,1.44-1.39-3.07.36-6.19.55-7.68.6l-.26-2.47c.5.02,1.13.05,2.18.05,2.11,0,7.66-.22,10.37-1.01l.98,1.56c-2.5,1.58-2.93,1.97-8.14,6.43,1.13-.17,8.04-1.22,10.99-1.9l.31,2.5Z"/><path class="cls-1" d="M326.97,321.25c-.07.14-.62,1.34-.82,1.78,3-2.98,5.02-3.46,6-3.46,1.44,0,2.9.91,2.9,3.29,0,.65-.38,4.01-.5,4.9-.12.98-.26,2.5-.26,3.5,0,.36,0,1.75,1.22,1.75.55,0,1.85-.46,3.24-2.4.34.96.6,1.7.98,2.4-1.58,1.82-3.5,2.64-4.51,2.64-.84,0-3.36-.5-3.36-4.44,0-1.22.72-6.67.72-7.78,0-.41,0-1.42-1.15-1.42-2.16,0-5.69,4.06-6.34,4.8,0,4.06,0,6.84.34,10.03l-2.78.12c.1-1.01.1-1.63.14-7.11-.86,1.25-1.39,2.06-3.17,4.8l-1.94-1.94c1.58-1.87,2.62-3.48,5.21-7.56,0-.38.02-1.1.02-1.32-.5.19-2.23.77-4.37,1.06l-.58-2.64c1.82-.05,3.46-.41,4.99-.86.07-4.61.07-5.11.02-5.95l2.45.26c.26.02.53.12.53.38,0,.29-.26.36-.43.38-.05.67-.17,1.9-.26,4.01.22-.1.34-.17.6-.36l1.1,1.13Z"/><path class="cls-1" d="M351.63,315.59c.14.02.5.1.5.41,0,.07-.02.34-.62.36-.19.43-.38.84-.89,1.87.72-.1,3.65-.43,5.98-1.27l.07,2.45c-3,.6-5.71.94-7.25,1.08-.79,1.34-1.13,1.9-1.66,2.69,1.22-.65,2.28-.65,2.54-.65.43,0,2.78,0,3.77,2.47,1.8-.79,4.66-2.02,5.38-2.38l.96,2.57c-2.62.74-4.01,1.3-5.9,2.04.1.89.1,1.82.1,2.57,0,1.13-.02,1.75-.07,2.4-.41-.02-1.61-.05-2.5,0,.19-2.06.12-3.5.1-3.87-3.91,2.04-4.42,3.14-4.42,4.1,0,.74.17,1.85,4.51,1.85,2.5,0,4.99-.36,7.42-1.01-.19.82-.29,1.46-.29,2.62-2.95.62-5.93.62-6.62.62-5.47,0-7.42-1.82-7.42-3.94,0-3.17,4.54-5.62,6.53-6.53-.19-.67-.48-1.71-2.26-1.71s-3.79,1.13-6.53,5.57l-2.23-1.37c1.13-1.18,3.84-4.54,5.79-7.87-1.94.1-2.54.12-4.44.1v-2.4c.77.07,1.7.17,3.36.17.96,0,1.75-.02,2.23-.05.82-1.66,1.1-2.3,1.44-3.43l2.42.53Z"/><path class="cls-1" d="M368.45,324.57v7.51c0,2.66,2.74,2.66,6.1,2.66,5.98-.02,7.85-.1,10.78-.36-.53.89-.72,1.42-.82,2.42h-10.78c-4.39,0-5.38-.79-6.6-2.28-.6.6-2.21,1.68-2.74,1.97.07.31.05.7-.29.7-.19,0-.31-.19-.38-.34l-1.22-2.26c1.08-.41,2.02-.86,3.41-1.92v-5.88h-2.81v-2.23h5.35ZM364.82,315.54c.91.65,3.19,2.62,4.06,3.6-.55.48-1.1,1.06-1.73,1.7-.74-.82-2.26-2.42-3.96-3.7l1.63-1.61ZM378.12,327.06h4.61v1.75h-4.61v1.46h6.31v1.75h-6.31v2.09h-2.42v-2.09h-5.83v-1.75h5.83v-1.46h-4.44v-1.75h4.44v-1.39h-5.21v-1.78h2.64c-.17-.31-.5-.98-.89-1.56l1.39-.43h-4.08v-1.8h6.14v-1.46h-5.09v-1.78h5.09v-1.7l2.59.14c.19,0,.53.05.53.31,0,.22-.17.29-.7.48v.77h5.28v1.78h-5.28v1.46h6.58v1.8h-3.02c.1.05.19.14.19.26,0,.22-.26.26-.53.29-.14.26-.58,1.01-.82,1.44h2.95v1.78h-5.35v1.39ZM378.26,323.89c.26-.55.67-1.34.94-1.99h-4.46c.14.26.58,1.1.79,1.63l-.96.36h3.7Z"/><path class="cls-1" d="M404.24,315.3c.79.65,1.9,1.73,2.76,2.9-.53.36-1.2.89-1.54,1.22h3.58v2.33h-7.97c.29,2.9.77,4.94,1.39,6.67.89-1.54,1.51-2.76,2.47-5.52l2.33,1.01c.17.07.46.19.46.43,0,.26-.48.34-.72.34-1.46,3.14-1.99,4.3-3.36,6.31,1.54,2.83,2.35,3.12,2.57,3.12.67,0,1.1-2.04,1.2-2.78.79.74,1.3,1.1,2.14,1.42-.53,2.26-1.32,3.29-1.51,3.55-.55.72-1.25.72-1.46.72-1.18,0-2.5-.91-4.54-3.96-1.27,1.54-2.76,2.9-4.78,4.18-.5-.67-1.03-1.25-2.02-1.73,1.73-.89,3.65-2.28,5.57-4.7-.53-1.2-1.78-4.08-2.28-9.05h-6.72c-.02.46-.05,2.52-.05,2.93h5.47c.05,1.66-.07,6.19-.72,7.82-.48,1.2-1.7,1.8-4.18,1.68-.12-.62-.6-1.9-.94-2.45.89.17,1.46.22,1.8.22.62,0,.98-.1,1.22-.86.22-.62.38-2.81.41-4.15h-3.12c-.07,3.02-.77,7.06-2.71,9.94-.96-.62-1.87-.89-2.4-1.01,2.54-3.48,2.62-7.2,2.62-12.29v-4.15h9.15c-.05-1.34-.14-3.43-.14-4.06l2.62.17c.24.02.55.05.55.31s-.31.36-.62.46c.02.98.05,1.8.12,3.12h3.98c-.43-.58-1.61-1.99-2.45-2.78l1.82-1.34Z"/><path class="cls-1" d="M432.16,318.92c-5.9-.05-11.57,5.26-11.57,9.79,0,1.46.67,4.97,7.27,5.57-.65,1.27-.91,2.09-1.13,2.76-3.77-.77-8.69-2.93-8.69-8.3,0-5.06,4.61-8.11,6.05-9.05-2.83.17-10.85,1.27-12.27,1.66l-.38-3.07c.46.02.84.05,1.37.05,1.25,0,11.91-.55,18.82-2.16l.53,2.76ZM428.1,323.17c.5.5,1.63,1.78,2.18,2.57-.55.36-1.1.94-1.3,1.15-.98-1.39-1.61-2.06-2.18-2.62l1.3-1.1ZM430.48,321.35c.74.62,1.78,1.85,2.28,2.54-.55.31-1.06.86-1.32,1.13-.82-1.18-1.27-1.75-2.21-2.69l1.25-.98Z"/><path class="cls-1" d="M445.09,315.37c.14,1.08.31,1.94.65,3.1,2.62-.7,4.1-1.58,4.78-1.97.31.72.36.84.91,2.04-.7.41-1.92,1.13-4.97,2.02.36.94.67,1.61.94,2.18.48-.14,3.24-.94,5.69-2.62.26.43.86,1.34,1.3,2.02-2.42,1.61-5.54,2.54-5.93,2.66,1.27,2.3,2.54,3.82,4.27,5.52l-1.51,1.58c-3.48-2.35-6.87-2.35-7.49-2.35-1.51,0-3.94.5-3.94,2.45,0,2.09,2.71,2.71,5.3,2.71.19,0,3.48,0,5.93-.94-.17.98-.22,1.51-.14,2.42-2.52.74-5.26.74-5.93.74-6.17,0-7.68-3.02-7.68-4.94,0-2.54,2.42-4.37,6.14-4.37,1.9,0,3.38.41,4.54.72-.48-.7-1.01-1.44-1.8-2.93-4.18.94-8.33,1.1-10.13,1.01l-.31-2.38c.48.02,1.15.07,2.09.07,2.76,0,5.16-.31,7.3-.79-.58-1.2-.77-1.73-.96-2.23-1.87.38-4.61.67-6.65.77l-.53-2.3c2.95.05,5.45-.38,6.41-.58-.5-1.44-.74-2.3-.98-3.14l2.71-.48Z"/><path class="cls-1" d="M472.5,317.68c-.86.7-6.17,5.59-6.94,6.38.74-.26,1.94-.7,3.72-.7,3.43,0,6.75,2.02,6.75,6.07,0,5.09-5.06,7.27-8.81,7.27-3.1,0-5.52-1.39-5.52-3.84,0-1.94,1.66-3.36,4.01-3.36.29,0,4.34,0,5.04,4.13.58-.26,2.81-1.22,2.81-3.98,0-2.35-1.7-4.2-4.9-4.2-4.03,0-6.53,2.28-10.32,6.24l-1.94-1.9c2.38-1.66,10.34-9.5,11.38-10.9-2.45.53-6.67.86-8.38.98l-.41-2.52c2.26.1,8.81-.22,12.19-1.42l1.32,1.73ZM467.65,332.41c-.5-.46-1.37-.86-2.21-.86-.7,0-1.49.31-1.49,1.32,0,1.49,1.97,1.9,2.93,1.9.77,0,1.39-.14,1.73-.24-.07-.62-.17-1.39-.96-2.11Z"/><path class="cls-1" d="M479.89,337.67v-2.11h6.26v-20.5h2.11v22.61h-8.38Z"/><path class="cls-1" d="M504.15,315.95c.26.05.48.12.48.36,0,.26-.22.34-.5.43-.17,1.75-.19,3.41-.19,3.67,4.03-.07,6.29-.6,8.06-1.18-.1.72-.17,1.94-.12,2.74-2.64.7-6.55.89-7.97.91,0,1.66.07,4.82.36,5.83,2.35.43,6.55,2.52,8.71,4.32-.82.98-.91,1.08-1.68,2.21-2.62-2.33-5.33-3.6-6.84-4.03.31,4.22-2.16,5.11-4.85,5.11-4.46,0-5.93-2.26-5.93-4.03,0-2.69,3.24-4.15,6.43-4.15.5,0,.89.05,1.51.12-.19-3.65-.22-3.94-.24-9.05-.02-2.18-.24-3.24-.34-3.79l3.1.53ZM499.88,330.33c-2.3,0-3.77.94-3.77,2.02s1.08,1.82,3.26,1.82c1.42,0,2.54-.48,2.54-2.33,0-.36-.02-.65-.05-1.3-.43-.1-1.08-.22-1.99-.22Z"/><path class="cls-1" d="M514.93,323.82c.79-.1,1.13-.19,3.53-1.15,2.59-1.06,5.04-2.04,7.8-2.04,4.1,0,6.19,2.98,6.19,6.31,0,5.86-5.54,9.48-11.45,10.51-.34-.72-.67-1.2-1.54-2.18,8.28-1.27,10.46-5.45,10.46-8.16,0-2.54-1.63-4.18-3.84-4.18-2.76,0-7.01,1.9-9.89,4.08l-1.27-3.19ZM519.7,315.08c1.01.31,3.55,1.15,7.51,1.15.67,0,1.13-.02,1.54-.07-.19,1.08-.26,1.58-.34,2.64-5.16-.1-7.92-.89-9.1-1.22l.38-2.5Z"/><path class="cls-1" d="M539.38,330.37c2.38,1.46,4.22,3.22,5.23,4.2l-2.02,2.04c-1.54-1.97-3.19-3.31-4.87-4.44l1.66-1.8Z"/><path class="cls-1" d="M94.56,367.45c.14.02.53.1.53.38s-.31.36-.53.41c-.53,2.9-1.56,4.63-2.64,5.78-.86.94-2.98,2.64-6.1,3.31-.31-1.08-1.34-2.04-1.63-2.28,7.08-1.13,7.68-5.64,7.85-7.99l2.52.38ZM106.68,357.94v2.28h-6.22c1.66,1.18,4.42,4.61,5.52,6.29-.19.17-.26.24-.96.74-.22.17-.53.48-1.01.91-.38-.6-.77-1.2-1.78-2.54-2.06.22-12.84,1.13-15.41,1.2-.07.17-.19.46-.46.46s-.34-.36-.38-.65l-.41-2.28c.72.02,3.86-.12,4.51-.14.84-1.18,1.75-2.74,2.38-3.98h-7.85v-2.28h9.65v-2.76l2.66.12c.38.02.6.19.6.34,0,.17-.07.22-.58.46v1.85h9.72ZM95.37,360.22c.36.12.48.17.48.34,0,.31-.34.34-.82.36-.36.67-.74,1.32-1.99,3.17,3.43-.17,3.84-.19,7.51-.5-.86-.98-1.51-1.54-2.16-2.06l1.75-1.3h-4.78ZM100.1,377c-3.31,0-3.31-1.97-3.31-2.83v-7.61l2.59.24c.41.05.72.07.72.38s-.5.38-.72.43v5.64c0,1.1.29,1.27,1.44,1.27h2.11c.86,0,1.37,0,1.7-3.05.77.65,1.37.96,2.38,1.22-.55,3.77-1.97,4.3-3.7,4.3h-3.22Z"/><path class="cls-1" d="M120.63,361.64h6.5v1.94h-6.5c0,.46,0,.96-.02,1.51h6.12v1.94h-6.24c-.05.77-.14,1.22-.22,1.58h9.96v1.99h-8.62c2.14,2.47,5.4,3.84,8.62,4.37-.62.72-.94,1.25-1.37,2.26-4.54-.98-7.92-3.62-9.58-5.9-1.85,3.36-5.81,5.16-9.19,5.93-.31-.72-.89-1.66-1.39-2.21,3.67-.6,6.79-1.87,8.28-4.44h-8.47v-1.99h9.24c.14-.7.19-1.18.24-1.58h-6.05v-1.94h6.14c.02-.46.02-.79.02-1.51h-6.46v-1.94h6.46v-2.09h-6.82v3.36h-2.42v-5.35h9.17v-2.3l2.69.1c.22,0,.55.02.55.31s-.38.38-.58.43v1.46h9.22v5.26h-2.42v-3.26h-6.43s.19.12.19.24c0,.22-.31.31-.62.41v1.44Z"/><path class="cls-1" d="M143.19,374.05c7.15-1.49,7.63-6.84,7.63-8.23,0-3.6-2.64-6.75-6.87-6.77-.26,2.76-.79,6.72-2.64,10.97-1.3,2.95-2.54,4.46-3.91,4.46-1.8,0-4.73-2.88-4.73-6.94,0-5.04,4.51-10.75,11.11-10.75,5.06,0,9.5,3.38,9.5,9,0,3.12-1.37,5.54-2.81,7.1-1.9,2.04-4.2,2.86-5.66,3.36-.67-1.13-1.15-1.68-1.63-2.21ZM135.05,367.37c0,2.4,1.27,4.18,2.21,4.18s1.61-1.82,2.23-3.38c1.13-2.9,1.73-5.62,1.82-8.71-3.79.96-6.26,4.87-6.26,7.92Z"/><path class="cls-1" d="M169.97,364.47v-3.72l2.14.17c.19.02.53.05.53.29,0,.17-.24.31-.46.43v2.16l3-.96,1.27.58v5.35c0,.86,0,3.02-3.34,2.88-.02-.84-.48-1.9-.74-2.33.19.02.41.07.7.07.58,0,1.15-.07,1.15-1.1v-2.74l-2.04.62v6.31h-2.21v-5.62l-1.82.58v5.5c0,1.32.58,1.63,1.85,1.63h3.65c1.03,0,1.63-.17,1.8-2.59.26.29,1.03,1.03,2.23,1.15-.36,2.59-1.22,3.67-3.65,3.67h-4.51c-1.58,0-3.62-.22-3.62-3.02v-5.64l-1.37.43-.43-1.8c0,4.92-.46,7.32-.79,8.38-.6,1.97-2.38,2.14-3.87,2.23-.1-1.73-.55-2.35-.82-2.69.43.1,1.03.22,1.46.22.86,0,1.27-.17,1.63-3.1.17-1.27.26-4.34.26-5.86h-1.99c-.19,4.58-1.37,8.57-3.22,11.14-.48-.5-1.42-1.1-2.14-1.34,3-4.32,2.98-8.23,2.95-14.62h-2.54v-2.18h3.74v-3.74l2.5.14c.24.02.53.05.53.31,0,.24-.31.36-.53.46v2.83h3.36v1.9c.53-.74,2.16-3.02,2.76-5.78l2.33.72c.17.05.41.12.41.36s-.34.31-.62.36c-.12.29-.22.58-.6,1.51h8.33v2.09h-9.36c-.6,1.01-.84,1.42-1.39,2.23l1.63.07c.14,0,.5.02.5.31,0,.17-.22.34-.48.46v1.87l1.82-.58ZM165.89,365.77v-2.62c-.38.5-.58.77-.91,1.2-.5-.53-1.3-1.13-1.99-1.51.38-.38.72-.72,1.46-1.7h-4.42v2.59h4.06v2.62l1.8-.58Z"/><path class="cls-1" d="M188.49,359.19v1.92h-9.36v-1.92h9.36ZM187.77,368.91v7.99h-2.3v-1.13h-3.24v1.56h-2.3v-8.42h7.85ZM187.24,355.83v1.97h-7.1v-1.97h7.1ZM187.22,362.45v1.85h-7.08v-1.85h7.08ZM187.22,365.69v1.85h-7.08v-1.85h7.08ZM182.23,370.85v2.83h3.24v-2.83h-3.24ZM191.97,368.02c.43.79,1.06,1.9,2.59,3.38,1.01-1.06,1.75-2.16,2.38-3.55h-8.02v-2.16h10.15l.94,1.1c-1.01,2.28-2.06,4.2-3.7,6.03.5.34,2.57,1.78,5.23,2.4-.67.67-1.13,1.27-1.51,2.04-2.16-.72-4.15-1.78-5.47-2.76-1.75,1.42-3.82,2.33-5.06,2.83-.38-.79-1.2-1.75-1.61-2.09,1.58-.38,3.12-1.01,4.92-2.3-.36-.34-1.75-1.78-2.71-3.67l1.87-1.25ZM197.71,355.88v5.71c0,.31.12.55.53.55h.7c.34,0,.82,0,.96-2.23.6.46,1.2.77,1.92.96-.48,2.47-.89,3.43-2.38,3.43h-1.94c-2.11,0-2.11-1.63-2.11-2.21v-4.13h-2.71c-.07,2.45-.14,4.94-2.35,7.32-.62-.55-1.46-1.06-2.16-1.25,2.06-1.8,2.06-4.13,2.06-5.76v-2.4h7.49Z"/><path class="cls-1" d="M205.6,370.37c2.38,1.46,4.22,3.22,5.23,4.2l-2.02,2.04c-1.54-1.97-3.19-3.31-4.87-4.44l1.66-1.8Z"/><path class="cls-1" d="M229.34,355.71l2.59.17c.17,0,.41.07.41.26,0,.24-.29.36-.41.41v4.32h4.63v2.42h-4.63v.43c0,4.95-1.06,6.89-1.94,8.26-2.18,3.31-5.38,4.58-6.34,4.94-.34-.53-.77-1.13-1.9-1.99,7.56-2.64,7.56-7.78,7.58-11.64h-5.98v6.05h-2.54v-6.05h-4.78v-2.42h4.78v-4.99l2.42.14c.31.02.48.07.48.29,0,.14-.1.26-.36.38v4.18h5.98v-5.16Z"/><path class="cls-1" d="M259.19,365v2.59h-20.52v-2.59h20.52Z"/><path class="cls-1" d="M266.28,370.76c0,2.54.46,2.78,4.94,2.78,3.14,0,6.31-.05,9.46-.43-.19.79-.22.96-.36,2.59-1.42-.02-7.68.12-8.95.12-5.28,0-7.68-.1-7.68-4.58v-15.41l2.71.17c.19,0,.43.1.43.31s-.19.31-.55.46v7.49c3.86-.53,9.24-2.74,11.64-4.7l2.14,1.75c.1.07.19.19.19.29,0,.17-.14.26-.58.26-.12,0-.26-.02-.38-.05-3.05,1.99-8.47,4.13-13.01,4.78v4.18ZM278.4,356.24c.65.53,1.82,1.66,2.42,2.42-.46.34-.91.74-1.27,1.1-.31-.36-1.32-1.49-2.45-2.45l1.3-1.08ZM280.41,354.56c.7.53,1.92,1.75,2.47,2.45-.67.5-.89.7-1.34,1.15-1.03-1.27-1.56-1.8-2.45-2.52l1.32-1.08Z"/><path class="cls-1" d="M285.95,359.62v-2.35h12.12c.38,0,1.25-.05,1.63-.17l1.37,1.34c-.41.5-.65.96-.91,1.56-1.03,2.47-1.7,4.01-3.24,6.41,2.04,1.46,5.57,4.44,7.9,7.39-1.01,1.01-1.13,1.1-1.94,2.09-1.32-1.87-3.38-4.66-7.3-7.56-3.55,4.46-7.63,6.84-10.08,7.87-.53-1.01-.84-1.46-1.66-2.18,3.79-1.37,6.62-3.43,9.31-6.62,2.33-2.78,3.34-5.21,4.2-7.78h-11.4Z"/><path class="cls-1" d="M326.18,358.92c-5.9-.05-11.57,5.26-11.57,9.79,0,1.46.67,4.97,7.27,5.57-.65,1.27-.91,2.09-1.13,2.76-3.77-.77-8.69-2.93-8.69-8.3,0-5.06,4.61-8.11,6.05-9.05-2.83.17-10.85,1.27-12.27,1.66l-.38-3.07c.46.02.84.05,1.37.05,1.25,0,11.91-.55,18.82-2.16l.53,2.76ZM322.12,363.17c.5.5,1.63,1.78,2.18,2.57-.55.36-1.1.94-1.3,1.15-.98-1.39-1.61-2.06-2.18-2.62l1.3-1.1ZM324.5,361.35c.74.62,1.78,1.85,2.28,2.54-.55.31-1.06.86-1.32,1.13-.82-1.18-1.27-1.75-2.21-2.69l1.25-.98Z"/><path class="cls-1" d="M342.33,355.71l2.59.17c.17,0,.41.07.41.26,0,.24-.29.36-.41.41v4.32h4.63v2.42h-4.63v.43c0,4.95-1.06,6.89-1.94,8.26-2.18,3.31-5.38,4.58-6.34,4.94-.34-.53-.77-1.13-1.9-1.99,7.56-2.64,7.56-7.78,7.58-11.64h-5.98v6.05h-2.54v-6.05h-4.78v-2.42h4.78v-4.99l2.42.14c.31.02.48.07.48.29,0,.14-.1.26-.36.38v4.18h5.98v-5.16Z"/><path class="cls-1" d="M358.75,366.68c.14.1.31.19.31.38s-.24.29-.62.24c-1.8,2.93-2.93,4.37-5.21,6.58-.94-.79-1.61-1.22-2.16-1.56,2.42-1.85,4.3-4.32,5.5-6.91l2.18,1.27ZM360.96,355.88l2.42.1c.31.02.55.05.55.29s-.26.31-.43.36v4.54h8.33v2.28h-8.33v9.53c0,1.9,0,3.48-3.82,3.48-.55,0-1.2-.05-1.58-.1-.12-.84-.36-1.58-.77-2.52,1.34.22,2.3.22,2.4.22,1.22,0,1.22-.41,1.22-1.97v-8.64h-8.42v-2.28h8.42v-5.28ZM367.68,365.26c1.49,1.42,4.15,4.58,5.21,6.55-.86.6-1.68,1.42-1.92,1.68-1.2-2.23-3.5-5.21-5.14-6.77l1.85-1.46ZM372.69,357.03c0,1.22-.98,2.18-2.16,2.18s-2.18-.96-2.18-2.18.98-2.18,2.18-2.18,2.16.96,2.16,2.18ZM369.33,357.03c0,.67.55,1.2,1.2,1.2s1.18-.53,1.18-1.2-.55-1.18-1.18-1.18-1.2.5-1.2,1.18Z"/><path class="cls-1" d="M395.09,365v2.59h-20.52v-2.59h20.52Z"/><path class="cls-1" d="M405.14,362.12c2.52,1.25,6.17,3.29,9.03,6-.29.36-.74.91-1.51,2.14-3.14-3-6.53-4.92-8.54-5.91v12.31h-2.62v-20.88l2.64.17c.29.02.43.1.43.29,0,.26-.29.31-.46.36v6.96l1.03-1.44Z"/><path class="cls-1" d="M421.29,357.77c.34.1.5.14.5.38,0,.29-.31.34-.53.34-1.15,3.31-1.15,6.62-1.15,7.2,0,3.91,1.49,6.89,2.62,6.89,1.03,0,2.28-3.07,2.83-4.46.67.79,1.08,1.18,1.75,1.63-.43,1.06-2.42,6.02-4.73,6.02-1.97,0-4.94-3.65-4.94-10.46,0-2.9.53-5.79,1.03-8.33l2.62.79ZM433.58,358.25c3.38,4.54,4.46,9.02,4.78,12.29-.38.12-1.99.84-2.64,1.13-.22-3.79-1.15-8.11-4.25-12.1l2.11-1.32Z"/><path class="cls-1" d="M449.52,356.02c.31.07.46.19.46.34,0,.29-.34.34-.46.36-.12.48-.65,2.69-.74,3.14,2.71-.41,4.1-.96,4.9-1.3l.41,2.47c-.82.24-2.38.72-5.95,1.22-1.51,5.16-3.22,9.48-6.43,14.59-.84-.5-.94-.55-2.42-1.25,1.44-1.75,4.3-6.29,6.22-12.99-1.78.19-2.74.22-5.09.24l-.22-2.62c.58.05,1.2.1,2.14.1,1.61,0,3-.12,3.77-.17.48-2.35.58-3.6.7-4.82l2.74.67ZM451.63,370.23c-.84.89-1.03,1.94-1.03,2.26,0,.96,1.13,1.56,4.54,1.56.98,0,3-.14,5.11-.79-.05.36-.1.79-.1,1.32,0,.65.07.96.14,1.32-2.45.46-4.58.46-5.11.46-1.56,0-6.86,0-6.86-3.67,0-1.06.36-1.92,1.22-3.26l2.09.82ZM450.74,364.21c2.38-.36,4.39-.41,5.5-.41,1.97,0,2.81.14,3.5.24-.17,1.01-.19,2.06-.19,2.45-.77-.14-1.73-.34-3.58-.34-2.16,0-4.34.29-5.23.41v-2.35Z"/><path class="cls-1" d="M467.78,356.14c.36.05.58.07.58.31s-.36.36-.6.41c-.5,3.12-.62,8.91-.62,10.61,0,4.46.31,6.6,2.9,6.6,4.8,0,8.45-5.57,9.17-7.13.72.96,1.13,1.46,1.9,2.11-3.94,6.29-8.54,7.58-11.28,7.58-5.04,0-5.26-4.78-5.26-9.19,0-1.63.29-8.86.29-10.34,0-.7-.02-.96-.07-1.37l3,.41Z"/><path class="cls-1" d="M494.21,355.97c.22.05.38.05.38.26,0,.26-.34.34-.48.38-.07,1.01-.1,1.54-.12,1.99,1.15,0,6.19-.1,7.22-.02v2.38c-1.25-.07-3-.19-7.27-.12,0,.12-.05,2.62-.02,3.77,3.82-.29,5.64-.79,6.67-1.08v2.45c-1.49.34-2.5.48-6.6.82,0,.48.07,2.62.1,3.05,3.31.67,6.41,2.23,7.92,3.38-.79.91-.94,1.1-1.68,2.09-1.94-1.7-4.01-2.71-6.12-3.36.1,1.66.29,4.56-4.63,4.56-3.46,0-5.69-1.68-5.69-3.58,0-2.54,3.14-3.58,5.76-3.58.5,0,1.3.05,1.92.1,0-.31-.05-2.06-.05-2.52-3.38.07-7.08.14-7.08-1.9,0-.84.5-1.58,1.7-2.69l1.87.6c-.84.74-.94.84-.94,1.15,0,.53.6.58,1.42.62.5.05,1.13.07,2.98.02-.02-.6-.05-3.26-.05-3.82-3.89.14-6.53.48-8.02.65v-2.5c1.25-.1,6.87-.36,8.02-.41-.02-1.78-.02-2.35-.12-3.24l2.9.53ZM489.82,371.24c-1.63,0-3.41.43-3.41,1.66,0,1.42,2.23,1.54,2.76,1.54,2.47,0,2.47-1.46,2.47-2.23,0-.29-.02-.5-.05-.77-.38-.1-.84-.19-1.78-.19Z"/><path class="cls-1" d="M517.18,355.61c.58.07.58.17.58.29,0,.17-.17.26-.41.38-.07.67-.07.84-.12,2.26,1.32-.05,7.13-.31,8.33-.36-.02.46-.05,1.75.02,2.57-.79-.02-2.86-.07-4.99-.07-.55,0-1.87,0-3.31.05-.02,2.59-.02,2.88.05,3.72,1.03,1.68,1.03,3.77,1.03,4.08,0,1.54-.53,4.03-2.16,6.1-1.42,1.8-2.93,2.59-3.84,3.07-.65-.65-.82-.77-2.21-1.73,3.26-1.3,4.63-2.86,5.3-4.92-.74.74-1.63,1.18-2.66,1.18-2.26,0-3.41-1.99-3.41-4.46,0-2.93,1.71-4.73,3.91-4.73.79,0,1.22.19,1.54.34v-2.52c-2.28.12-6.43.38-10.13,1.03l-.22-2.71c.94.02,1.87-.05,10.27-.5-.02-.19-.07-1.85-.36-3.36l2.78.31ZM511.5,367.71c0,.34,0,2.54,1.8,2.54,1.25,0,2.11-1.27,2.11-2.86,0-.74-.34-2.35-1.97-2.35-1.37,0-1.94,1.32-1.94,2.66Z"/><path class="cls-1" d="M535.16,373.47c0,1.78-1.46,3.19-3.19,3.19s-3.19-1.42-3.19-3.19,1.44-3.17,3.19-3.17,3.19,1.42,3.19,3.17ZM530.05,373.47c0,1.06.84,1.92,1.92,1.92s1.92-.84,1.92-1.92-.86-1.92-1.92-1.92-1.92.89-1.92,1.92Z"/><line class="cls-3" x1="286.55" y1="52.08" x2="336.18" y2="52.08"/></g></svg>