<?xml version="1.0" encoding="UTF-8"?><svg id="_レイヤー_2" xmlns="http://www.w3.org/2000/svg" viewBox="0 0 431 119.54"><defs><style>.cls-1{fill:#000;stroke-width:0px;}</style></defs><g id="_レイヤー_1-2"><path class="cls-1" d="M32.05,13.08v11.68h-3.01l-.2-2.87c-2.22,2.73-4.61,3.5-7.42,3.5-7.28,0-11.29-5.03-11.29-11.8,0-7.33,4.52-11.85,11.23-11.85,8.27,0,10.06,6.08,10.6,7.9h-4.49c-1.19-3.87-4.49-4.29-6.2-4.29-4.55,0-6.77,3.5-6.77,7.93s1.48,6.05,2.19,6.77c1.42,1.42,3.18,1.73,4.46,1.73,2.93,0,5.63-1.34,6.62-5.54h-5.66v-3.16h9.92Z"/><path class="cls-1" d="M47.59,2.36l8.5,22.4h-4.44l-1.56-4.49h-9.86l-1.59,4.49h-4.41L42.71,2.36h4.89ZM45.15,6.37l-3.84,10.83h7.67l-3.84-10.83Z"/><path class="cls-1" d="M74.87,2.36v3.3h-12.11v6.54h10.52v3.3h-10.52v9.27h-4.26V2.36h16.37Z"/><path class="cls-1" d="M81.85,24.76h-4.24V2.36h4.24v22.4Z"/><path class="cls-1" d="M104.46,2.36v3.3h-7.93v19.1h-4.24V5.66h-7.9v-3.3h20.07Z"/><path class="cls-1" d="M109.97,28.57c-2.81-3.95-3.92-9.58-3.92-13.11,0-3.72,1.19-9.27,3.92-13.1h3.21c-2.19,4.04-3.33,8.53-3.33,13.1s1.14,9.07,3.33,13.11h-3.21Z"/><path class="cls-1" d="M128.85,1.68c.37.03.57.06.57.31,0,.17-.17.43-.57.51,0,.71-.03,1.79-.11,4.18h9.21c-.34,15.12-.6,19.87-9.69,19.39-.11-1.31-.31-2.19-1-4.04.6.14,1.22.28,2.33.28,2.1,0,3.01-.4,3.61-3.18.57-2.62.68-7.59.71-8.84h-5.49c-1.34,9.69-6.74,13.7-10.97,16.06-.77-1.19-1.51-1.99-2.76-2.9,7.62-3.89,9.1-8.7,9.84-13.16h-8.96v-3.61h9.27c.08-2.44-.09-4.18-.2-5.32l4.21.31ZM133.88.94c1.22,1.05,2.73,2.73,3.04,3.07-1.05.77-1.17.85-2.05,1.59-1.14-1.45-2.39-2.7-2.98-3.27l1.99-1.39ZM138.03,0c.97.85,2.19,2.19,2.9,3.16-.8.43-.91.51-2.16,1.48-.74-1.02-1.88-2.33-2.84-3.24l2.1-1.39Z"/><path class="cls-1" d="M162.03,2.76c.57,0,1.42-.06,1.96-.2l2.81,2.33c-.37.48-.57.8-.88,1.56-2.76,6.88-3.33,8.19-5.49,11.06-3.33,4.46-7.62,6.91-10.86,8.61-.74-1.02-1.65-1.9-2.98-2.96,7.39-3.35,11.6-6.88,15.04-16.83h-17.85v-3.58h18.25Z"/><path class="cls-1" d="M180.52,26.1h-3.55v-10.4c-.4.23-4.15,2.36-6.51,3.18-.57-.97-1.42-2.02-2.42-2.84,4.8-1.56,10.29-4.01,15.61-10.52l2.87,2.25c.11.08.2.2.2.34,0,.26-.2.28-.37.28s-.26-.03-.4-.06c-1.82,1.9-3.47,3.47-5.43,4.95v12.82Z"/><path class="cls-1" d="M195.54,8.1c1.02,1.68,2.02,3.78,2.67,5.4-.74.26-1.99.77-3.07,1.48-.85-2.19-1.62-3.61-2.73-5.57l3.13-1.31ZM212.03,8.27c.29.08.51.14.51.37,0,.28-.37.37-.54.4-2.19,8.9-5.91,13.59-13.79,16.86-1-1.59-1.68-2.22-2.27-2.73,5.91-2.25,11.17-5.66,12.62-15.98l3.47,1.08ZM201.48,6.74c.82,1.36,1.71,3.01,2.44,5.51-.6.23-2.05.71-3.07,1.25-.62-1.73-1.56-3.84-2.53-5.49l3.16-1.28Z"/><path class="cls-1" d="M225.62,8.84c3.98,1.99,7.87,4.52,10.26,6.88-1.11,1.17-1.51,1.65-2.73,3.1-3.47-3.33-6.99-5.32-8.98-6.37v13.87h-4.04V1.39l4.04.23c.28.03.54.06.54.31,0,.31-.37.4-.54.43v8.53l1.45-2.05Z"/><path class="cls-1" d="M237.46,28.57c2.19-4.04,3.33-8.53,3.33-13.11s-1.14-9.07-3.33-13.1h3.21c2.73,3.84,3.92,9.38,3.92,13.1,0,3.53-1.11,9.15-3.92,13.11h-3.21Z"/><path class="cls-1" d="M277.49,21.41c.63.08.85.2.85.4,0,.28-.51.4-.74.45-.46.83-.57,1-.94,1.62h7.02v2.39h-26.15v-2.39h7.59c-.28-.46-.82-1.34-1.42-2.16l1.65-.43h-3.72v-5.71h17.94v5.71h-2.93l.85.11ZM283.29,14.55h-25.39v-2.19h25.39v2.19ZM271.8,2.73V.71l3.47.2c.2,0,.48.11.48.34s-.28.4-.63.54v.94h5.86v8.64h-20.75V2.73h5.8V.77l3.3.14c.23,0,.57.09.57.34,0,.2-.14.28-.57.45v1.02h2.47ZM266.03,6.11v-1.31h-2.5v1.31h2.5ZM263.53,7.93v1.39h2.5v-1.39h-2.5ZM276.09,17.82h-10.97v1.34h10.97v-1.34ZM272.91,23.88c.26-.4.99-1.59,1.36-2.59h-7.16c.57.77,1,1.45,1.42,2.27l-1.14.31h5.52ZM271.8,6.11v-1.31h-2.47v1.31h2.47ZM269.33,7.93v1.39h2.47v-1.39h-2.47ZM277.63,6.11v-1.31h-2.5v1.31h2.5ZM275.13,7.93v1.39h2.5v-1.39h-2.5Z"/><path class="cls-1" d="M291.54,26.92h-3.01v-10.03c-.8,2.02-1.34,2.87-1.85,3.64-.65-.97-1.56-1.71-2.59-2.19,1.19-1.25,3.41-4.6,4.38-9.38h-3.47v-2.84h3.52V.82l3.01.2c.23.03.6.08.6.31,0,.14-.08.26-.17.34-.11.09-.2.17-.43.28v4.15h2.42v2.84h-2.42v.34c1,3.1,2.13,4.46,3.47,6.03-.26.26-.62.68-.94,1.25-.54.97-.6,1.08-.71,1.28-.94-1.14-1.54-2.22-1.82-2.73v11.8ZM307.83,15.41h-10.21v-3.3c-1.02.88-1.65,1.25-2.19,1.54-.74-1.05-1.31-1.54-2.39-2.08,2.84-1.28,4.49-3.35,4.58-3.5h-2.84v-2.56h4.46c.25-.54.37-.8.51-1.17-2.79.17-3.07.17-4.09.11-.57-1.68-.6-1.79-1.34-2.7.6.06,1.17.11,2.64.11,5.77,0,10.29-1.25,10.66-1.36l1.68,1.96c.11.14.17.28.17.4,0,.14-.06.31-.28.31-.11,0-.4-.03-.57-.06-.09.03-.17.03-.26.06-2.1.43-2.39.46-4.98.82-.2.51-.43,1.02-.65,1.51h8.22v2.56h-3.89c1.05,1.17,3.13,2.7,4.69,3.16-.71.82-1.31,1.62-1.59,2.47-1.08-.54-1.68-.91-2.33-1.34v3.04ZM301.61,24.22v.82h-2.45v-5.34h7.08v4.52h-.14c.17.08.65.08.91.08.65,0,.65-.46.65-1.31v-4.32h-9.92v8.24h-3.07v-10.46h15.98v6.88c0,3.38-1.62,3.52-4.26,3.55-.23-1.05-.4-1.76-1.05-2.67h-3.72ZM304.48,9.44c-.51-.65-.68-.85-1.05-1.36h-2.19c-.31.48-.65.94-1.02,1.36h4.26ZM300.38,11.77v1.42h4.55v-1.42h-4.55ZM301.61,21.43v1.08h2.19v-1.08h-2.19Z"/><path class="cls-1" d="M339.04,21.95v3.58h-25.95v-3.58h25.95ZM337.85,2.27v3.53h-23.31v-3.53h23.31ZM335.83,11.68v3.5h-19.33v-3.5h19.33Z"/><path class="cls-1" d="M362.03,3.33c.28.08.57.28.57.45,0,.28-.34.4-.88.54-1.91,6.96-5.15,15.46-16.4,21.12-1.68-1.88-2.56-2.42-3.1-2.79,7.16-3.3,13.59-8.41,15.46-20.61l4.35,1.28Z"/><path class="cls-1" d="M389.1,10.4h-9.27v-1.28c-.62.43-.91.6-1.22.8-.46-.57-.91-1.02-1.39-1.51v9.67h-3.78v1.79h3.98v2.73h-3.98v4.26h-2.73v-4.26h-4.09v-2.73h4.09v-1.79h-3.72v-10.03h3.72v-1.71h-3.87v-2.79h3.87V.85l2.93.17c.14,0,.65.03.65.34s-.34.46-.85.62v1.56h4.38v2.79h-4.38v1.71h3.38c-.26-.23-.34-.28-.63-.48,3.61-1.68,5.71-4.69,6.74-6.48l3.55.57c.34.06.65.11.65.31,0,.31-.4.4-.8.51,1.17,1.31,3.64,3.61,6.99,5.15-.85.65-1.79,1.65-2.25,2.3-.54-.31-1.05-.6-1.99-1.31v1.79ZM370.76,11.94v-1.71h-1.37v1.71h1.37ZM369.4,13.96v1.82h1.37v-1.82h-1.37ZM374.8,11.94v-1.71h-1.39v1.71h1.39ZM373.41,13.96v1.82h1.39v-1.82h-1.39ZM385.49,19.93h-1.31v5.29h-2.22v-5.29h-1.34v6.62h-2.53v-15.04h13.76v12.71c0,1.99-1.19,2.56-3.81,2.59-.08-.57-.14-1-.34-1.59h-2.22v-5.29ZM381.96,14.36h-1.34v2.56h1.34v-2.56ZM387.76,7.56c-1.56-1.39-2.44-2.33-3.16-3.18-.46.6-1.39,1.82-2.84,3.18h6ZM385.49,14.36h-1.31v2.56h1.31v-2.56ZM387.7,16.91h1.48v-2.56h-1.48v2.56ZM387.7,23.62c.2.03.65.11.85.11.57,0,.62-.23.62-1.02v-2.79h-1.48v3.7Z"/><path class="cls-1" d="M420.38,9.72v2.96h-9.67v3.24h8.02v10.92h-3.52v-1h-10.21v1.02h-3.35v-10.94h5.34V6.88h-6.51v5.86c0,2.08-.34,5.66-.74,7.7-.48,2.42-1.17,4.29-2.39,6.37-.71-.48-1.68-1.08-3.27-1.51,2.79-4.49,2.79-10.94,2.79-12.82V3.87h9.24V.71l3.84.2c.23,0,.48.14.48.43,0,.11-.06.23-.17.28-.17.11-.31.23-.46.31v1.93h10.97v3.01h-10.26c.6.06.82.17.82.37,0,.17-.14.31-.63.43v2.05h9.67ZM405,22.91h10.21v-3.95h-10.21v3.95Z"/><path class="cls-1" d="M19.47,67.17l1.31,1.31c-1.45,2.05-4.09,3.87-4.75,4.29,2.3.68,4.35.91,9.86.97-1.08,1.45-1.17,1.68-1.54,3.16-2.27-.11-7.28-.37-11.46-2.33-1.9.97-5.63,2.25-11.26,2.59-.17-.46-.48-1.28-1.65-2.87,3.04,0,6.25-.2,9.92-1.45-.74-.51-1.42-1.08-2.3-2.02-1.51,1.02-2.36,1.56-4.24,2.44-.71-1.02-1.68-1.88-2.5-2.47,2.42-.74,5.66-2.36,7.85-4.78-.65-.23-1-.65-1-1.68v-1.71c-.06.03-.23.03-.31,0-.62,1.19-2.02,2.96-3.16,4.18-.65-.62-1.25-1.05-2.53-1.73,1.11-1,2.5-2.47,3.5-4.46l2.5,1.22v-1.62l3.16.14c.17,0,.63.03.63.37,0,.28-.31.46-.6.54v1.34c0,.77.23.97,1.14.97h3.01c1.02,0,1.31-.2,1.48-2.13.85.62,1.45.97,2.76,1.31-.63,3.35-1.68,3.35-3.27,3.35h-3.5c.17.08.34.23.34.4,0,.23-.31.34-.74.37-.08.11-.17.23-.28.31h7.62ZM25.64,57.08v5.34h-3.01c.94,1.36,1.25,1.93,1.59,2.59-.46.23-1,.46-2.5,1.54-.88-1.9-2.08-3.67-3.1-4.92l2.3-1.42c.82,1,1.11,1.39,1.34,1.73v-2.22h-7.85c.71.85,1.14,1.56,1.42,2.02-.54.31-1.82,1.05-2.27,1.36-.31-.51-.97-1.59-1.73-2.56l1.48-.82H3.89v2.7H.37v-5.34h5.66c-.54-.68-.8-1-1.48-1.68l1.02-.4c-1.34,0-1.71,0-2.7-.03-.14-1.28-.74-2.42-1.05-2.93.85.03,2.53.14,4.75.14,8.53,0,13.05-1.48,14.72-2.02l2.19,2.39c.14.14.23.31.23.45,0,.17-.2.28-.37.28-.26,0-.57-.17-.85-.34-.88.23-1.54.37-2.5.57l1.73.74c.14.06.51.2.51.46s-.4.4-.77.43c-.28.62-.51.99-1.17,1.93h5.34ZM11.88,57.08c-.11-.17-.85-1.31-1.34-1.88l1.17-.48c-1.91.14-2.59.17-3.7.23.37.46.88,1.11,1.22,1.59l-1.45.54h4.09ZM10.38,69.5c.94.91,1.93,1.54,2.62,1.93,1.28-.82,1.93-1.42,2.47-1.93h-5.09ZM16.6,57.08c.4-.6,1.05-1.56,1.73-3.24-.26.06-1.99.37-4.43.65.23.28,1.11,1.56,1.34,1.96l-1.73.62h3.1Z"/><path class="cls-1" d="M37.74,62.22h4.32v3.27h-4.21c1.02,2.64,2.5,4.55,4.8,6.45-1.39,1.39-1.85,1.99-2.39,2.7-.88-.74-2.44-2.1-3.87-5.03-1.08,2.96-3.07,5.49-5.51,7.45-.62-.74-1-1.05-2.79-2.33,4.01-3.16,5.37-5.86,6.03-9.24h-5.52v-3.27h5.86c0-.26.03-.57.03-.85v-3.67h-1.45c-.62,1.34-1.28,2.67-1.93,3.72-1.28-.63-2.05-.91-3.3-1.19,1.39-2.13,2.99-5.12,3.78-9.44l3.58.65c.17.03.45.14.45.43,0,.26-.31.4-.8.57-.08.4-.17.8-.54,1.99h6.99v3.27h-3.55v4.52ZM46.41,74.28v2.27h-3.44v-23.14h10.69v23.11h-3.3v-2.25h-3.95ZM50.37,71.06v-14.38h-3.95v14.38h3.95Z"/><path class="cls-1" d="M57.51,68.96v-15.24l3.61.26c.23.03.4.11.4.31,0,.26-.28.37-.6.51v11.37h21.55v2.79h-5.86c1.82,1.14,4.63,4.01,5.34,5.17-.68.43-1.85,1.19-2.93,2.3-1.36-1.96-3.41-4.15-5.49-5.71l2.73-1.76h-4.83v7.96h-3.5v-7.96h-4.49l3.24,1.65c.2.11.31.2.31.37,0,.29-.31.37-.97.26-1.36,1.76-3.52,3.84-5.91,5.32-.51-.6-1.17-1.28-2.99-2.25,3.41-2.22,4.66-3.47,6.17-5.34h-5.8ZM79.71,51.59v13.25h-16.8v-13.25h16.8ZM76.16,55.4v-1.45h-9.86v1.45h9.86ZM66.3,57.39v1.48h9.86v-1.48h-9.86ZM66.3,60.89v1.48h9.86v-1.48h-9.86Z"/><path class="cls-1" d="M104.44,71.41c.63.08.85.2.85.4,0,.28-.51.4-.74.45-.46.83-.57,1-.94,1.62h7.02v2.39h-26.15v-2.39h7.59c-.28-.46-.82-1.34-1.42-2.16l1.65-.43h-3.72v-5.71h17.94v5.71h-2.93l.85.11ZM110.24,64.55h-25.39v-2.19h25.39v2.19ZM98.75,52.73v-2.02l3.47.2c.2,0,.48.11.48.34s-.29.4-.63.54v.94h5.86v8.64h-20.75v-8.64h5.8v-1.96l3.3.14c.23,0,.57.09.57.34,0,.2-.14.28-.57.45v1.02h2.47ZM92.98,56.11v-1.31h-2.5v1.31h2.5ZM90.48,57.93v1.39h2.5v-1.39h-2.5ZM103.05,67.82h-10.97v1.34h10.97v-1.34ZM99.86,73.88c.26-.4.99-1.59,1.36-2.59h-7.16c.57.77,1,1.45,1.42,2.27l-1.14.31h5.52ZM98.75,56.11v-1.31h-2.47v1.31h2.47ZM96.28,57.93v1.39h2.47v-1.39h-2.47ZM104.58,56.11v-1.31h-2.5v1.31h2.5ZM102.08,57.93v1.39h2.5v-1.39h-2.5Z"/><path class="cls-1" d="M118.5,76.92h-3.01v-10.03c-.8,2.02-1.34,2.87-1.85,3.64-.65-.97-1.56-1.71-2.59-2.19,1.19-1.25,3.41-4.6,4.38-9.38h-3.47v-2.84h3.52v-5.29l3.01.2c.23.03.6.08.6.31,0,.14-.08.26-.17.34-.11.09-.2.17-.43.28v4.15h2.42v2.84h-2.42v.34c1,3.1,2.13,4.46,3.47,6.03-.26.26-.62.68-.94,1.25-.54.97-.6,1.08-.71,1.28-.94-1.14-1.54-2.22-1.82-2.73v11.8ZM134.79,65.41h-10.21v-3.3c-1.02.88-1.65,1.25-2.19,1.54-.74-1.05-1.31-1.54-2.39-2.08,2.84-1.28,4.49-3.35,4.58-3.5h-2.84v-2.56h4.46c.26-.54.37-.8.51-1.17-2.79.17-3.07.17-4.09.11-.57-1.68-.6-1.79-1.34-2.7.6.06,1.17.11,2.64.11,5.77,0,10.29-1.25,10.66-1.36l1.68,1.96c.11.14.17.28.17.4,0,.14-.06.31-.28.31-.11,0-.4-.03-.57-.06-.09.03-.17.03-.26.06-2.1.43-2.39.46-4.98.82-.2.51-.43,1.02-.65,1.51h8.22v2.56h-3.89c1.05,1.17,3.13,2.7,4.69,3.16-.71.82-1.31,1.62-1.59,2.47-1.08-.54-1.68-.91-2.33-1.34v3.04ZM128.56,74.22v.82h-2.45v-5.34h7.08v4.52h-.14c.17.08.65.08.91.08.65,0,.65-.46.65-1.31v-4.32h-9.92v8.24h-3.07v-10.46h15.98v6.88c0,3.38-1.62,3.52-4.26,3.55-.23-1.05-.4-1.76-1.05-2.67h-3.72ZM131.43,59.44c-.51-.65-.68-.85-1.05-1.36h-2.19c-.31.48-.65.94-1.02,1.36h4.26ZM127.34,61.77v1.42h4.55v-1.42h-4.55ZM128.56,71.43v1.08h2.19v-1.08h-2.19Z"/><path class="cls-1" d="M155,59.95h8.78v11.17c0,3.01-.71,3.87-5.63,3.87-.2-1.71-.46-2.45-1.11-3.67.54.08,1.28.14,1.85.14.91,0,1.28-.11,1.28-1.34v-6.82h-5.17v13.64h-3.58v-13.64h-5.15v11.48h-3.64v-14.84h8.78v-2.73h-11.2v-3.24h11.2v-3.1l3.72.14c.06,0,.51.03.51.37,0,.37-.48.46-.65.51v2.08h11.17v3.24h-11.23c.54.08.71.14.71.4,0,.34-.48.46-.65.51v1.82Z"/><path class="cls-1" d="M193.67,71.95v3.58h-25.95v-3.58h25.95ZM192.47,52.27v3.53h-23.31v-3.53h23.31ZM190.46,61.68v3.5h-19.33v-3.5h19.33Z"/><path class="cls-1" d="M216.66,53.33c.28.08.57.28.57.45,0,.28-.34.4-.88.54-1.91,6.96-5.15,15.46-16.4,21.12-1.68-1.88-2.56-2.42-3.1-2.79,7.16-3.3,13.59-8.41,15.46-20.61l4.35,1.28Z"/><path class="cls-1" d="M243.72,60.4h-9.27v-1.28c-.62.43-.91.6-1.22.8-.46-.57-.91-1.02-1.39-1.51v9.67h-3.78v1.79h3.98v2.73h-3.98v4.26h-2.73v-4.26h-4.09v-2.73h4.09v-1.79h-3.72v-10.03h3.72v-1.71h-3.87v-2.79h3.87v-2.7l2.93.17c.14,0,.65.03.65.34s-.34.46-.85.62v1.56h4.38v2.79h-4.38v1.71h3.38c-.26-.23-.34-.28-.63-.48,3.61-1.68,5.71-4.69,6.74-6.48l3.55.57c.34.06.65.11.65.31,0,.31-.4.4-.8.51,1.17,1.31,3.64,3.61,6.99,5.15-.85.65-1.79,1.65-2.25,2.3-.54-.31-1.05-.6-1.99-1.31v1.79ZM225.39,61.94v-1.71h-1.37v1.71h1.37ZM224.02,63.96v1.82h1.37v-1.82h-1.37ZM229.42,61.94v-1.71h-1.39v1.71h1.39ZM228.03,63.96v1.82h1.39v-1.82h-1.39ZM240.11,69.93h-1.31v5.29h-2.22v-5.29h-1.34v6.62h-2.53v-15.04h13.76v12.71c0,1.99-1.19,2.56-3.81,2.59-.08-.57-.14-1-.34-1.59h-2.22v-5.29ZM236.59,64.36h-1.34v2.56h1.34v-2.56ZM242.39,57.56c-1.56-1.39-2.44-2.33-3.16-3.18-.46.6-1.39,1.82-2.84,3.18h6ZM240.11,64.36h-1.31v2.56h1.31v-2.56ZM242.33,66.91h1.48v-2.56h-1.48v2.56ZM242.33,73.62c.2.03.65.11.85.11.57,0,.62-.23.62-1.02v-2.79h-1.48v3.7Z"/><path class="cls-1" d="M275.74,53.38v3.33h-3.55v16.32c0,3.67-1.85,3.72-6.48,3.81-.2-1.42-.63-2.53-1.22-3.58.46.06,1.08.14,2.05.14,1.71,0,2.08-.31,2.08-1.42v-15.26h-5.88v15.69h-3.1v-1.48h-6.28v3.01h-3.04v-22.2h12.42v1.65h13.02ZM255.11,59.72v-4.92h-1.76v4.92h1.76ZM255.11,67.85v-5.14h-1.76v5.14h1.76ZM259.62,59.72v-4.92h-1.9v4.92h1.9ZM259.62,67.85v-5.14h-1.9v5.14h1.9Z"/><path class="cls-1" d="M297.21,72.6h-4.49v4.32h-3.58v-4.32h-4.21v-3.04c-1.48,1.88-2.67,3.3-4.49,4.69-.97-1.25-2.44-1.99-3.13-2.3,5.34-3.41,9.01-10.06,10.21-12.62h-9.55v-3.16h11.17v-5.34l3.44.23c.14,0,.74.08.74.4,0,.23-.28.4-.6.54v4.18h11.23v3.16h-9.86c1.9,3.92,6.31,9.44,10.55,11.97-1.59,1.22-2.05,1.71-2.67,2.76-1.85-1.39-3.5-3.16-4.75-4.6v3.16ZM289.14,62.88c-1.45,2.79-2.47,4.38-4.07,6.48h4.07v-6.48ZM297.12,69.36c-1.76-2.1-3.07-3.87-4.41-6.28v6.28h4.41Z"/><path class="cls-1" d="M327.47,66.06l.06-2.5h-3.04v-2.5h3.1l.06-1.9h-3.16v-2.59h3.21l.06-2.13h-3.27v-2.62h6.51l-.4,14.24h1.34v2.9h-8.67c2.9,2.64,4.72,3.75,7.9,5.37-.94,1.02-1.85,2.05-2.39,2.84-1.17-.54-3.52-1.62-8.36-6.03l2.22-2.19h-8.24l2.98,1.76c.17.11.34.2.34.4,0,.23-.2.37-.46.37-.2,0-.37-.06-.51-.08-4.32,3.61-5.6,4.55-7.82,5.8-1.68-1.79-1.85-1.99-2.9-2.56,3.13-1.25,5.88-3.27,8.21-5.69h-8.7v-2.9h1.62l-.65-14.19,1.93.26c.94,0,2.7-.54,3.67-.91l1.17,1.59v-1.48h10.46v14.73h3.72ZM313.29,66.06v-12.05c-.06-.06-.11-.08-.17-.11-1.02.34-2.47.6-3.44.65l.11,2.02h2.76v2.59h-2.64l.08,1.9h2.56v2.5h-2.45l.14,2.5h3.04ZM321.36,66.06v-12.08h-5.71v12.08h5.71ZM320.74,55.12v2.13h-4.52v-2.13h4.52ZM320.54,58.5v6.37h-4.12v-6.37h4.12ZM317.87,60.66v2.02h1.22v-2.02h-1.22Z"/><path class="cls-1" d="M354.91,62.11c-.03.23-.11.31-.68.51v1.79h4.04v3.1h-4.04v5.71c0,3.13-1.28,3.61-6.51,3.67-.14-1.02-.6-2.16-1.36-3.64.68.09,1.45.2,2.47.2,1.68,0,1.73-.26,1.73-1.73v-4.21h-15.49v-3.1h15.49v-2.3h-16.97v-3.13h11.06v-2.19h-8.19v-3.13h8.19v-2.96l3.87.23c.23,0,.51.06.51.31,0,.28-.37.43-.68.54v1.88h8.36v3.13h-8.36v2.19h11.11v3.13h-4.55ZM340.47,67.91c1.31,1.08,3.55,3.44,4.66,5.06-1.31.97-1.79,1.39-2.84,2.56-1.05-1.56-2.79-3.72-4.72-5.29l2.9-2.33Z"/><path class="cls-1" d="M372.61,74.76h-4.26v-15.12h-4.78v-3.13c2.39-.11,4.66-.4,5.66-4.15h3.38v22.4Z"/><path class="cls-1" d="M397.56,63.56c0,4.01-1.05,11.83-9.44,11.83s-9.44-7.79-9.44-11.83.97-11.83,9.44-11.83,9.44,7.82,9.44,11.83ZM383.06,63.56c0,1.22,0,8.24,5.06,8.24s5.03-7.02,5.03-8.24,0-8.24-5.03-8.24-5.06,6.91-5.06,8.24Z"/><path class="cls-1" d="M408.88,64.81v3.55h-8.24v-3.55h8.24Z"/><path class="cls-1" d="M427.34,66.43h3.67v3.3h-3.67v5.03h-4.26v-5.03h-11.17v-3.3l11.17-14.07h4.26v14.07ZM423.07,66.43v-9.32l-7.42,9.32h7.42Z"/><path class="cls-1" d="M49.18,117.72h-3.07v-10.87h-3.43v-2.25c1.72-.08,3.35-.29,4.07-2.98h2.43v16.1Z"/><path class="cls-1" d="M69.14,111.73c-.39,3.37-1.04,5.33-1.37,5.92-.65,1.19-1.57,1.68-4.19,1.68-.45,0-.74-.02-1.04-.04-.1-1.37-.39-1.94-.61-2.43.67.12,1.23.21,2,.21,1.19,0,1.86-.16,2.25-3.25h-7.38c-.12.29-.29.74-.98,1.94-1.12-.53-1.45-.59-2.45-.76,1.21-1.84,2.04-4.09,2.27-4.7h-4.56v-2.02h18.69v2.02h-11.54c-.39,1.02-.43,1.12-.55,1.43h9.46ZM69,101.07v5.95h-13.12v-5.95h13.12ZM58.4,103.09v1.84h8.07v-1.84h-8.07Z"/><path class="cls-1" d="M81.23,103.58c.1.06.18.12.18.27,0,.22-.16.22-.65.25-1.68,2.64-1.88,2.92-3.27,4.84.43-.04,1-.1,1.9-.21-.29-.92-.41-1.21-.53-1.47l1.59-.65c.82,1.47,1.45,3.37,1.61,3.82-.29.1-1.47.51-2.02.8-.04-.25-.06-.37-.16-.78-.29.06-.71.12-1.18.2v8.62h-2.33v-6.72c-.06.14-.16.18-.45.22-.08,1.23-.31,2.66-.8,4.54-.71-.25-.96-.31-2.02-.51.39-.98.94-3.11,1-4.8l1.96.25c.22.02.27.1.31.2v-1.43c-.31.04-1.74.25-2.04.29-.02.14-.1.49-.35.49-.1,0-.25-.12-.31-.41l-.41-2.27c.41,0,.55,0,1.68-.04.06-.06.69-.94,1.02-1.43-.2-.23-1.41-1.45-2.88-2.45l1.25-2.06c.29.2.37.27.78.57.12-.21,1-1.61,1.74-3.37l2.1.96c.14.06.29.2.29.33,0,.25-.25.27-.63.29-.65,1.17-.78,1.37-1.92,3.17.41.37.49.45.63.59.18-.29.96-1.51,1.78-3.15l2.15,1.06ZM80.63,111.43c.06.59.2,1.9.76,3.76-.71.14-1.04.29-1.7.59-.33-1.08-.57-2.86-.65-3.86l1.59-.49ZM81.53,113.04v-2.02h3.06l.8.8c-.82,3.92-2.92,6.03-3.66,6.76-.69-.65-1.7-1.1-1.94-1.21,1.43-1.08,2.49-2.59,3.04-4.33h-1.31ZM88.01,110.9c.25.71.41,1.04.57,1.35.41-.37,1.29-1.14,2.06-2.06l1.8,1.18c.06.04.29.18.29.41s-.22.25-.35.25c-.1,0-.14,0-.39-.04-.74.78-1.55,1.47-2.29,2.04.49.67,1.55,1.94,3.04,2.96-.43.22-.88.59-1.45,1.7-.53-.45-2.21-1.94-3.29-3.66v2.19c0,2.15-2.49,2.17-3.64,2.17-.04-.43-.08-.96-1.12-2.45.37.1.8.25,1.61.25.43,0,.86,0,.86-.74v-6.64h-3.39v-7.4h2.47c.47-1,.59-1.59.71-2.04l2.43.39c.12.02.29.14.29.27,0,.2-.14.25-.55.37-.33.65-.35.71-.51,1.02h4.15v7.4h-3.31v1.1ZM84.7,105.3h4.25v-1.12h-4.25v1.12ZM88.95,106.85h-4.25v1.16h4.25v-1.16Z"/><path class="cls-1" d="M103.66,101.54c.21.06.41.12.41.31,0,.14-.12.31-.55.35-.35,1.61-.51,2.25-.61,2.66,1.47-.06,4.82-.2,4.82,4.99,0,3.06-1.02,6.05-2,7.36-.65.86-1.53,1.43-3.04,1.43-.25,0-1.21-.04-2.08-.25.02-.18.04-.37.04-.63,0-.71-.12-1.55-.27-2.35.37.18.92.45,1.9.45.71,0,1.1-.18,1.47-.61.61-.7,1.35-2.9,1.35-5.39,0-2.27-1.17-2.47-1.98-2.47-.25,0-.63.04-.88.06-.98,3.37-2.37,7.17-5.31,11.01-.78-.55-1.82-1.08-2.57-1.37.86-.98,3.53-4.07,5.07-9.15-1.23.31-2.78.72-3.66,1.12l-.96-2.8c.84-.16,4.56-.96,5.31-1.08.45-2,.57-3.49.65-4.54l2.9.92ZM109.32,102.78c2.27,2.49,3.7,5.86,3.7,7.48,0,1-.31,1.59-1.45,2.14-.18.08-.96.47-2.04.63-.37-1.04-.63-1.59-1.04-2.33.76-.14,1.7-.35,1.7-1.12,0-.22-.27-2.43-2.98-5.46l2.12-1.35Z"/><path class="cls-1" d="M120.48,104.99c.14.04.35.12.35.31,0,.27-.29.29-.43.29-.53,1.06-1.14,2.88-1.41,4.27,2.15-1.82,4.74-2.33,6.31-2.33,3.41,0,5.17,2.39,5.17,4.88,0,3.98-3.94,6.42-10.44,6.42-.63,0-1.14-.02-1.53-.04-.1-.94-.31-2-.8-2.9.63.1,1.45.25,2.82.25,1.29,0,7.09-.18,7.09-3.7,0-1.08-.61-2.45-2.7-2.45-3.53,0-6.05,2.8-6.8,3.64l-2.49-.9c.57-3.6,1.08-5.56,2.06-8.6l2.8.88ZM119.66,100.48c1.45.22,4.43.84,7.03,2.35-.63.9-1,1.51-1.55,2.53-1.92-1.33-4.62-2.19-6.39-2.55l.92-2.33Z"/><path class="cls-1" d="M132.07,108.1v-2.49h8.01v-5.23l2.68.14c.31.02.45.1.45.27,0,.18-.22.27-.45.33v4.49h7.89v2.49h-7.83c.92,3,2.8,6.7,8.11,9.38-1.21.92-1.55,1.31-1.98,2.02-2.19-.98-5.68-3.98-7.5-8.05-2.35,5.05-5.78,6.95-8.15,8.09-.2-.47-.53-1.1-1.82-2.27,1.72-.67,7.01-2.8,8.32-9.17h-7.72Z"/><path class="cls-1" d="M154.6,118.6c.02.14.06.31.06.45,0,.18-.1.27-.25.27-.12,0-.31-.16-.39-.25l-1.84-1.59c1.25-1.55,3.15-5.01,3.76-6.62.39.41,1.31,1.25,1.88,1.59-.31.71-1.76,3.92-3.23,6.15ZM155.77,109.49c-1.51-.88-2.12-1.14-3.51-1.72l1.21-2.02c.37.14,2.45,1.06,3.62,1.76-.57.82-.9,1.31-1.31,1.98ZM156.83,104.73c-1.12-.92-2.62-1.78-3.33-2.19l1.35-1.78c.88.45,2.43,1.35,3.43,2.12-.53.53-.8.92-1.45,1.84ZM167.88,118.97h-4.58c-1.35,0-2.35,0-2.98-.86-.53-.74-.53-1.33-.53-2.86v-5.13l-2.02.76-.86-2.25,2.88-1.08v-5.99l2.7.22c.14.02.29.1.29.25,0,.2-.23.35-.51.51v4.11l1.63-.61v-5.5l2.53.22c.2.02.41.1.41.27,0,.25-.29.35-.55.47v3.64l3.33-1.23,1.29.76v7.46c0,1.63-.65,2.37-3.35,2.59-.39-1.18-.67-1.72-1.27-2.51v2.02h-2.39v-5.66l-1.63.61v6.01c0,1.04.04,1.45,1.25,1.45h4.52c.96,0,1.45-.41,1.47-2.23.65.45,1.61.88,2.37,1.02-.37,3.47-1.74,3.53-3.98,3.53ZM168.58,106.81l-2.29.86v4.52c.69.12,1.17.12,1.31.12.82,0,.98-.18.98-1.17v-4.33Z"/><path class="cls-1" d="M178.23,108.48v5.7c.14,1.55.43,2.57,3.41,2.57,7.38,0,8.29-.02,10.91-.47-.47.76-.84,1.63-.86,2.49h-9.5c-2.88,0-4.07-.45-5.07-1.88-.43.39-1.33,1.17-2.23,1.86.02.12.02.18.02.29,0,.16-.06.33-.22.33s-.25-.14-.33-.29l-1.29-2.33c.78-.33,2.02-1.04,2.64-1.49v-4.51h-2.08v-2.27h4.6ZM175.02,100.62c1.29.82,2.64,1.98,3.6,3.02-.53.49-.84.84-1.78,1.84-1.25-1.37-1.88-1.92-3.33-3.11l1.51-1.76ZM184.07,112.94h-2.08v3.11h-2.29v-10.6h3.39c-.92-.69-1.47-1.04-1.92-1.33l1.12-1.17h-2.49v-1.98h9.32l.9,1.06c-1.19,1.39-3.21,2.94-3.84,3.41h4.64v8.56c0,1.53-.9,2.08-3.25,2.12-.08-.76-.33-1.49-.69-2.15.31.04.76.08,1.08.08.57,0,.57-.25.57-.49v-.63h-2.17v2.76h-2.29v-2.76ZM184.07,107.26h-2.08v1.18h2.08v-1.18ZM184.07,110.1h-2.08v1.19h2.08v-1.19ZM182.83,102.95c.59.45,1.51,1.1,1.82,1.33.94-.65,1.29-.94,1.7-1.33h-3.51ZM186.36,108.44h2.17v-1.18h-2.17v1.18ZM186.36,111.28h2.17v-1.19h-2.17v1.19Z"/><path class="cls-1" d="M197.95,101.46c.33.08.55.12.55.35,0,.25-.27.31-.47.35-.88,2.62-.88,4.84-.88,5.29,0,1.1.12,1.66.22,2.21.39-.9.76-1.68,1.33-2.68.67.65.98.94,1.78,1.47-1.06,1.63-1.86,3.43-2.14,5.35l-2.45.29c-.9-2.33-1.39-4.8-1.39-7.31,0-1.7.21-3.02.65-5.13.1-.45.12-.55.14-.8l2.66.61ZM207.39,100.76c.31.02.49.04.49.29,0,.22-.2.27-.35.31.02.67.23,3.62.27,4.23.04.57.08,1.49.08,2.51,0,2.57-.14,7.93-6.27,11.3-.84-1.08-1.41-1.55-2.23-2.04,3.96-1.82,5.62-4.76,5.62-9.36,0-1.55-.22-5.31-.74-7.33l3.13.1Z"/><path class="cls-1" d="M215.51,102.03c.31.12.47.16.47.35,0,.2-.21.25-.51.29-.35,1.06-1.35,4.02-1.35,8.48,0,1.19.08,1.59.18,2.25.06-.16.67-1.55,1-2.12.37.57.8,1.04,1.39,1.45-.27.53-1.49,3.13-1.39,5.13l-2.45.69c-.65-1.8-1.37-4.03-1.37-7.93s.61-6.54,1.29-9.6l2.74,1.02ZM220.86,111.57c-.39.88-.51,1.45-.51,1.76,0,1.02.94,1.23,3.15,1.23,1.45,0,3.29-.08,5.15-.55-.29,1.29-.27,2.45-.25,2.84-1.25.18-3.45.29-4.74.29-4.09,0-5.8-.92-5.8-2.94,0-.43.04-1.53.74-3.04l2.27.43ZM218.65,103.17c.57.04,1.29.1,2.43.1,1.9,0,4.05-.1,6.19-.65.12,1.88.21,2.29.27,2.66-2.1.43-4.27.59-6.42.59-1.12,0-1.86-.04-2.47-.08v-2.62Z"/><path class="cls-1" d="M239.54,105.05c-.04-.45-.04-.65-.04-1.61h-4.43v-2.49h7.17c-.02.47-.08,2.53-.08,2.96,0,2.06,0,8.79,7.79,13.63-.74.43-1.53.96-2.23,1.88-3.43-2.35-6.89-6.58-7.76-10.89-.67,2.51-2.37,6.99-7.91,10.91-.74-.9-1.21-1.37-2.08-1.92,6.54-4.27,7.58-9.24,8.05-12.77l1.53.31Z"/><path class="cls-1" d="M253.96,101.46c.33.08.55.12.55.35,0,.25-.27.31-.47.35-.88,2.62-.88,4.84-.88,5.29,0,1.1.12,1.66.22,2.21.39-.9.76-1.68,1.33-2.68.67.65.98.94,1.78,1.47-1.06,1.63-1.86,3.43-2.14,5.35l-2.45.29c-.9-2.33-1.39-4.8-1.39-7.31,0-1.7.21-3.02.65-5.13.1-.45.12-.55.14-.8l2.66.61ZM263.39,100.76c.31.02.49.04.49.29,0,.22-.2.27-.35.31.02.67.23,3.62.27,4.23.04.57.08,1.49.08,2.51,0,2.57-.14,7.93-6.27,11.3-.84-1.08-1.41-1.55-2.23-2.04,3.96-1.82,5.62-4.76,5.62-9.36,0-1.55-.22-5.31-.74-7.33l3.13.1Z"/><path class="cls-1" d="M269.92,112.49c.16.02.33.1.33.25,0,.2-.22.29-.47.39-.23,1.74-.49,3.15-1.06,4.8-.72-.25-1.41-.41-2.17-.47.76-1.55,1.14-4.11,1.21-5.25l2.17.29ZM275.29,103.42c.12.06.25.2.25.35,0,.23-.29.23-.57.23-.22.29-1.12,1.59-1.31,1.86-.35.47-1.04,1.41-2.29,2.92.31-.02,1.63-.2,1.92-.22-.27-.9-.39-1.16-.47-1.35l2.04-.49c1.92-2.62,2.76-4.94,3.08-6.21l2.37.76c.16.06.33.18.33.33,0,.2-.33.31-.57.35-.39,1-.57,1.39-.71,1.76h5.8c.06,5.07-.16,10.26-.76,12.52-.61,2.35-1.76,3.04-4.78,2.92-.04-.45-.12-1.25-1.08-2.8.31.08,1.1.27,1.76.27,1.27,0,1.76-.67,2.12-3.17.39-2.53.35-6.23.33-7.5h-4.54c-.61,1.08-.82,1.47-1.49,2.35-.41-.41-1.06-.78-1.68-1.06.45,1.27.8,2.8,1,3.72-1.17.31-1.53.43-2.12.67-.04-.29-.06-.51-.16-1.06l-1.12.18v8.52h-2.33v-8.19c-.39.04-2.12.25-2.47.29-.06.25-.2.47-.37.47-.22,0-.35-.25-.37-.43l-.31-2.21c.67-.06,1-.08,1.74-.14.49-.57.86-1.02,1.17-1.43-.78-.8-1-.98-2.94-2.66l1.39-1.96c.55.41.69.55.94.74,1.27-2.12,1.59-2.94,1.8-3.47l1.98.98c.14.06.25.18.25.31,0,.18-.18.22-.59.22-.71,1.33-1.57,2.66-2,3.25.12.1.27.22.67.63,1.47-2.06,1.76-2.53,2.15-3.31l1.96,1.08ZM275.17,111.92c.18,1.51.47,2.62,1.06,4.37-.29.08-1.49.35-2.1.74-.27-.86-.86-2.88-1-4.56l2.04-.55ZM279.18,108.06c.92,1.66,1.49,2.92,2,4.54-1.55.67-1.84.82-2.17.98-.43-1.55-1.25-3.37-2-4.7l2.17-.82Z"/><path class="cls-1" d="M300.69,115.35v2.37h-13.59c.23-3.47,1.84-4.56,6.89-7.91,3-2,3.43-2.55,3.43-3.78,0-1.72-1.68-2.27-3.17-2.27-3.06,0-3.64,1.84-3.74,3.7h-3.15c.08-1.41.39-6.29,6.89-6.29,4.17,0,6.29,2.19,6.29,4.84,0,2.29-1.27,3.6-4.25,5.48-3.11,1.96-3.94,2.62-4.99,3.86h9.38Z"/><path class="cls-1" d="M315.94,109.67c0,2.88-.76,8.5-6.78,8.5s-6.78-5.6-6.78-8.5.7-8.5,6.78-8.5,6.78,5.62,6.78,8.5ZM305.52,109.67c0,.88,0,5.92,3.64,5.92s3.62-5.05,3.62-5.92,0-5.93-3.62-5.93-3.64,4.96-3.64,5.93Z"/><path class="cls-1" d="M331.47,109.67c0,2.88-.76,8.5-6.78,8.5s-6.78-5.6-6.78-8.5.7-8.5,6.78-8.5,6.78,5.62,6.78,8.5ZM321.05,109.67c0,.88,0,5.92,3.64,5.92s3.62-5.05,3.62-5.92,0-5.93-3.62-5.93-3.64,4.96-3.64,5.93Z"/><path class="cls-1" d="M336.45,105.97l.06,1.57c.57-1.12,1.7-2,3.27-2,2.27,0,3.04,1.51,3.33,2.06.51-.86,1.41-2.06,3.56-2.06,1.82,0,3.82.94,3.82,4v8.17h-2.76v-7.7c0-.65-.16-2.31-1.94-2.31-1.59,0-2.29,1.45-2.29,2.78v7.23h-2.76v-7.8c0-1.1-.65-2.21-1.96-2.21s-2.27,1.29-2.27,2.78v7.23h-2.78v-11.75h2.72Z"/><path class="cls-1" d="M361.82,100.72c.39.04.47.12.47.27,0,.25-.25.33-.47.41-.04.53-.1,1.02-.33,2.62h9.72v2.29h-10.15c-.12.55-.37,1.59-.96,3.31h9.95v2.41h-4.29v4.37h5.46v2.27h-14.53v-2.27h6.4v-4.37h-3.25v-1.68c-.57,1.37-2.19,5.29-5.9,8.13-.43-.61-1.17-1.39-1.92-1.9,3.19-2.1,5.56-5.72,6.58-10.28h-6.03v-2.29h6.42c.22-1.78.25-2.63.29-3.51l2.55.22Z"/><path class="cls-1" d="M383.3,106.48h6.6v2.35h-6.6v1.88h7.91v2.41h-7.91v3.37c0,2.41-.86,2.84-4.64,2.92-.04-.33-.29-1.78-1.19-2.7,1.35.12,1.49.12,1.88.12,1.08,0,1.21-.41,1.21-1.14v-2.57h-8.27v-2.41h8.27v-1.88h-6.93v-2.35h6.93v-1.92c-.61.06-3.45.31-5.84.21-.16-.98-.41-1.43-1-2.33.57.02,1.21.06,2.23.06,2.45,0,7.07-.18,11.5-2.06l1.72,2.02c.08.1.14.18.14.31,0,.14-.1.31-.35.31-.2,0-.43-.12-.57-.2-2.27.71-3.21.98-5.09,1.33v2.29Z"/></g></svg>