<?xml version="1.0" encoding="UTF-8"?><svg id="_レイヤー_2" xmlns="http://www.w3.org/2000/svg" xmlns:xlink="http://www.w3.org/1999/xlink" viewBox="0 0 168.09 49.49"><defs><style>.cls-1{fill:url(#_新規グラデーションスウォッチ_1);}.cls-1,.cls-2{stroke-width:0px;}.cls-2{fill:#fff;}</style><linearGradient id="_新規グラデーションスウォッチ_1" x1="0" y1="24.75" x2="168.09" y2="24.75" gradientUnits="userSpaceOnUse"><stop offset="0" stop-color="#f7b52c"/><stop offset="1" stop-color="#f7742c"/></linearGradient></defs><g id="_レイヤー_1-2"><rect class="cls-1" x="0" y="0" width="168.09" height="49.49" rx="24.75" ry="24.75"/><path class="cls-2" d="M53.96,14.17c.51,0,1.11-.06,1.59-.26l2.67,2.47c-.34.4-.45.57-1.02,1.42-3.55,5.15-6.57,7.93-8.02,9.27-.63-.8-1.37-1.65-2.79-2.67,2.9-2.42,4.24-3.72,6.14-6.57h-19.59v-3.67h21.01ZM46.56,19.4c.2,0,.46.06.46.29,0,.31-.34.51-.46.57-.11,2.96-.57,6.05-1.45,8.36-1.02,2.62-3.44,6.25-7.28,8.41-1.28-1.14-1.9-1.62-3.35-2.53,4.24-2.39,8.5-5.6,7.96-15.35l4.12.26Z"/><path class="cls-2" d="M76.75,16.33c.94,0,1.45-.2,1.96-.43l2.05,1.79c-.48.82-1.99,4.18-2.93,6.28-4.43,9.86-11.43,13.13-13.62,14.16-.51-.65-1.05-1.28-3.04-2.79,10.15-4.21,12.85-11.8,14.19-15.52h-7.9c-1.9,2.79-3.84,5-6.68,7.56-1.28-1.34-1.68-1.76-2.96-2.62,3.01-2.47,7.36-6.79,9.52-12.79l3.5,1.68c.14.06.4.17.4.43,0,.28-.51.37-.68.37-.34.68-.57,1.11-.97,1.88h7.16Z"/><path class="cls-2" d="M90.37,12.58l3.92.2c.28.03.57.03.57.31s-.34.43-.57.48v6.42l9.32-1.17c1.22-.14,1.76-.4,2.05-.51l2.53,2.3c-1.02,1.17-1.28,1.51-3.5,4.55-1.48,2.08-2.59,3.47-3.44,4.49-1.34-1.05-2.81-1.76-3.3-2.02,1.54-1.42,3.07-3.21,4.18-4.95l-7.85,1v6.62c0,2.22.43,2.7,3.38,2.7,2.19,0,6.88-.11,8.98-.48-.23,1.05-.43,2.7-.43,3.95-1.14.03-8.9.09-9.38.09-5.43,0-6.48-1.73-6.48-5.74v-6.62l-6.54.85-.34-3.72,6.88-.85v-7.9Z"/><path class="cls-2" d="M112.68,17.56v-3.61h14.44c.46,0,1.51-.06,1.96-.23l1.93,2.08c-.57.74-.88,1.39-1.08,1.82-1.19,2.79-1.85,4.29-3.67,7.25,2.16,1.62,6.62,5.49,8.87,8.22-1,1.08-2.59,2.84-2.93,3.24-1.54-2.13-3.89-5.23-8.07-8.47-1.96,2.47-6.57,6.82-11.37,8.87-.88-1.54-1.36-2.19-2.7-3.33,1.71-.6,5.86-2.13,10.06-6.65,3.07-3.27,4.15-5.94,5.37-9.18h-12.82Z"/></g></svg>