<?xml version="1.0" encoding="UTF-8"?><svg id="_レイヤー_2" xmlns="http://www.w3.org/2000/svg" viewBox="0 0 420.14 79.12"><defs><style>.cls-1{fill:#000;stroke-width:0px;}.cls-2{fill:none;stroke:#000;stroke-width:.52px;}</style></defs><g id="_レイヤー_1-2"><path class="cls-2" d="M72.44,43.4h3.71v27.1h-3.71v-27.1Z"/><path class="cls-2" d="M83,50.74h3.15v2.8c.93-1.16,1.92-1.99,2.97-2.49,1.05-.5,2.21-.76,3.49-.76,2.8,0,4.7.98,5.68,2.93.54,1.07.81,2.6.81,4.59v12.67h-3.38v-12.45c0-1.21-.18-2.18-.54-2.92-.59-1.23-1.66-1.84-3.21-1.84-.79,0-1.43.08-1.94.24-.91.27-1.71.81-2.4,1.62-.55.65-.91,1.33-1.08,2.02-.17.69-.25,1.69-.25,2.98v10.35h-3.32v-19.76Z"/><path class="cls-2" d="M107.38,64.3c.1,1.11.38,1.96.85,2.55.85,1.07,2.33,1.6,4.44,1.6,1.25,0,2.36-.27,3.31-.8.95-.53,1.43-1.36,1.43-2.48,0-.85-.38-1.5-1.14-1.94-.49-.27-1.45-.58-2.89-.94l-2.68-.66c-1.71-.42-2.97-.89-3.79-1.4-1.45-.9-2.18-2.14-2.18-3.73,0-1.87.68-3.38,2.05-4.54,1.36-1.16,3.2-1.73,5.51-1.73,3.02,0,5.19.87,6.52,2.62.83,1.11,1.24,2.3,1.22,3.58h-3.14c-.06-.75-.33-1.42-.81-2.04-.78-.87-2.13-1.3-4.06-1.3-1.28,0-2.26.24-2.92.72-.66.48-.99,1.11-.99,1.89,0,.86.43,1.54,1.3,2.06.5.31,1.24.58,2.22.81l2.24.54c2.43.58,4.06,1.14,4.89,1.68,1.29.85,1.94,2.18,1.94,4s-.68,3.28-2.03,4.56c-1.35,1.28-3.41,1.92-6.17,1.92-2.98,0-5.08-.67-6.32-2-1.24-1.33-1.9-2.99-1.99-4.95h3.19Z"/><path class="cls-2" d="M126.5,45.23h3.36v5.52h3.15v2.71h-3.15v12.9c0,.69.23,1.15.7,1.38.26.14.69.2,1.29.2.16,0,.33,0,.52-.01s.4-.03.65-.06v2.64c-.38.11-.78.19-1.19.24-.41.05-.86.07-1.34.07-1.55,0-2.6-.4-3.15-1.19-.55-.79-.83-1.82-.83-3.09v-13.08h-2.68v-2.71h2.68v-5.52Z"/><path class="cls-2" d="M148.49,58.54c.76-.1,1.27-.42,1.53-.96.15-.3.22-.72.22-1.28,0-1.14-.4-1.96-1.21-2.47-.8-.51-1.95-.77-3.45-.77-1.73,0-2.96.47-3.68,1.41-.41.52-.67,1.29-.79,2.32h-3.1c.06-2.44.85-4.14,2.37-5.1,1.52-.96,3.28-1.43,5.28-1.43,2.32,0,4.21.44,5.66,1.33,1.44.89,2.16,2.26,2.16,4.13v11.38c0,.34.07.62.21.83.14.21.44.31.9.31.15,0,.31,0,.5-.03s.38-.05.59-.08v2.45c-.52.15-.91.24-1.18.28s-.64.05-1.11.05c-1.14,0-1.97-.41-2.49-1.22-.27-.43-.46-1.04-.57-1.83-.68.89-1.65,1.65-2.92,2.31s-2.66.98-4.19.98c-1.83,0-3.33-.56-4.49-1.67-1.16-1.11-1.74-2.5-1.74-4.17,0-1.83.57-3.25,1.72-4.26s2.64-1.63,4.5-1.86l5.29-.66ZM141.5,67.52c.7.55,1.53.83,2.49.83,1.17,0,2.3-.27,3.39-.81,1.84-.9,2.77-2.36,2.77-4.4v-2.67c-.41.26-.93.47-1.57.65-.64.17-1.26.3-1.88.37l-2.01.26c-1.2.16-2.11.41-2.71.75-1.03.58-1.54,1.5-1.54,2.76,0,.96.35,1.71,1.05,2.26Z"/><path class="cls-2" d="M171.2,51.54c.62.43,1.26,1.06,1.91,1.88v-2.49h3.06v17.97c0,2.51-.37,4.49-1.1,5.94-1.37,2.68-3.96,4.02-7.78,4.02-2.12,0-3.9-.48-5.35-1.43-1.45-.95-2.26-2.44-2.43-4.47h3.38c.16.89.48,1.57.95,2.05.75.74,1.92,1.11,3.52,1.11,2.53,0,4.19-.9,4.97-2.69.46-1.06.68-2.95.64-5.66-.66,1.01-1.46,1.76-2.39,2.25-.93.49-2.16.74-3.69.74-2.13,0-4-.76-5.6-2.28-1.6-1.52-2.4-4.03-2.4-7.54,0-3.31.81-5.89,2.42-7.75,1.61-1.86,3.56-2.79,5.83-2.79,1.54,0,2.89.38,4.04,1.14ZM171.61,55.1c-1-1.18-2.28-1.77-3.84-1.77-2.33,0-3.92,1.09-4.77,3.28-.45,1.17-.68,2.7-.68,4.59,0,2.23.45,3.92,1.35,5.08.9,1.16,2.11,1.74,3.62,1.74,2.37,0,4.04-1.08,5.01-3.23.54-1.22.81-2.64.81-4.26,0-2.45-.5-4.26-1.5-5.44Z"/><path class="cls-2" d="M182.61,50.74h3.15v3.41c.26-.66.89-1.47,1.9-2.43s2.17-1.43,3.49-1.43c.06,0,.17,0,.31.02.15.01.4.04.76.07v3.5c-.2-.04-.38-.06-.54-.07s-.35-.02-.54-.02c-1.67,0-2.96.54-3.86,1.61s-1.35,2.32-1.35,3.72v11.36h-3.32v-19.76Z"/><path class="cls-2" d="M206.99,58.54c.76-.1,1.27-.42,1.53-.96.15-.3.22-.72.22-1.28,0-1.14-.4-1.96-1.21-2.47-.8-.51-1.95-.77-3.45-.77-1.73,0-2.96.47-3.68,1.41-.41.52-.67,1.29-.79,2.32h-3.1c.06-2.44.85-4.14,2.37-5.1,1.52-.96,3.28-1.43,5.28-1.43,2.32,0,4.21.44,5.66,1.33,1.44.89,2.16,2.26,2.16,4.13v11.38c0,.34.07.62.21.83.14.21.44.31.9.31.15,0,.31,0,.5-.03s.38-.05.59-.08v2.45c-.52.15-.91.24-1.18.28s-.64.05-1.11.05c-1.14,0-1.97-.41-2.49-1.22-.27-.43-.46-1.04-.57-1.83-.68.89-1.65,1.65-2.92,2.31s-2.66.98-4.19.98c-1.83,0-3.33-.56-4.49-1.67-1.16-1.11-1.74-2.5-1.74-4.17,0-1.83.57-3.25,1.72-4.26s2.64-1.63,4.5-1.86l5.29-.66ZM199.99,67.52c.7.55,1.53.83,2.49.83,1.17,0,2.3-.27,3.39-.81,1.84-.9,2.77-2.36,2.77-4.4v-2.67c-.41.26-.93.47-1.57.65-.64.17-1.26.3-1.88.37l-2.01.26c-1.2.16-2.11.41-2.71.75-1.03.58-1.54,1.5-1.54,2.76,0,.96.35,1.71,1.05,2.26Z"/><path class="cls-2" d="M218.81,50.74h3.28v2.8c.79-.97,1.5-1.68,2.14-2.12,1.09-.75,2.34-1.12,3.73-1.12,1.57,0,2.84.39,3.8,1.16.54.44,1.03,1.09,1.48,1.96.74-1.06,1.61-1.84,2.6-2.35,1-.51,2.12-.77,3.36-.77,2.66,0,4.46.96,5.42,2.88.52,1.03.77,2.42.77,4.17v13.15h-3.45v-13.73c0-1.32-.33-2.22-.99-2.71-.66-.49-1.46-.74-2.41-.74-1.3,0-2.43.44-3.37,1.31s-1.41,2.33-1.41,4.37v11.49h-3.38v-12.9c0-1.34-.16-2.32-.48-2.93-.5-.92-1.45-1.38-2.82-1.38-1.25,0-2.39.49-3.42,1.46-1.03.97-1.54,2.73-1.54,5.28v10.48h-3.32v-19.76Z"/><path class="cls-1" d="M146.99,26.02c1.47-.61,2.93-1.66,4.01-2.48-1.53-1.59-2.52-3.15-2.9-3.76l2.36-1.59h-2.58v-2.83h10.38l1.53,1.34c-.76,2.74-2.45,5.1-3.88,6.85,1.02.7,2.83,1.94,5.35,2.8-1.24,1.27-1.37,1.46-2.32,2.96-2.32-1.18-3.6-2.07-5.32-3.38-1.66,1.46-2.9,2.39-4.65,3.31-.7-1.11-1.18-1.66-1.97-2.29v2.48h-3.73v-3.79c-2.64.73-5.57,1.27-9.08,1.94-.25.45-.35.6-.6.6-.32,0-.45-.38-.48-.57l-.57-3.25c.76-.03,1.5-.06,2.83-.22v-10.13h-2.87v-2.8h29.11v2.8h-14.62v12.01ZM157.43.89v9.14h-20.79V.89h20.79ZM143.26,14.01h-4.08v1.46h4.08v-1.46ZM143.26,17.77h-4.08v1.5h4.08v-1.5ZM143.26,21.56h-4.08v2.1c1.37-.19,2.67-.45,4.08-.73v-1.37ZM153.77,4.43v-1.15h-13.44v1.15h13.44ZM140.33,6.5v1.27h13.44v-1.27h-13.44ZM151.07,18.18c.67,1.24,1.78,2.55,2.33,3.09.61-.76,1.46-1.75,1.94-3.09h-4.27Z"/><path class="cls-1" d="M176.88,15.25h4.75v3.22h-4.24c.38.48,2.52,2.87,4.24,3.98-1.34.86-1.72,1.21-2.55,2.48-.96-.92-1.43-1.59-2.2-2.74v7.01h-3.6v-6.97c-.86,1.69-1.85,3.38-3.5,5.16-.89-.8-1.66-1.27-3.18-1.94,2.67-2.26,4.39-4.75,5.6-6.97h-4.46v-3.22h5.54v-2.33h-5.89v-3.12h3.6c-.51-1.82-.8-2.45-1.02-2.96l1.66-.57h-3.38v-3.06h5.13V.1l3.85.29c.57.03.7.16.7.38,0,.19-.29.38-.7.6v1.85h4.58v3.06h-1.94c.76.16,1.05.22,1.05.51,0,.32-.22.38-.8.54-.35.99-.83,1.94-1.11,2.48h3.47v3.12h-4.62c-.06.38-.7.54-.99.64v1.69ZM173.25,6.27c.7,1.66.89,2.42,1.02,3.03l-1.78.51h3.09c.96-1.46,1.43-3.15,1.53-3.54h-3.85ZM183.25,2.33l2.1.22c2.1,0,6.4-1.05,8.85-2.07l2.17,2.83c.06.1.16.22.16.41,0,.29-.19.45-.48.45-.22,0-.41-.1-.8-.32-2.67.86-5,1.37-8.18,1.62v4.33h9.11v3.57h-2.87v15.83h-3.79v-15.83h-2.45c0,2.36,0,10.29-4.65,16.08-.76-.51-1.94-1.18-3.66-1.62,4.08-4.43,4.49-9.84,4.49-14.46V2.33Z"/><path class="cls-1" d="M206.04,6.18c.35.06.8.13.8.45,0,.38-.45.48-.64.51-.13,1.31-.54,4.9-1.59,7.8-.7-.48-1.27-.8-3.15-1.4.89-2.55,1.37-4.65,1.66-7.77l2.93.41ZM211.65,4.52c.86.73,2.48,2.52,3.28,3.57-.67.29-1.5,1.18-2.1,1.91h7.29v-1.43h-5.06v-2.29h5.06v-1.4h-6.66v-2.61h6.66V0l3.92.29c.22.03.64.03.64.38,0,.22-.09.35-.25.41-.13.06-.25.13-.38.19v.99h7.17v2.61h-7.17v1.4h5.6v2.29h-5.6v1.43h7.9v2.61h-19.42v-2.42c-.48-.7-1.4-1.82-1.72-2.23v21.3h-3.92V.16l4.08.25c.32.03.67.16.67.41,0,.35-.35.48-.83.67v3.69l.86-.67ZM218.27,24.17v5.09h-3.89v-15.29h15.89v11.62c0,2.64-.61,3.5-5.61,3.69-.22-.99-.54-2.07-1.5-3.38.48.03,1.27.13,2.01.13,1.21,0,1.24-.29,1.24-1.08v-.8h-8.15ZM226.42,18.02v-1.56h-8.15v1.56h8.15ZM226.42,21.88v-1.56h-8.15v1.56h8.15Z"/><path class="cls-1" d="M247.86,11.3l2.39.57c.22.06.51.13.51.38,0,.35-.48.38-.76.41-.38,1.05-.57,1.43-.99,2.26h2.77v3.18h-5v2.13h4.75v3.18h-4.75v5.83h-3.57v-5.83h-4.84v-3.18h4.84v-2.13h-5.19v-3.18h2.8c-.03-.1-.54-1.72-1.18-2.9l2.45-.73h-4.75v-3.15h5.86v-2.07h-4.27v-3.02h4.27V.16l3.6.19c.25,0,.64.03.64.38s-.35.51-.67.67v1.66h4.46v3.02h-4.46v2.07h5.35v3.15h-4.27ZM243.02,11.3c.57,1.21.89,1.94,1.31,3.25l-1.34.38h2.64c.35-.73.96-2.1,1.34-3.63h-3.95ZM264.26,29.42c-1.46-1.24-2.23-2.1-3.03-2.99-1.34,1.82-2.01,2.45-2.42,2.8-.89-.92-1.37-1.27-2.17-1.72v1.75h-3.73V.89h12.64c0,1.15,0,7.71-.13,8.34-.48,2.32-3.98,2.48-5.73,2.52-.38-2.2-1.08-3.28-1.43-3.79.48.1.96.22,1.78.22,1.62,0,1.72-.38,1.75-1.02,0-.45.03-1.91.03-2.87h-5.19v8.34h7.93l1.78,1.85c-.54,2.39-1.4,5.57-3.15,8.76,1.15,1.43,2.52,2.67,4.01,3.73-.89.57-2.2,1.59-2.96,2.45ZM256.65,15.99v2.1l2.71-1.59c.48,1.85,1.4,3.57,1.53,3.76.64-1.5.99-2.42,1.37-4.27h-5.6ZM256.65,18.18v8.25c.86-.83,1.59-1.75,2.39-2.9-.48-.7-1.78-2.99-2.39-5.35Z"/><path class="cls-1" d="M279.42,2.55c.25.1.38.22.38.45,0,.35-.48.45-.89.51-1.18,4.11-1.82,8.38-1.82,12.64,0,1.88.1,2.8.22,3.76.29-.51,1.46-2.77,1.72-3.22.25.48.8,1.43,2.04,2.71-1.62,2.61-2.67,5.51-2.64,8.28l-3.63.7c-.45-1.56-1.66-5.89-1.66-12.58,0-3.34.35-8.92,1.85-14.65l4.43,1.4ZM294.68,1.85c.35.06.45.22.45.41,0,.32-.45.41-.76.45-.1.73-.22,1.59-.32,4.17,2.83-.51,4.04-.92,5-1.24v4.11c-2.58.64-4.17.89-5.1,1.05,0,3.44.29,6.78.48,7.99,2.74.96,5.06,2.29,6.34,3.44-.48.83-1.66,3.28-1.88,3.79-1.91-1.78-3.12-2.33-4.04-2.74,0,4.36-4.9,4.65-6.3,4.65-4.62,0-6.24-2.83-6.24-5,0-3.18,3.12-4.94,6.56-4.94.57,0,.96.06,1.34.1-.1-1.24-.32-3.95-.35-6.75-1.94.16-3.57.22-4.52.22s-1.53-.03-2.2-.06v-4.27c.99.1,2.1.22,3.95.22,1.31,0,2.17-.06,2.74-.1,0-.29.03-5.57.03-6.31l4.84.8ZM288.44,21.34c-1.97,0-2.58.89-2.58,1.59,0,.89.92,1.53,2.23,1.53.22,0,2.67-.03,2.67-2.01,0-.22-.03-.45-.06-.7-.45-.19-1.05-.41-2.26-.41Z"/><path class="cls-1" d="M12.83,45.55c.19.1.32.22.32.45,0,.25-.41.35-.99.48-2.07,4.78-6.72,9.87-8.88,11.37-.76-.92-2.04-2.04-3.28-2.74,3.34-2.48,6.66-5.57,9.11-11.46l3.73,1.91ZM20.03,56.19c1.15,1.24,5.92,7.55,8.38,12.29-.99.38-3.12,1.66-3.73,2.23-.38-.86-.7-1.56-1.66-3.25-4.36.51-8.79,1.05-13.18,1.5-2.36.25-3.63.38-4.9.57-.16.29-.38.67-.64.67s-.41-.25-.51-.64l-.89-3.79c.32-.03,3.15-.22,3.66-.25,3.85-7.93,5.7-13.66,6.08-14.87l4.11,1.4c.25.1.45.22.45.45,0,.35-.35.45-.96.51-.67,1.91-2.58,6.37-5.41,12.17,5.09-.45,5.6-.51,10.25-.96-.99-1.53-1.31-1.94-4.2-5.8l3.15-2.23ZM22.35,42.69c.61,6.43,6.5,10.57,8.54,12.01-.92.76-1.94,1.81-2.77,2.9-1.43-.89-6.66-4.65-9.04-11.43h-5v-3.47h8.28Z"/><path class="cls-1" d="M45.76,65.39c2.32-.38,4.43-.86,6.15-1.27-.35,1.08-.45,2.55-.41,3.5-4.71,1.24-8.88,1.94-13.88,2.58-.13.35-.29.8-.67.8-.29,0-.45-.38-.48-.57l-.83-3.73c3.15-.29,4.78-.51,5.92-.67v-7.33h-5.13v-3.5h14.04v3.5h-4.71v6.69ZM57.86,41.45c1.05.61,3.12,1.85,5,3.5-.41.41-1.34,1.72-1.94,2.61h4.01v3.73h-10.73c.29,1.82,1.27,7.74,5.13,13.12.22.32.99,1.4,1.53,1.4s.83-.86,1.05-1.59c.13-.35.51-1.97.6-2.29.54.6,1.78,1.85,3.22,2.55-.83,3.76-2.07,6.02-4.3,6.02-3.95,0-9.08-7.74-10.96-19.2h-14.65v-3.73h14.14c-.1-.7-.45-3.79-.41-5.99l4.2.29c.19,0,.6.1.6.41,0,.41-.48.6-.8.73-.03.89-.06,2.23.16,4.55h6.21c-.89-.86-2.23-2.01-4.3-3.38l2.23-2.74Z"/><path class="cls-1" d="M72.44,43.4h3.71v27.1h-3.71v-27.1Z"/><path class="cls-1" d="M83,50.74h3.15v2.8c.93-1.16,1.92-1.99,2.97-2.49,1.05-.5,2.21-.76,3.49-.76,2.8,0,4.7.98,5.68,2.93.54,1.07.81,2.6.81,4.59v12.67h-3.38v-12.45c0-1.21-.18-2.18-.54-2.92-.59-1.23-1.66-1.84-3.21-1.84-.79,0-1.43.08-1.94.24-.91.27-1.71.81-2.4,1.62-.55.65-.91,1.33-1.08,2.02-.17.69-.25,1.69-.25,2.98v10.35h-3.32v-19.76Z"/><path class="cls-1" d="M107.38,64.3c.1,1.11.38,1.96.85,2.55.85,1.07,2.33,1.6,4.44,1.6,1.25,0,2.36-.27,3.31-.8.95-.53,1.43-1.36,1.43-2.48,0-.85-.38-1.5-1.14-1.94-.49-.27-1.45-.58-2.89-.94l-2.68-.66c-1.71-.42-2.97-.89-3.79-1.4-1.45-.9-2.18-2.14-2.18-3.73,0-1.87.68-3.38,2.05-4.54,1.36-1.16,3.2-1.73,5.51-1.73,3.02,0,5.19.87,6.52,2.62.83,1.11,1.24,2.3,1.22,3.58h-3.14c-.06-.75-.33-1.42-.81-2.04-.78-.87-2.13-1.3-4.06-1.3-1.28,0-2.26.24-2.92.72-.66.48-.99,1.11-.99,1.89,0,.86.43,1.54,1.3,2.06.5.31,1.24.58,2.22.81l2.24.54c2.43.58,4.06,1.14,4.89,1.68,1.29.85,1.94,2.18,1.94,4s-.68,3.28-2.03,4.56c-1.35,1.28-3.41,1.92-6.17,1.92-2.98,0-5.08-.67-6.32-2-1.24-1.33-1.9-2.99-1.99-4.95h3.19Z"/><path class="cls-1" d="M126.5,45.23h3.36v5.52h3.15v2.71h-3.15v12.9c0,.69.23,1.15.7,1.38.26.14.69.2,1.29.2.16,0,.33,0,.52-.01s.4-.03.65-.06v2.64c-.38.11-.78.19-1.19.24-.41.05-.86.07-1.34.07-1.55,0-2.6-.4-3.15-1.19-.55-.79-.83-1.82-.83-3.09v-13.08h-2.68v-2.71h2.68v-5.52Z"/><path class="cls-1" d="M148.49,58.54c.76-.1,1.27-.42,1.53-.96.15-.3.22-.72.22-1.28,0-1.14-.4-1.96-1.21-2.47-.8-.51-1.95-.77-3.45-.77-1.73,0-2.96.47-3.68,1.41-.41.52-.67,1.29-.79,2.32h-3.1c.06-2.44.85-4.14,2.37-5.1,1.52-.96,3.28-1.43,5.28-1.43,2.32,0,4.21.44,5.66,1.33,1.44.89,2.16,2.26,2.16,4.13v11.38c0,.34.07.62.21.83.14.21.44.31.9.31.15,0,.31,0,.5-.03s.38-.05.59-.08v2.45c-.52.15-.91.24-1.18.28s-.64.05-1.11.05c-1.14,0-1.97-.41-2.49-1.22-.27-.43-.46-1.04-.57-1.83-.68.89-1.65,1.65-2.92,2.31s-2.66.98-4.19.98c-1.83,0-3.33-.56-4.49-1.67-1.16-1.11-1.74-2.5-1.74-4.17,0-1.83.57-3.25,1.72-4.26s2.64-1.63,4.5-1.86l5.29-.66ZM141.5,67.52c.7.55,1.53.83,2.49.83,1.17,0,2.3-.27,3.39-.81,1.84-.9,2.77-2.36,2.77-4.4v-2.67c-.41.26-.93.47-1.57.65-.64.17-1.26.3-1.88.37l-2.01.26c-1.2.16-2.11.41-2.71.75-1.03.58-1.54,1.5-1.54,2.76,0,.96.35,1.71,1.05,2.26Z"/><path class="cls-1" d="M171.2,51.54c.62.43,1.26,1.06,1.91,1.88v-2.49h3.06v17.97c0,2.51-.37,4.49-1.1,5.94-1.37,2.68-3.96,4.02-7.78,4.02-2.12,0-3.9-.48-5.35-1.43-1.45-.95-2.26-2.44-2.43-4.47h3.38c.16.89.48,1.57.95,2.05.75.74,1.92,1.11,3.52,1.11,2.53,0,4.19-.9,4.97-2.69.46-1.06.68-2.95.64-5.66-.66,1.01-1.46,1.76-2.39,2.25-.93.49-2.16.74-3.69.74-2.13,0-4-.76-5.6-2.28-1.6-1.52-2.4-4.03-2.4-7.54,0-3.31.81-5.89,2.42-7.75,1.61-1.86,3.56-2.79,5.83-2.79,1.54,0,2.89.38,4.04,1.14ZM171.61,55.1c-1-1.18-2.28-1.77-3.84-1.77-2.33,0-3.92,1.09-4.77,3.28-.45,1.17-.68,2.7-.68,4.59,0,2.23.45,3.92,1.35,5.08.9,1.16,2.11,1.74,3.62,1.74,2.37,0,4.04-1.08,5.01-3.23.54-1.22.81-2.64.81-4.26,0-2.45-.5-4.26-1.5-5.44Z"/><path class="cls-1" d="M182.61,50.74h3.15v3.41c.26-.66.89-1.47,1.9-2.43s2.17-1.43,3.49-1.43c.06,0,.17,0,.31.02.15.01.4.04.76.07v3.5c-.2-.04-.38-.06-.54-.07s-.35-.02-.54-.02c-1.67,0-2.96.54-3.86,1.61s-1.35,2.32-1.35,3.72v11.36h-3.32v-19.76Z"/><path class="cls-1" d="M206.99,58.54c.76-.1,1.27-.42,1.53-.96.15-.3.22-.72.22-1.28,0-1.14-.4-1.96-1.21-2.47-.8-.51-1.95-.77-3.45-.77-1.73,0-2.96.47-3.68,1.41-.41.52-.67,1.29-.79,2.32h-3.1c.06-2.44.85-4.14,2.37-5.1,1.52-.96,3.28-1.43,5.28-1.43,2.32,0,4.21.44,5.66,1.33,1.44.89,2.16,2.26,2.16,4.13v11.38c0,.34.07.62.21.83.14.21.44.31.9.31.15,0,.31,0,.5-.03s.38-.05.59-.08v2.45c-.52.15-.91.24-1.18.28s-.64.05-1.11.05c-1.14,0-1.97-.41-2.49-1.22-.27-.43-.46-1.04-.57-1.83-.68.89-1.65,1.65-2.92,2.31s-2.66.98-4.19.98c-1.83,0-3.33-.56-4.49-1.67-1.16-1.11-1.74-2.5-1.74-4.17,0-1.83.57-3.25,1.72-4.26s2.64-1.63,4.5-1.86l5.29-.66ZM199.99,67.52c.7.55,1.53.83,2.49.83,1.17,0,2.3-.27,3.39-.81,1.84-.9,2.77-2.36,2.77-4.4v-2.67c-.41.26-.93.47-1.57.65-.64.17-1.26.3-1.88.37l-2.01.26c-1.2.16-2.11.41-2.71.75-1.03.58-1.54,1.5-1.54,2.76,0,.96.35,1.71,1.05,2.26Z"/><path class="cls-1" d="M218.81,50.74h3.28v2.8c.79-.97,1.5-1.68,2.14-2.12,1.09-.75,2.34-1.12,3.73-1.12,1.57,0,2.84.39,3.8,1.16.54.44,1.03,1.09,1.48,1.96.74-1.06,1.61-1.84,2.6-2.35,1-.51,2.12-.77,3.36-.77,2.66,0,4.46.96,5.42,2.88.52,1.03.77,2.42.77,4.17v13.15h-3.45v-13.73c0-1.32-.33-2.22-.99-2.71-.66-.49-1.46-.74-2.41-.74-1.3,0-2.43.44-3.37,1.31s-1.41,2.33-1.41,4.37v11.49h-3.38v-12.9c0-1.34-.16-2.32-.48-2.93-.5-.92-1.45-1.38-2.82-1.38-1.25,0-2.39.49-3.42,1.46-1.03.97-1.54,2.73-1.54,5.28v10.48h-3.32v-19.76Z"/><path class="cls-1" d="M277.64,46.89c-7.96-.03-15.03,6.5-15.03,12.32,0,3.73,2.61,6.15,9.36,6.66-1.24,2.33-1.72,3.82-2.01,4.81-4.84-1.08-11.62-3.85-11.62-11.08,0-4.27,2.42-7.93,6.69-11.21-2.04.13-11.43,1.21-14.52,2.01l-.61-5.13c.61.06,1.21.1,2.07.1,2.17,0,15.44-.54,24.84-3.03l.83,4.55ZM272.33,52.02c.45.51,2.04,2.36,2.77,3.44-.8.57-1.94,1.66-2.13,1.85-1.08-1.59-1.62-2.33-2.71-3.54l2.07-1.75ZM275.38,49.66c.89.76,2.26,2.45,2.9,3.38-.7.48-1.46,1.21-2.07,1.82-.99-1.5-1.59-2.26-2.8-3.6l1.97-1.59Z"/><path class="cls-1" d="M301.38,52.97h10.09v3.85h-10.35c-1.11,9.24-8.25,12.45-10.86,13.6-1.02-1.46-1.75-2.23-3.28-3.41,3.98-1.4,8.88-3.66,9.78-10.19h-12.42v-3.85h12.58v-4.3c-4.65.86-6.91.96-8.15,1.02-.54-1.78-1.4-2.93-2.04-3.76,8.53,0,15.16-2.17,18.22-4.17l3.44,2.96c.1.1.16.19.16.32,0,.19-.16.41-.45.41-.16,0-.32-.06-.51-.16-.83.45-2.1,1.11-6.21,2.32v5.35Z"/><path class="cls-1" d="M330.99,64.25h9.04v3.63h-21.69v-3.63h8.73v-10.92h-6.43v-3.76h16.97v3.76h-6.62v10.92Z"/><path class="cls-1" d="M351.29,49.69c1.15,1.88,2.26,4.24,2.99,6.05-.83.29-2.23.86-3.44,1.66-.96-2.45-1.81-4.04-3.06-6.24l3.5-1.46ZM369.76,49.89c.32.09.57.16.57.41,0,.32-.41.41-.6.45-2.45,9.97-6.62,15.22-15.45,18.88-1.11-1.78-1.88-2.48-2.55-3.06,6.62-2.52,12.51-6.34,14.14-17.9l3.88,1.21ZM357.94,48.17c.92,1.53,1.91,3.38,2.74,6.18-.67.25-2.29.8-3.44,1.4-.7-1.94-1.75-4.3-2.83-6.15l3.53-1.43Z"/><path class="cls-1" d="M398.5,46.7c1.05,0,1.62-.22,2.2-.48l2.29,2.01c-.54.92-2.23,4.68-3.28,7.04-4.97,11.05-12.8,14.71-15.25,15.86-.57-.73-1.18-1.43-3.41-3.12,11.37-4.71,14.39-13.22,15.89-17.39h-8.85c-2.13,3.12-4.3,5.6-7.48,8.47-1.43-1.5-1.88-1.97-3.31-2.93,3.38-2.77,8.25-7.61,10.67-14.33l3.92,1.88c.16.06.45.19.45.48,0,.32-.57.41-.76.41-.38.76-.64,1.24-1.08,2.1h8.02Z"/><path class="cls-1" d="M420.14,63.36v5h-4.84v-5h4.84ZM419.98,43.26v7.77l-.96,9.39h-2.58l-.99-9.39v-7.77h4.52Z"/></g></svg>