<?xml version="1.0" encoding="UTF-8"?><svg id="_レイヤー_2" xmlns="http://www.w3.org/2000/svg" xmlns:xlink="http://www.w3.org/1999/xlink" viewBox="0 0 168.09 49.49"><defs><style>.cls-1{fill:url(#_新規グラデーションスウォッチ_1);}.cls-1,.cls-2{stroke-width:0px;}.cls-2{fill:#fff;}</style><linearGradient id="_新規グラデーションスウォッチ_1" x1="0" y1="24.75" x2="168.09" y2="24.75" gradientUnits="userSpaceOnUse"><stop offset="0" stop-color="#f7b52c"/><stop offset="1" stop-color="#f7742c"/></linearGradient></defs><g id="_レイヤー_1-2"><rect class="cls-1" x="0" y="0" width="168.09" height="49.49" rx="24.75" ry="24.75"/><path class="cls-2" d="M37.71,16.62v1.68l2.87-1.08c.68,1.19,1.79,3.5,2.22,4.89-1.82.74-2.05.82-2.96,1.34-.71-1.93-1.25-3.24-2.13-4.8v1.08h-2.7v3.78c1.36-.48,1.79-.62,2.67-1.05-.17,1.17-.23,2.27-.26,3.16-1,.51-2.13.94-2.42,1.05v7.73c0,1.51,0,3.72-5.26,3.41-.08-1.17-.57-2.53-1.05-3.52.54.08,1.59.2,2.13.2.91,0,.91-.45.91-1.68v-4.95c-1.14.4-1.59.51-2.19.65,0,.23-.06.77-.46.77-.09,0-.31-.08-.37-.4l-.68-3.5c1.28-.23,2.96-.68,3.7-.88v-4.78h-3.07v-3.1h3.07v-4.86l3.41.26c.28.03.48.11.48.34,0,.28-.31.4-.62.54v3.72h2.7ZM43.94,31.26c-1.54,2.1-4.04,4.52-6.03,5.6-.68-.88-.88-1.02-2.73-2.36,1.34-.71,4.86-2.56,7.76-6.31h-5.37v-3.04h6.37v-2.33l3.27.23c.31.03.65.09.65.4,0,.26-.17.31-.65.51v1.19h7.14v3.04h-6.25c.97,1.36,3.07,3.75,7.33,6.14-1.34.71-2.16,1.93-2.5,2.47-.99-.62-3.55-2.3-5.71-5.49v6.45h-3.27v-6.51ZM53.52,14.17c.14.17.26.34.26.51s-.09.31-.31.31c-.17,0-.46-.14-.8-.28-5.74,1.54-10.63,2.22-14.55,2.22-.26-1.42-.71-2.33-1.02-2.99,7.79-.14,11.77-1.42,14.33-2.3l2.1,2.53ZM45.76,16.65c.65,1.45,1.19,3.1,1.54,4.86-1.02.17-1.42.28-2.99.8-.51-1.93-.91-3.13-1.62-4.72l3.07-.94ZM54.03,17.16c.31.11.37.23.37.4,0,.34-.17.4-.85.54-.68,1.71-2.19,4.86-2.87,5.74-1.25-.71-1.48-.85-2.93-1.34.94-1.65,2.1-4.01,2.84-6.54l3.44,1.19Z"/><path class="cls-2" d="M72.35,36.54h-3.52v-8.21h-5.8c-.29,2.67-.68,6.17-2.81,9.61-1.37-1.02-3.35-1.36-3.81-1.42,2.47-3.13,3.07-8.1,3.07-12.48v-11.26h22.12v21.32c0,3.55-2.56,3.81-5.91,3.64-.17-1.31-.74-2.7-1.31-3.7.46.08,1.31.23,2.25.23,1.22,0,1.39-.43,1.39-1.54v-4.41h-5.66v8.21ZM68.82,22.02h-5.54v1.48c0,.51-.03,1.14-.06,1.62h5.6v-3.1ZM68.82,15.85h-5.54v3.1h5.54v-3.1ZM72.35,18.95h5.66v-3.1h-5.66v3.1ZM72.35,25.12h5.66v-3.1h-5.66v3.1Z"/><path class="cls-2" d="M88.23,17.16c.31.06.71.11.71.4,0,.34-.4.43-.57.46-.11,1.17-.48,4.38-1.42,6.96-.62-.43-1.14-.71-2.81-1.25.8-2.27,1.22-4.15,1.48-6.94l2.62.37ZM93.24,15.68c.77.65,2.22,2.25,2.93,3.18-.6.26-1.34,1.05-1.88,1.71h6.51v-1.28h-4.52v-2.05h4.52v-1.25h-5.94v-2.33h5.94v-2.02l3.5.26c.2.03.57.03.57.34,0,.2-.09.31-.23.37-.11.06-.23.11-.34.17v.88h6.4v2.33h-6.4v1.25h5v2.05h-5v1.28h7.05v2.33h-17.34v-2.16c-.43-.63-1.25-1.62-1.54-1.99v19.02h-3.5V11.78l3.64.23c.28.03.6.14.6.37,0,.31-.31.43-.74.6v3.3l.77-.6ZM99.15,33.22v4.55h-3.47v-13.64h14.18v10.38c0,2.36-.54,3.13-5,3.3-.2-.88-.48-1.85-1.34-3.01.43.03,1.14.11,1.79.11,1.08,0,1.11-.26,1.11-.97v-.71h-7.28ZM106.43,27.73v-1.39h-7.28v1.39h7.28ZM106.43,31.17v-1.39h-7.28v1.39h7.28Z"/><path class="cls-2" d="M122.75,21.73l2.13.51c.2.06.46.11.46.34,0,.31-.43.34-.68.37-.34.94-.51,1.28-.88,2.02h2.47v2.84h-4.46v1.9h4.24v2.84h-4.24v5.2h-3.18v-5.2h-4.32v-2.84h4.32v-1.9h-4.63v-2.84h2.5c-.03-.08-.48-1.54-1.05-2.59l2.19-.65h-4.24v-2.81h5.23v-1.85h-3.81v-2.7h3.81v-2.59l3.21.17c.23,0,.57.03.57.34s-.31.46-.6.6v1.48h3.98v2.7h-3.98v1.85h4.78v2.81h-3.81ZM118.43,21.73c.51,1.08.8,1.73,1.17,2.9l-1.19.34h2.36c.31-.65.85-1.88,1.19-3.24h-3.53ZM137.39,37.91c-1.31-1.11-1.99-1.88-2.7-2.67-1.19,1.62-1.79,2.19-2.16,2.5-.8-.82-1.22-1.14-1.93-1.54v1.56h-3.33V12.44h11.29c0,1.02,0,6.88-.11,7.45-.43,2.08-3.55,2.22-5.12,2.25-.34-1.96-.97-2.93-1.28-3.38.43.08.85.2,1.59.2,1.45,0,1.54-.34,1.56-.91,0-.4.03-1.71.03-2.56h-4.63v7.45h7.08l1.59,1.65c-.48,2.13-1.25,4.97-2.81,7.82,1.02,1.28,2.25,2.39,3.58,3.33-.8.51-1.96,1.42-2.64,2.19ZM130.6,25.91v1.88l2.42-1.42c.43,1.65,1.25,3.18,1.37,3.35.57-1.34.88-2.16,1.22-3.81h-5ZM130.6,27.87v7.36c.77-.74,1.42-1.56,2.13-2.59-.43-.62-1.59-2.67-2.13-4.78Z"/></g></svg>