<?xml version="1.0" encoding="UTF-8"?><svg id="_レイヤー_2" xmlns="http://www.w3.org/2000/svg" xmlns:xlink="http://www.w3.org/1999/xlink" viewBox="0 0 523.36 45.45"><defs><style>.cls-1{fill:url(#_新規グラデーションスウォッチ_1);stroke-width:0px;}</style><linearGradient id="_新規グラデーションスウォッチ_1" x1="0" y1="22.73" x2="523.36" y2="22.73" gradientUnits="userSpaceOnUse"><stop offset="0" stop-color="#f7b52c"/><stop offset="1" stop-color="#f7742c"/></linearGradient></defs><g id="_レイヤー_1-2"><path class="cls-1" d="M12.1,20c1.06.77,3.81,2.79,7.38,6.17,5.98-5.35,8.87-8.92,10.99-11.81H0v-6.07h34.42c.39,0,1.88-.14,3.23-.67l4,4.82c-.67.58-1.49,1.25-1.93,1.78-8,9.21-8.87,10.27-15.91,16.73,2.51,2.6,3.47,3.81,5.11,6.46-.53.48-2.99,2.6-3.47,3.04-.87.77-1.4,1.3-1.93,1.83-1.45-2.7-4.92-9.11-15.86-17.59l4.43-4.68Z"/><path class="cls-1" d="M49.15,12c3.76,1.45,9.83,5.01,11.71,6.56-1.74,1.83-3.47,4.53-4.05,5.5-4.53-3.81-9.83-5.98-11.38-6.6l3.71-5.45ZM48.24,38.22c15.52-5.3,27.81-15.95,34.46-26.12.53.96,1.54,2.84,4.24,5.5-7.28,10.89-21.69,21.74-33.69,26.17-.1.48-.24,1.16-.82,1.16-.34,0-.48-.24-.72-.67l-3.47-6.03ZM54.02,1.25c5.16,1.93,8.53,3.52,12.44,5.88-.96,1.06-3.13,4.19-3.9,5.35-3.71-2.65-7.91-4.68-12.1-6.22l3.57-5.01Z"/><path class="cls-1" d="M92.31,2.99c7.08,3.57,10.36,6.27,12.63,8.29-1.01,1.16-1.74,2.12-4,5.59-5.69-4.96-10.36-7.18-12.68-8.19l4.05-5.69ZM88.89,36.87c11.57-2.46,26.32-10.12,36.2-26.17,1.74,2.75,2.31,3.66,4.19,5.64-3.13,4.82-12.2,18.46-34.95,26.66-.1.48-.14,1.06-.82,1.06-.34,0-.63-.39-.87-.82l-3.76-6.36Z"/><path class="cls-1" d="M169.38,13.98c.24.19.39.39.39.58,0,.43-.53.58-1.11.58-.19,0-.48-.05-.82-.1-10.31,6.36-21.11,8.68-25.45,9.3v7.86c0,4.48.72,4.67,8.97,4.67,1.54,0,11.09,0,18.94-.92-.63,2.41-.72,3.33-.92,6.55-1.3.1-2.51.19-9.93.19-17.59,0-19.47,0-22.08-2.75-1.11-1.16-1.74-2.7-1.74-6.36V2.22l6.99.39c.53.05.92.14.92.58,0,.48-.48.67-1.16.96v14.22c8-1.3,17.4-5.45,21.45-8.87l5.54,4.48ZM175.36,5.45c0,2.46-1.98,4.48-4.44,4.48s-4.48-2.07-4.48-4.48,1.98-4.48,4.48-4.48,4.44,1.98,4.44,4.48ZM168.66,5.45c0,1.25,1.06,2.22,2.26,2.22s2.22-1.01,2.22-2.22-.96-2.27-2.22-2.27-2.26,1.01-2.26,2.27Z"/><path class="cls-1" d="M208,14.94c2.17,0,3.23-.19,4.1-.43l4.05,2.84c-.82,1.54-4.24,8.39-5.01,9.74-5.78,10.27-12,14.61-21.55,18.37-1.25-2.02-2.84-3.76-4.48-5.3,7.38-2.36,16.68-6.41,21.59-19.23h-30.27v-5.98h31.57ZM210.26,3.61v5.88h-27.86V3.61h27.86Z"/><path class="cls-1" d="M221.17,22.22v-5.88h40.97v5.88h-16.2c-.14,8.39-2.94,12.92-5.45,15.62-1.83,1.98-5.06,5.01-10.7,6.84-1.54-2.31-3.47-4.05-4.87-5.11,13.01-3.62,14.36-11.57,14.51-17.35h-18.27ZM255.54,3.71v5.93h-27.52V3.71h27.52Z"/><path class="cls-1" d="M287.63,43.91h-6.03v-17.64c-.67.39-7.04,4-11.04,5.4-.96-1.64-2.41-3.42-4.1-4.82,8.15-2.65,17.45-6.8,26.46-17.83l4.87,3.81c.19.14.34.34.34.58,0,.43-.34.48-.63.48s-.43-.05-.67-.1c-3.08,3.23-5.88,5.88-9.21,8.39v21.74Z"/><path class="cls-1" d="M307.33,10.94v-6.12h24.49c.77,0,2.55-.1,3.33-.38l3.28,3.52c-.96,1.25-1.49,2.36-1.83,3.08-2.02,4.72-3.13,7.28-6.22,12.29,3.66,2.75,11.23,9.3,15.04,13.93-1.69,1.83-4.39,4.82-4.96,5.5-2.6-3.62-6.6-8.87-13.69-14.36-3.33,4.19-11.13,11.57-19.28,15.04-1.49-2.6-2.31-3.71-4.58-5.64,2.89-1.01,9.93-3.62,17.06-11.28,5.21-5.54,7.04-10.07,9.11-15.57h-21.74Z"/><path class="cls-1" d="M354.14,10.94v-6.12h24.49c.77,0,2.55-.1,3.33-.38l3.28,3.52c-.96,1.25-1.49,2.36-1.83,3.08-2.02,4.72-3.13,7.28-6.22,12.29,3.66,2.75,11.23,9.3,15.04,13.93-1.69,1.83-4.39,4.82-4.96,5.5-2.6-3.62-6.6-8.87-13.69-14.36-3.33,4.19-11.13,11.57-19.28,15.04-1.49-2.6-2.31-3.71-4.58-5.64,2.89-1.01,9.93-3.62,17.06-11.28,5.21-5.54,7.04-10.07,9.11-15.57h-21.74Z"/><path class="cls-1" d="M411.35,18.41c2.46,1.4,5.11,2.94,8.44,5.3,2.55-4.15,3.62-7.18,4.15-8.82h-12.58c-.82,1.21-5.16,7.18-10.65,11.38-1.88-1.93-2.84-2.75-5.11-4.39,7.33-4.82,12.58-12.34,15.91-20.63l6.46,2.07c.58.19.87.29.87.58,0,.63-.87.63-1.16.67-.77,1.45-1.49,2.75-2.6,4.63h11.47c1.74,0,2.55-.24,3.23-.48l2.99,2.6c-.34.58-.67,1.25-1.01,2.02-3.52,8.48-4.19,10.17-6.89,14.27,3.04,2.6,4.05,4,4.82,5.01-1.4,1.64-3.42,4.48-4.05,5.45-1.21-1.59-2.51-3.28-4.67-5.35-6.8,7.42-14.32,10.56-18.51,12.24-.87-1.4-1.83-2.89-4.44-5.54,4.72-1.3,12.73-4.96,18.12-10.84-3.42-2.6-6.51-4.43-8.68-5.74l3.9-4.43Z"/><path class="cls-1" d="M441.86,12c3.76,1.45,9.83,5.01,11.71,6.56-1.74,1.83-3.47,4.53-4.05,5.5-4.53-3.81-9.83-5.98-11.38-6.6l3.71-5.45ZM440.95,38.22c15.52-5.3,27.81-15.95,34.46-26.12.53.96,1.54,2.84,4.24,5.5-7.28,10.89-21.69,21.74-33.69,26.17-.1.48-.24,1.16-.82,1.16-.34,0-.48-.24-.72-.67l-3.47-6.03ZM446.73,1.25c5.16,1.93,8.53,3.52,12.44,5.88-.96,1.06-3.13,4.19-3.9,5.35-3.71-2.65-7.91-4.68-12.1-6.22l3.57-5.01ZM468.66,3.66c1.49,1.06,4.15,3.28,5.45,4.63-.87.82-2.26,2.22-3.13,3.08-.53-.53-2.89-2.99-5.4-4.87l3.08-2.84ZM473.2,0c1.54,1.11,4.1,3.37,5.21,4.63-.48.34-1.11.77-2.94,2.7-1.74-1.78-3.38-3.33-5.25-4.72l2.99-2.6Z"/><path class="cls-1" d="M483.97,17.64v-6.17h22.08V1.73l6.8.43c.58.05.96.19.96.53,0,.43-.53.67-.96.87v7.91h10.51v6.17h-10.51v20.53c0,4.77-2.46,6.46-11.04,6.36-.67-3.38-.87-4.05-2.41-6.94.63.14,2.55.53,4.15.53,2.51,0,2.51-1.01,2.51-3.62v-10.7c-6.75,9.01-13.79,13.16-18.61,15.62-.34-.58-1.93-3.37-4.39-5.25,9.35-3.86,16.44-10.8,19.91-16.53h-18.99Z"/></g></svg>