<?xml version="1.0" encoding="UTF-8"?><svg id="_レイヤー_2" xmlns="http://www.w3.org/2000/svg" xmlns:xlink="http://www.w3.org/1999/xlink" viewBox="0 0 980 310.82"><defs><style>.cls-1{fill:url(#_新規グラデーションスウォッチ_1);}.cls-1,.cls-2,.cls-3,.cls-4,.cls-5,.cls-6{stroke-width:0px;}.cls-2{fill:#000;}.cls-3{fill:url(#_新規グラデーションスウォッチ_1-2);}.cls-4{fill:url(#_新規グラデーションスウォッチ_1-3);}.cls-5{fill:none;}.cls-6{fill:url(#_新規グラデーションスウォッチ_1-4);}.cls-7{opacity:.23;}.cls-8{clip-path:url(#clippath);}</style><clipPath id="clippath"><rect class="cls-5" width="980" height="310.82"/></clipPath><linearGradient id="_新規グラデーションスウォッチ_1" x1="-.03" y1="37.14" x2="979.97" y2="37.14" gradientTransform="translate(0 -2)" gradientUnits="userSpaceOnUse"><stop offset="0" stop-color="#f7b52c"/><stop offset="1" stop-color="#f7742c"/></linearGradient><linearGradient id="_新規グラデーションスウォッチ_1-2" y1="118.03" y2="118.03" xlink:href="#_新規グラデーションスウォッチ_1"/><linearGradient id="_新規グラデーションスウォッチ_1-3" x1="-.03" y1="197.68" x2="979.97" y2="197.68" xlink:href="#_新規グラデーションスウォッチ_1"/><linearGradient id="_新規グラデーションスウォッチ_1-4" y1="277.96" y2="277.96" xlink:href="#_新規グラデーションスウォッチ_1"/></defs><g id="_レイヤー_1-2"><g class="cls-8"><g class="cls-7"><rect class="cls-1" x="-.03" y=".14" width="980" height="70"/></g><path class="cls-2" d="M145.09,42.28v2.45h-20.64v-2.45h20.64ZM142.14,29.97v2.4h-14.74v-2.4h14.74Z"/><path class="cls-2" d="M165.27,44.01v2.09h-16.51v-2.09h9.19l1.51-8.38h-7.9v-2.14h10.66l-1.92,10.51h4.97Z"/><path class="cls-2" d="M188.03,36.06v2.59h-20.52v-2.59h20.52Z"/><path class="cls-2" d="M191.24,45.66v-2.28h14.64v-4.92h-13.95v-2.26h13.95v-4.8h-14.3v-2.3h16.87v17.57h-2.57v-1.01h-14.64Z"/><path class="cls-2" d="M233.26,36.06v2.59h-20.52v-2.59h20.52Z"/><path class="cls-2" d="M252.28,30.35c.77,0,1.2-.19,1.63-.36l1.39,1.27c-.38.6-.48.82-.77,1.46-2.02,4.63-3.34,7.66-6.55,10.94-2.98,3.05-5.93,4.3-7.13,4.8-.6-.74-.96-1.06-1.97-1.85,7.37-3,10.68-7.78,12.75-13.99h-7.49c-1.63,2.42-3.34,4.42-5.95,6.7-.98-.98-1.06-1.08-1.92-1.73,3.55-2.78,6.6-6.7,8.21-11.02l2.35,1.06c.12.05.34.14.34.36,0,.24-.36.31-.58.31-.24.5-.38.79-1.06,2.04h6.75Z"/><path class="cls-2" d="M257.09,36.01c.96-.41,1.37-.65,4.9-2.66-.86-1.7-1.75-3.29-2.71-4.51l2.62-1.03q.24-.1.34-.1c.14,0,.31.1.31.29s-.12.29-.19.38c.26.6,1.56,3.22,1.82,3.77,2.09-1.08,2.3-1.2,3.55-1.7-1.08-1.54-1.75-2.23-2.35-2.88l2.06-1.03c.46.46,1.32,1.3,2.59,3.07,1.63-.43,2.66-.43,3.17-.43,3.79,0,5.57,2.45,5.57,5.04,0,5.57-6.98,5.74-8.86,5.76-.29-.84-.5-1.58-1.01-2.4,5.45.26,7.42-1.39,7.42-3.41,0-1.51-1.1-2.76-3.07-2.76-.12,0-.74,0-1.87.24,1.06,1.73,1.42,2.54,1.7,3.1-.82.36-2.16.98-2.4,1.1-.36-.89-.77-1.87-1.68-3.46-1.92.74-3.55,1.66-3.84,1.8,3.34,7.15,4.34,11.64,4.56,12.62-.22.07-1.8.84-2.71,1.27-.74-5.86-3.67-12.05-3.98-12.65-1.94,1.22-2.93,1.87-4.39,3l-1.54-2.42Z"/><path class="cls-2" d="M295.69,38.99h-4.49v-4.68h9.7v4.68h-2.28c.12.31-.17.38-.67.53v.65h3.65v1.8h-3.65v1.51h4.42v1.92h-4.42v2.9h-2.26v-2.9h-6.05v-1.51h-3.05v4.42h-2.18v-4.42h-4.03v-1.94h4.03v-1.73h-3.07v-8.23h3.07v-1.51h-3.94v-1.94h3.94v-2.3l2.28.12c.19,0,.53.02.53.31,0,.26-.31.38-.62.5v1.37h3.5v1.94h-3.5v1.51h2.98v8.23h-2.98v1.73h3.67v1.54h.72v-3.31h4.7v-1.18ZM287.53,35.2v-1.56h-4.08v1.56h4.08ZM283.45,36.85v1.58h4.08v-1.58h-4.08ZM302.22,31.57v1.8h-11.95v-1.8h2.69c.22-.58.36-1.01.55-1.58h-2.3v-1.85h2.81c.19-.72.34-1.39.46-1.99l2.21.36c.31.05.62.12.62.36,0,.31-.38.38-.7.38-.12.5-.17.67-.24.89h4.15l-.24,3.43h1.94ZM295.69,41.97h-2.47v1.51h2.47v-1.51ZM298.69,35.89h-5.3v1.49h5.3v-1.49ZM298.14,31.57l.14-1.58h-2.5c-.12.38-.24.79-.53,1.58h2.88Z"/><path class="cls-2" d="M307.68,46.94v1.3h-2.47v-21.07h20.07v21.05h-2.45v-1.27h-15.14ZM322.82,44.7v-15.41h-15.14v15.41h15.14ZM316.32,35.68h4.37v1.92h-1.54c.41.46,1.15,1.34,1.82,2.45-.41.24-.79.53-1.2.82h2.09v1.99h-13.13v-1.99h5.14v-3.26h-4.06v-1.92h4.06v-2.69h-4.85v-1.97h12.6v1.97h-5.3v2.69ZM318.69,37.6h-2.38v3.26h2.59c-.17-.26-.82-1.32-1.63-2.26l1.42-1.01Z"/><path class="cls-2" d="M333.09,27.93c.34.12.53.19.53.41,0,.24-.29.26-.58.29-1.1,3.38-1.61,6.86-1.61,10.37,0,1.58.1,2.3.26,3.26.26-.79.96-2.57,1.39-3.34.19.29.5.84,1.34,1.39-.31.67-1.78,3.82-1.66,6.41l-2.26.65c-.65-1.75-1.49-4.32-1.49-8.9,0-4.2.58-6.96,1.51-11.5l2.54.96ZM339.35,39.04c-.29.58-.74,1.44-.74,2.45,0,1.49,1.73,1.78,4.27,1.78.79,0,3.36,0,5.93-.65-.1.46-.24,1.32-.22,2.64-1.58.24-4.01.36-5.64.36-2.93,0-6.7-.29-6.7-3.41,0-1.25.41-2.45.94-3.6l2.16.43ZM337.17,29.68c.65.05,1.37.12,2.59.12,2.83,0,5.14-.17,7.46-.77.07.48.24,2.11.29,2.45-2.54.5-5.16.7-7.78.7-1.18,0-1.94-.07-2.57-.1v-2.4Z"/><path class="cls-2" d="M359.38,29.99c.12.07.29.17.29.34,0,.38-.48.34-.82.31-1.27,1.82-2.59,3.67-3.98,5.33,1.56-.1,1.75-.12,2.71-.17-.17-.55-.31-1.01-.5-1.56l1.8-.55c.26.74.94,2.76,1.18,4.51-.62,0-1.39.29-1.97.48-.05-.48-.07-.74-.14-1.13l-1.44.17v10.58h-2.21v-10.37c-1.66.14-1.82.17-2.47.22-.07.22-.22.55-.5.55-.22,0-.26-.19-.29-.38l-.19-2.21c.48,0,.7,0,1.42-.02.6-.7,1.56-1.94,1.85-2.3-.31-.31-1.97-2.18-3.22-3.07l1.27-1.66c.26.19.36.26.82.65,1.39-2.26,1.78-3.19,1.97-3.67l2.06.94c.14.07.24.17.24.34,0,.34-.31.34-.74.34-1.01,1.75-1.49,2.59-2.14,3.46.62.65.74.82.96,1.06.31-.46,1.42-2.04,2.06-3.26l1.99,1.1ZM353.69,39.47c.19.02.43.05.43.26,0,.19-.19.34-.5.38-.05,1.25-.29,3.55-.77,5.09-.6-.22-1.27-.34-1.97-.38.55-1.94.77-3.62.84-5.66l1.97.31ZM359.02,39.18c-.02,1.56.53,3.74.77,4.58-.62.1-1.13.19-1.97.5-.41-1.56-.58-4.46-.58-4.87l1.78-.22ZM365.47,38.22c.22.02.58.05.58.34,0,.24-.24.34-.58.48-.24,3.1-.55,6.82-5.11,9.41-.48-.79-.82-1.15-1.73-1.8,4.15-2.26,4.7-4.37,4.66-8.62l2.18.19ZM372.94,28.36v2.04h-5.52v1.56h3.98v1.97h-10.49v-1.97h4.18v-1.56h-5.4v-2.04h5.4v-2.11l2.52.14c.1,0,.43.05.43.26,0,.26-.29.38-.62.5v1.2h5.52ZM372.77,40.12h-2.21v-3.24h-8.23v3.24h-2.18v-5.04h12.62v5.04ZM369.19,38.05c.24.02.53.12.53.36,0,.26-.26.36-.53.46v6.34c0,.5,0,.82.84.82s1.18-.36,1.27-2.71c.53.38,1.49.77,2.06.86-.19,2.71-.89,3.84-2.66,3.84h-1.49c-2.06,0-2.23-.98-2.23-1.97v-8.19l2.21.19Z"/><path class="cls-2" d="M385.35,26.44c.14,1.08.31,1.94.65,3.1,2.62-.7,4.1-1.58,4.78-1.97.31.72.36.84.91,2.04-.7.41-1.92,1.13-4.97,2.02.36.94.67,1.61.94,2.18.48-.14,3.24-.94,5.69-2.62.26.43.86,1.34,1.3,2.02-2.42,1.61-5.54,2.54-5.93,2.66,1.27,2.3,2.54,3.82,4.27,5.52l-1.51,1.58c-3.48-2.35-6.87-2.35-7.49-2.35-1.51,0-3.94.5-3.94,2.45,0,2.09,2.71,2.71,5.3,2.71.19,0,3.48,0,5.93-.94-.17.98-.22,1.51-.14,2.42-2.52.74-5.26.74-5.93.74-6.17,0-7.68-3.02-7.68-4.94,0-2.54,2.42-4.37,6.14-4.37,1.9,0,3.38.41,4.54.72-.48-.7-1.01-1.44-1.8-2.93-4.18.94-8.33,1.1-10.13,1.01l-.31-2.38c.48.02,1.15.07,2.09.07,2.76,0,5.16-.31,7.3-.79-.58-1.2-.77-1.73-.96-2.23-1.87.38-4.61.67-6.65.77l-.53-2.3c2.95.05,5.45-.38,6.41-.58-.5-1.44-.74-2.3-.98-3.14l2.71-.48Z"/><path class="cls-2" d="M414.39,35.7h-11.71v-1.92c-1.44,1.01-3.02,1.82-3.98,2.3-.48-.84-1.61-1.61-1.97-1.87,1.7-.7,7.25-3,10.58-8.21l2.66.46c.24.05.46.19.46.36s-.12.22-.6.43c1.85,2.62,7.71,5.57,9.89,6.22-.6.6-1.06,1.32-1.51,2.16-1.46-.5-3.43-1.66-3.82-1.87v1.94ZM400.37,40.24v-2.35h14.79l1.15,1.01c-1.42,3.67-3.7,6.96-6.48,9.72-.55-.46-1.51-1.08-2.5-1.34.67-.55,1.82-1.63,2.26-2.11.26-.31,2.35-2.64,3.14-4.92h-12.36ZM413.84,33.42c-2.98-1.73-4.94-3.79-5.62-4.56-1.85,2.02-3.02,3.05-5.06,4.56h10.68Z"/><path class="cls-2" d="M425.42,45.93v1.46h-2.64v-19.54h16.51v19.54h-2.64v-1.46h-11.23ZM436.65,35.51v-5.3h-11.23v5.3h11.23ZM436.65,43.48v-5.64h-11.23v5.64h11.23Z"/><path class="cls-2" d="M455.09,42.13h4.01v2.3h-4.01v3.89h-2.45v-3.89h-3.84v-2.3h3.84v-6.43c-2.57,5.26-5.81,8.38-7.92,10.2-.26-.36-.72-.96-2.33-1.8,5.83-4.18,8.74-9.67,9.31-10.87h-8.81v-2.16h9.75v-4.8l2.35.17c.29.02.62.05.62.34,0,.22-.22.34-.53.46v3.84h9.82v2.16h-8.93c1.9,3.62,4.94,7.42,9.38,10.56-.96.7-1.37,1.06-1.94,1.94-3.55-2.66-6.38-6.17-8.33-10.15v6.55Z"/><path class="cls-2" d="M487.89,29.99c-5.9-.05-11.57,5.26-11.57,9.79,0,1.46.67,4.97,7.27,5.57-.65,1.27-.91,2.09-1.13,2.76-3.77-.77-8.69-2.93-8.69-8.3,0-5.06,4.61-8.11,6.05-9.05-2.83.17-10.85,1.27-12.27,1.66l-.38-3.07c.46.02.84.05,1.37.05,1.25,0,11.91-.55,18.82-2.16l.53,2.76ZM483.84,34.24c.5.5,1.63,1.78,2.18,2.57-.55.36-1.1.94-1.3,1.15-.98-1.39-1.61-2.06-2.18-2.62l1.3-1.1ZM486.21,32.41c.74.62,1.78,1.85,2.28,2.54-.55.31-1.06.86-1.32,1.13-.82-1.18-1.27-1.75-2.21-2.69l1.25-.98Z"/><path class="cls-2" d="M501.57,27.18c.31.12.46.19.46.38,0,.24-.1.26-.77.38-.67,1.32-.91,1.9-1.44,3.1,2.74.29,4.44.22,5.18.17-.43,1.13-.65,2.26-.7,2.57-2.5.02-4.66-.24-5.33-.31-.5,1.37-.98,2.69-1.2,3.34,2.76.34,4.2.36,6.26.36-.34.89-.65,2.16-.7,2.4-3.26-.1-5.45-.38-6.22-.5-.12.5-.34,1.42-.34,2.69,0,2.95,2.21,3.82,4.7,3.82,3.34,0,5.45-1.51,5.45-4.27,0-1.58-.86-3.22-1.49-4.2,1.27-.36,1.99-.79,2.35-1.01,1.27,2.18,1.75,3.91,1.75,5.4,0,4.94-4.82,6.38-8.09,6.38-6.24,0-7.1-4.22-7.1-6.22,0-1.42.26-2.42.38-2.95-1.94-.36-3.19-.74-3.94-.98l.53-2.35c1.25.41,2.26.7,4.06,1.06.53-1.75.86-2.69,1.08-3.36-2.04-.41-3.12-.72-4.37-1.13l.5-2.47c1.78.62,2.98.94,4.7,1.25.26-.72,1.44-3.89,1.66-4.54l2.59,1.01Z"/><path class="cls-2" d="M521.55,30.42v1.94h-9.6v-1.94h9.6ZM520.69,40.14v7.87h-2.18v-1.13h-3.31v1.42h-2.4v-8.16h7.9ZM520.35,33.69v1.9h-7.22v-1.9h7.22ZM520.35,36.9v1.92h-7.22v-1.92h7.22ZM520.26,27.28v1.9h-7.1v-1.9h7.1ZM515.19,42.11v2.69h3.31v-2.69h-3.31ZM528.94,33.01h5.35v2.14h-5.35v3.41h4.18v9.75h-2.45v-1.49h-5.83v1.49h-2.45v-9.75h4.1v-3.41h-5.4v-2.14h5.4v-3.14c-.74.1-2.74.34-4.46.31-.05-.7-.41-1.63-.74-2.14,5.47.12,9.38-1.22,10.68-1.82l1.66,1.9c.07.07.14.19.14.31s-.07.24-.29.24c-.17,0-.34-.1-.55-.24-.74.24-2.28.74-3.98,1.06v3.53ZM530.67,44.68v-4.01h-5.83v4.01h5.83Z"/><path class="cls-2" d="M539.82,39.42c.26.02.43.17.43.36s-.22.26-.53.38c-.02.26-.1,1.42-.1,1.66.29.38.7.86,1.39,1.44v-5.38h-4.95v-1.9h10.97v1.9h-3.84v2.23h3.34v1.94h-3.34v2.59c1.82.82,3.46,1.06,7.73,1.06,3.53,0,5.54-.14,7.54-.31-.53.79-.77,1.97-.82,2.5-9.89,0-10.99,0-12.7-.34-2.83-.55-4.68-2.04-5.76-3.19-.67,2.71-1.15,3.5-1.44,3.96-1.25-.58-1.58-.7-2.26-.84.7-1.13,2.28-3.65,2.02-8.33l2.3.26ZM545.94,26.92v8.04h-8.69v-8.04h8.69ZM543.68,30.04v-1.37h-4.15v1.37h4.15ZM539.53,31.72v1.49h4.15v-1.49h-4.15ZM557.12,30.45v10.66h-7.01l1.66,1.25c.14.1.24.19.24.34,0,.22-.19.31-.41.31-.14,0-.26-.02-.43-.05-1.44,1.3-1.85,1.7-3.17,2.59-.55-.62-1.1-1.08-1.82-1.44.67-.38,2.35-1.42,3.82-3h-2.16v-10.66h2.04c.24-.5.53-1.25.67-1.66h-3.7v-1.9h11.16v1.9h-5.14c-.46,1.13-.5,1.27-.7,1.66h4.94ZM554.89,33.52v-1.32h-4.85v1.32h4.85ZM550.04,35.05v1.37h4.85v-1.37h-4.85ZM550.04,37.93v1.42h4.85v-1.42h-4.85ZM554.27,41.1c2.23,1.94,3.38,2.45,4.01,2.69-.5.46-.96.96-1.37,1.68-1.34-.7-2.95-1.97-4.01-3.1l1.37-1.27Z"/><path class="cls-2" d="M570.47,45.11c7.15-1.49,7.63-6.84,7.63-8.23,0-3.6-2.64-6.75-6.87-6.77-.26,2.76-.79,6.72-2.64,10.97-1.3,2.95-2.54,4.46-3.91,4.46-1.8,0-4.73-2.88-4.73-6.94,0-5.04,4.51-10.75,11.11-10.75,5.06,0,9.5,3.38,9.5,9,0,3.12-1.37,5.54-2.81,7.1-1.9,2.04-4.2,2.86-5.66,3.36-.67-1.13-1.15-1.68-1.63-2.21ZM562.33,38.44c0,2.4,1.27,4.18,2.21,4.18s1.61-1.82,2.23-3.38c1.13-2.9,1.73-5.62,1.82-8.71-3.79.96-6.26,4.87-6.26,7.92Z"/><path class="cls-2" d="M588.3,35.8c1.49,1.08,3.24,2.64,4.1,3.53,3.91-3.31,5.71-5.81,6.5-6.91h-16.03v-2.35h17.38c.12,0,.7-.02,1.51-.34l1.56,1.87c-.7.58-.94.86-1.15,1.13-2.62,3.17-4.54,5.33-8.09,8.4,2.04,2.21,2.59,3.1,2.98,3.72-1.1.89-1.51,1.2-2.11,1.9-2.47-4.51-6.75-7.94-8.33-9.14l1.68-1.8Z"/><path class="cls-2" d="M607,32.15c1.54.6,4.61,2.14,6.1,3.26-.82.84-1.42,1.87-1.56,2.14-2.38-1.87-5.23-3.02-5.95-3.31l1.42-2.09ZM607.05,45.33c6.89-2.35,13.3-6.91,17.47-13.34.62.98.89,1.3,1.66,2.09-5.14,7.66-13.35,11.95-17.11,13.35-.02.22-.1.58-.38.58-.14,0-.26-.14-.36-.34l-1.27-2.33ZM609.52,26.7c3.19,1.18,5.02,2.18,6.41,3.07-.48.53-1.18,1.54-1.54,2.11-2.23-1.61-4.42-2.54-6.29-3.24l1.42-1.94Z"/><path class="cls-2" d="M628.71,27.42c1.75.86,4.22,2.21,6.67,4.39-.31.36-.74.89-1.56,2.16-3.17-2.81-5.57-3.91-6.62-4.39l1.51-2.16ZM627.39,44.63c4.61-.98,12.77-4.13,18.22-13.1.77,1.18.82,1.3,1.61,2.21-4.68,7.37-11.23,10.97-17.57,13.23,0,.26-.1.53-.34.53-.19,0-.31-.17-.38-.29l-1.54-2.57Z"/><path class="cls-2" d="M653.51,41.82c0,2.54.46,2.78,4.94,2.78,3.14,0,6.31-.05,9.46-.43-.19.79-.22.96-.36,2.59-1.42-.02-7.68.12-8.95.12-5.28,0-7.68-.1-7.68-4.58v-15.41l2.71.17c.22.02.46.05.46.29s-.24.34-.58.48v7.49c3.86-.53,9.24-2.74,11.64-4.7l2.14,1.75c.1.07.19.17.19.29,0,.19-.22.26-.53.26-.12,0-.26,0-.43-.05-3.05,1.99-8.47,4.13-13.01,4.78v4.18ZM670.43,28.43c0,1.2-.96,2.18-2.18,2.18s-2.16-.96-2.16-2.18.98-2.18,2.16-2.18,2.18.96,2.18,2.18ZM667.07,28.43c0,.67.53,1.2,1.18,1.2s1.2-.53,1.2-1.2-.53-1.18-1.2-1.18-1.18.53-1.18,1.18Z"/><path class="cls-2" d="M687.21,33.49c1.06,0,1.61-.1,2.04-.22l1.63,1.13c-.31.5-1.46,2.88-1.7,3.36-3,5.9-5.78,8.3-11.86,10.49-.62-.89-.89-1.18-1.75-2.06,4.58-1.3,9.05-3.48,11.64-10.37h-15.91v-2.33h15.91ZM688,27.78v2.28h-13.8v-2.28h13.8Z"/><path class="cls-2" d="M693.76,36.52v-2.28h20.21v2.28h-8.33c-.1,4.46-1.44,6.67-2.71,7.99-.77.82-2.42,2.4-5.47,3.38-.29-.43-.77-1.1-1.85-2.02,6.96-1.94,7.44-6.19,7.51-9.36h-9.36ZM710.7,27.85v2.28h-13.56v-2.28h13.56Z"/><path class="cls-2" d="M726.47,47.61h-2.3v-9.36c-.86.53-3.94,2.26-6.29,3.05-.41-.67-.96-1.32-1.61-1.87,5.14-1.66,9.53-4.08,13.56-9.12l1.94,1.49c.1.07.17.19.17.31,0,.22-.26.26-.65.19-1.97,2.06-3.17,3.12-4.83,4.37v10.94Z"/><path class="cls-2" d="M736.83,30.69v-2.35h12.12c.38,0,1.25-.05,1.63-.17l1.37,1.34c-.41.5-.65.96-.91,1.56-1.03,2.47-1.7,4.01-3.24,6.41,2.04,1.46,5.57,4.44,7.9,7.39-1.01,1.01-1.13,1.1-1.94,2.09-1.32-1.87-3.38-4.66-7.3-7.56-3.55,4.46-7.63,6.84-10.08,7.87-.53-1.01-.84-1.46-1.66-2.18,3.79-1.37,6.62-3.43,9.31-6.62,2.33-2.78,3.34-5.21,4.2-7.78h-11.4Z"/><path class="cls-2" d="M760.31,30.69v-2.35h12.12c.38,0,1.25-.05,1.63-.17l1.37,1.34c-.41.5-.65.96-.91,1.56-1.03,2.47-1.7,4.01-3.24,6.41,2.04,1.46,5.57,4.44,7.9,7.39-1.01,1.01-1.13,1.1-1.94,2.09-1.32-1.87-3.38-4.66-7.3-7.56-3.55,4.46-7.63,6.84-10.08,7.87-.53-1.01-.84-1.46-1.66-2.18,3.79-1.37,6.62-3.43,9.31-6.62,2.33-2.78,3.34-5.21,4.2-7.78h-11.4Z"/><path class="cls-2" d="M788.74,35.03c2.33,1.34,3.67,2.28,4.7,3.07,1.42-2.09,2.18-4.51,2.45-5.33h-6.98c-.17.22-2.45,3.6-5.62,6-.53-.62-.98-1.06-1.97-1.78,4.06-2.62,6.62-6.77,8.04-10.54l2.54.79c.26.07.41.14.41.31,0,.29-.43.31-.55.31-.46.86-.96,1.82-1.46,2.66h6.29c.84,0,1.22-.12,1.58-.24l1.2,1.06c-.17.31-.31.6-.48,1.01-1.87,4.61-2.21,5.42-3.5,7.27,1.61,1.37,2.23,2.14,2.78,2.86-.77.84-1.42,1.78-1.63,2.11-.41-.58-1.1-1.49-2.66-3-3.6,4.01-8.06,5.78-9.72,6.46-.5-.82-.6-.96-1.68-2.21,2.93-.82,6.98-2.93,9.53-5.86-2.33-1.8-3.96-2.76-4.8-3.24l1.54-1.73Z"/><path class="cls-2" d="M804.05,32.15c1.54.6,4.61,2.14,6.1,3.26-.82.84-1.42,1.87-1.56,2.14-2.38-1.87-5.23-3.02-5.95-3.31l1.42-2.09ZM804.1,45.33c6.89-2.35,13.3-6.91,17.47-13.34.62.98.89,1.3,1.66,2.09-5.14,7.66-13.35,11.95-17.11,13.35-.02.22-.1.58-.38.58-.14,0-.24-.12-.36-.34l-1.27-2.33ZM806.57,26.7c3.19,1.18,5.02,2.18,6.41,3.07-.48.53-1.18,1.54-1.54,2.11-2.23-1.61-4.42-2.54-6.29-3.24l1.42-1.94ZM818.07,27.4c.6.43,1.85,1.44,2.67,2.26-.36.31-.89.86-1.27,1.27-.24-.26-1.37-1.44-2.66-2.38l1.27-1.15ZM820.13,25.67c.74.53,1.97,1.61,2.62,2.3-.53.34-1.1.98-1.25,1.15-.5-.55-1.42-1.51-2.62-2.4l1.25-1.06Z"/><path class="cls-2" d="M825.75,34.19v-2.38h11.3v-5.14l2.59.19c.31.02.48.05.48.26s-.29.34-.48.43v4.25h5.54v2.38h-5.54v10.63c0,1.63-.55,2.3-1.61,2.69-.79.29-2.5.48-3.98.38-.34-1.42-.36-1.58-.96-2.71.74.14,1.7.26,2.45.26,1.51,0,1.51-.48,1.51-2.26v-6.65c-3.96,5.59-8.67,7.87-10.18,8.62-.7-1.25-1.32-1.78-1.68-2.06,4.71-1.85,8.64-5.66,10.61-8.9h-10.06Z"/><path class="cls-2" d="M855.49,46.48h-3.07v-3.22h3.07v3.22ZM855.4,33.64l-.6,7.1h-1.68l-.6-7.1v-6.07h2.88v6.07Z"/><g class="cls-7"><rect class="cls-3" x="-.03" y="81.03" width="980" height="70"/></g><path class="cls-2" d="M216.72,110.24c.14.07.29.24.29.36,0,.26-.22.34-.72.31-1.7,3.26-3.43,5.45-5.47,7.39-.86-.77-1.49-1.13-2.21-1.46,2.09-1.85,4.46-4.78,5.76-7.7l2.35,1.1ZM227.57,117.47c.14.07.22.17.22.34,0,.29-.36.31-.74.26-2.02,3.46-6.05,9.38-16.13,10.42-.17-.58-.62-1.58-1.42-2.38,8.79-.74,12.99-4.2,15.58-10.01l2.5,1.37ZM221.14,106.76c.31.02.55.1.55.34,0,.22-.22.31-.55.46v10.01c0,1.78-.34,3.07-5.04,2.98-.22-1.13-.55-1.92-1.06-2.83.89.12,1.75.22,2.26.22.77,0,1.22-.1,1.22-1.03v-10.27l2.62.14ZM225.24,108.95c2.04,1.9,4.1,4.58,5.57,6.98-1.34.91-1.54,1.03-2.11,1.44-1.39-2.23-3.5-4.99-5.4-7.01l1.94-1.42Z"/><path class="cls-2" d="M240.53,106.79c.24.02.62.1.62.36,0,.17-.14.22-.62.43-.07,4.49.1,6.84.67,8.86,1.32,4.63,4.75,7.87,9.17,9.89-.91.74-1.32,1.22-1.85,2.21-2.28-1.15-3.84-2.38-5.62-4.25-2.06-2.21-2.9-4.03-3.6-6-.86,2.42-1.61,3.96-3.6,6.07-1.97,2.06-3.62,3.14-5.64,4.15-.74-1.01-1.15-1.44-2.09-2.11,4.78-2.14,7.75-4.92,8.98-9.14.91-3.14.91-4.9.91-10.66l2.66.19Z"/><path class="cls-2" d="M258.8,117.49c.41.19.41.29.41.38,0,.31-.48.24-.7.19-.12.24-.22.43-.31.62h5.33v2.02h-.96s.12.14.12.24c0,.29-.58.26-.72.26-.17.48-.58,1.71-1.73,3.24.29.19,1.42.98,2.09,1.78-.72.74-1.25,1.54-1.46,1.85-.46-.46-1.13-1.13-2.21-1.97-.34.29-2.04,1.78-4.75,2.59-.38-.91-1.13-1.61-1.37-1.85,2.42-.53,3.94-1.68,4.39-2.02-.19-.12-.98-.65-2.02-1.22-.22.29-.5.67-.65.84-.72-.53-1.22-.77-1.92-.96.36-.41.89-1.08,2.09-2.78h-2.66v-2.02h3.94c.36-.6.62-1.1.94-1.75h-.05v-2.88c-1.03,1.46-2.11,2.62-3.5,3.65-.36-.46-1.03-1.08-1.7-1.42,1.61-.96,2.86-2.09,4.1-3.6h-3.74v-1.94h4.9v-4.25l2.26.17c.19.02.48.12.48.31,0,.17-.07.19-.6.41v3.36h2.35c-.53-.43-1.27-.74-1.63-.89.86-1.22,1.32-2.09,1.78-3.12l2.02.82c.12.05.22.17.22.29,0,.29-.38.36-.65.36-.48.89-.98,1.75-1.61,2.54h2.18v1.94h-3.72c1.22,1.39,2.64,2.45,3,2.71-.55.43-1.15,1.03-1.56,1.46-.94-.84-1.61-1.63-2.38-2.71v2.79h-1.13l1.15.55ZM253.95,106.69c.62.72,1.66,2.5,1.87,3.07-.48.17-1.51.65-1.94.94-.29-.6-1.22-2.3-1.73-3l1.8-1.01ZM257,120.71c-.22.31-.41.6-.84,1.25,1.3.7,1.9,1.06,2.35,1.32.29-.38.94-1.25,1.42-2.57h-2.93ZM268.02,107c.38.05.43.19.43.34,0,.29-.38.38-.62.43-.12,1.18-.26,1.94-.5,3.19h6.5v2.28h-1.3c-.24,4.06-1.42,7.51-2.57,9.46,1.58,2.3,3.19,3.43,4.13,4.06-.62.58-1.13,1.15-1.68,1.9-1.03-.77-2.47-2.02-3.86-3.89-1.56,1.9-3.1,3.02-4.56,3.94-.62-.89-.91-1.22-1.78-1.8.77-.36,2.74-1.32,5.02-4.2-1.22-2.23-1.68-4.06-1.99-5.81-.58,1.1-.84,1.42-1.2,1.85-.74-.74-1.58-1.08-1.92-1.2,2.76-3.67,3.36-8.38,3.53-10.87l2.38.34ZM266.72,113.24c.26,3.05,1.06,5.38,1.92,7.15,1.32-2.88,1.54-6.31,1.58-7.15h-3.5Z"/><path class="cls-2" d="M284.58,126.76h-3v-13.15h-4.03v-2.23c2.26-.12,3.91-.5,4.63-3.53h2.4v18.91Z"/><path class="cls-2" d="M304.09,110.39c1.56,2.5,1.73,5.4,1.73,6.91,0,1.34-.14,4.44-1.73,6.91-1.68,2.62-4.46,3.07-6.22,3.07-3.31,0-5.26-1.51-6.24-3.07-1.54-2.45-1.7-5.35-1.7-6.91,0-1.75.24-4.58,1.7-6.91,1.34-2.14,3.67-3.07,6.24-3.07s4.92,1.01,6.22,3.07ZM293,117.3c0,2.02.29,7.44,4.87,7.44s4.87-5.42,4.87-7.44c0-2.38-.46-7.44-4.87-7.44s-4.87,5.18-4.87,7.44Z"/><path class="cls-2" d="M318.65,106.79c.24.02.62.1.62.36,0,.17-.14.22-.62.43-.07,4.49.1,6.84.67,8.86,1.32,4.63,4.75,7.87,9.17,9.89-.91.74-1.32,1.22-1.85,2.21-2.28-1.15-3.84-2.38-5.62-4.25-2.06-2.21-2.9-4.03-3.6-6-.86,2.42-1.61,3.96-3.6,6.07-1.97,2.06-3.62,3.14-5.64,4.15-.74-1.01-1.15-1.44-2.09-2.11,4.78-2.14,7.75-4.92,8.98-9.14.91-3.14.91-4.9.91-10.66l2.66.19Z"/><path class="cls-2" d="M335.42,109.69v-2.98l2.33.12c.14,0,.55.02.55.29s-.34.38-.58.46v2.11h4.63v2.26h-4.63v2.3h5.3v2.26h-5.3v1.78h4.44v6.72c0,2.04-1.78,2.06-3.1,2.09-.17-1.22-.86-2.16-1.08-2.45.82.12.91.14,1.2.14.67,0,.7-.36.7-.96v-3.26h-2.16v8.09h-2.3v-8.09h-2.02v6.72h-2.4v-9h4.42v-1.78h-5.69v-2.26h5.69v-2.3h-2.93c-.41.82-.6,1.18-.84,1.66-.6-.31-1.56-.7-2.18-.79.94-1.27,2.04-3.79,2.35-5.33l2.21.48c.17.05.46.1.46.36,0,.24-.41.34-.67.36-.07.26-.12.41-.34,1.01h1.94ZM346.37,109.5c.19.02.58.05.58.31,0,.19-.29.34-.58.43v13.23h-2.45v-14.16l2.45.19ZM350.93,106.74c.22,0,.6.02.6.31,0,.24-.34.38-.6.48v17.83c0,2.28-.53,3.43-4.61,3.31-.07-.5-.19-1.15-.96-2.52,1.15.14,1.34.14,1.87.14,1.06,0,1.25-.26,1.25-1.37v-18.31l2.45.12Z"/><path class="cls-2" d="M357.47,129.97c-.55-.82-.98-1.42-1.39-2.38-1.34-3.17-1.9-6.05-1.9-8.69,0-2.42.34-4.32,1.22-6.91.77-2.28,1.2-2.9,2.06-4.15h2.26c-.89,1.61-2.83,5.18-2.83,11.07,0,2.81.36,6.58,2.83,11.06h-2.26Z"/><path class="cls-2" d="M369.65,126.76h-3v-13.15h-4.03v-2.23c2.26-.12,3.91-.5,4.63-3.53h2.4v18.91Z"/><path class="cls-2" d="M386.81,106.79c.24.02.62.1.62.36,0,.17-.14.22-.62.43-.07,4.49.1,6.84.67,8.86,1.32,4.63,4.75,7.87,9.17,9.89-.91.74-1.32,1.22-1.85,2.21-2.28-1.15-3.84-2.38-5.62-4.25-2.06-2.21-2.9-4.03-3.6-6-.86,2.42-1.61,3.96-3.6,6.07-1.97,2.06-3.62,3.14-5.64,4.15-.74-1.01-1.15-1.44-2.09-2.11,4.78-2.14,7.75-4.92,8.98-9.14.91-3.14.91-4.9.91-10.66l2.66.19Z"/><path class="cls-2" d="M405.26,126.76h-3v-13.15h-4.03v-2.23c2.26-.12,3.91-.5,4.63-3.53h2.4v18.91Z"/><path class="cls-2" d="M425.54,108.44c2.64,2.14,5.42,5.38,6.82,7.63-1.3.77-1.54.89-2.26,1.49-.55-.96-.67-1.13-1.58-2.42-3.58.34-4.49.43-8.35.74-1.39.12-7.63.6-8.91.72-.05.26-.12.58-.43.58-.22,0-.31-.19-.38-.5l-.55-2.62c.7-.02,2.11-.05,3.53-.12.62-.86,2.52-3.58,4.37-7.61l2.64.7c.22.05.38.19.38.34,0,.17-.36.31-.74.38-1.15,2.09-2.38,4.1-3.7,6.07,5.23-.26,5.79-.31,10.58-.65-.34-.36-1.42-1.58-3.29-3.14l1.87-1.58ZM415.58,127.24v1.34h-2.64v-10.42h16.15v10.39h-2.66v-1.32h-10.85ZM426.43,124.91v-4.42h-10.85v4.42h10.85Z"/><path class="cls-2" d="M432.83,129.97c2.47-4.49,2.83-8.26,2.83-11.06,0-5.88-1.94-9.46-2.83-11.07h2.23c.89,1.25,1.32,1.87,2.09,4.15.86,2.59,1.22,4.49,1.22,6.91,0,2.64-.55,5.52-1.9,8.69-.41.96-.84,1.56-1.42,2.38h-2.23Z"/><path class="cls-2" d="M447.2,107.31l2.54.12c.24,0,.48.02.48.26s-.31.36-.48.41v5.59l8.45-1.1c1.06-.14,1.46-.34,1.73-.46l1.68,1.54c-.26.24-.58.58-1.06,1.22-2.66,3.58-3.07,4.13-5.16,6.46-.67-.6-1.13-.91-2.16-1.39,1.71-1.39,3.38-3.43,4.34-4.92l-7.82,1.06v6.07c0,2.42.29,2.88,3.5,2.88,1.87,0,5.54-.1,7.32-.41-.17.84-.26,1.58-.29,2.66-1.13.02-5.23.07-7.73.07-4.58,0-5.35-1.46-5.35-4.8v-6.12l-5.9.79-.22-2.4,6.12-.79v-6.74Z"/><path class="cls-2" d="M464.92,120.71c6.48,1.1,11.93,3.31,15.1,5.28-.17.43-.72,1.87-.84,2.47-2.83-1.8-7.63-4.13-14.81-5.4l.55-2.35ZM465.69,106.91c4.44.53,8.83,1.51,12.84,3.46-.24.77-.43,1.87-.5,2.59-3.41-1.99-8.86-3.19-12.65-3.7l.31-2.35ZM466.94,113.89c3.38.46,7.58,1.66,10.49,3.34-.12.36-.34,1.03-.53,2.52-3.22-1.94-6.91-3.1-10.44-3.58l.48-2.28Z"/><path class="cls-2" d="M492.25,110.1c.31.07.46.14.46.34,0,.1-.07.29-.53.38-1.03,5.74-3.05,11.38-6.82,15.53-.74-.58-2.06-1.1-2.38-1.22,4.08-4.32,5.93-9.7,6.72-15.63l2.54.6ZM498.32,109.02c4.25,5.47,6.31,10.63,7.46,15.38-.79.36-1.78.91-2.5,1.42-.43-2.11-1.87-9.05-6.98-15.31l2.02-1.49ZM505.49,109.47c0,1.2-.96,2.18-2.18,2.18s-2.16-.98-2.16-2.18.96-2.18,2.16-2.18,2.18.98,2.18,2.18ZM502.13,109.47c0,.65.53,1.2,1.18,1.2s1.2-.55,1.2-1.2-.53-1.18-1.2-1.18-1.18.53-1.18,1.18Z"/><path class="cls-2" d="M527.92,116.34v2.59h-20.52v-2.59h20.52Z"/><path class="cls-2" d="M531.39,109.31c1.2,1.44,2.78,3.96,3.58,5.93-1.01.48-1.78,1.06-2.21,1.39-.86-1.99-2.11-4.2-3.5-5.95l2.14-1.37ZM547.93,108.37c.22.05.5.12.5.31,0,.24-.26.31-.5.31-1.44,8.81-3.72,14.4-13.42,18.75-.58-1.01-1.32-1.73-1.73-2.11,5.71-2.28,11.83-5.86,12.46-17.74l2.69.48Z"/><path class="cls-2" d="M560.85,107.1l2.64.1c.24,0,.5.02.5.29s-.36.41-.5.46v4.78h8.02v2.33h-8.04c-.14,7.94-4.68,11.38-8.54,13.25-.46-.65-1.15-1.42-1.94-1.94,7.2-2.9,7.8-8.02,7.87-11.3h-9.89v-2.33h9.89v-5.62Z"/><path class="cls-2" d="M578.92,108.56c.24.02.55.02.55.31,0,.24-.26.38-.46.46v5.9c0,4.85-1.37,8.04-6,11.28-.48-.62-.82-.96-2.06-1.78,4.78-2.81,5.42-5.76,5.42-9.29v-7.03l2.54.14ZM584.69,108.32c.26.02.48.02.48.29,0,.22-.24.31-.48.43v13.71c2.98-1.75,5.86-4.54,7.66-7.22.65,1.39.72,1.54,1.32,2.23-2.81,3.91-6.79,6.7-8.5,7.9-.82.58-.91.62-1.34,1.06l-1.8-1.2c.05-.48.1-1.2.1-1.87v-15.43l2.57.12Z"/><path class="cls-2" d="M599.97,107.89c.31.02.5.02.5.24,0,.29-.36.43-.5.5v15.55c4.56-1.54,10.51-5.35,13.73-9.67.58,1.44.62,1.54,1.25,2.57-2.14,2.28-5.33,5.42-11.28,8.33-.74.36-4.01,1.87-4.66,2.21l-1.78-1.78c.07-.31.12-1.1.12-1.42v-16.66l2.62.12Z"/><path class="cls-2" d="M619.68,112.91c.94,1.44,1.78,3.22,2.35,4.78-.67.22-1.37.53-2.04.94-.77-2.09-1.22-2.98-2.33-4.85l2.02-.86ZM634.03,112.74c.24.07.43.14.43.34,0,.26-.34.34-.46.36-1.78,7.01-4.7,11.28-11.88,14.19-.5-.77-.86-1.2-1.46-1.82,3.53-1.27,9.75-3.98,11.14-13.75l2.23.7ZM624.88,111.68c.98,1.61,1.66,3.1,2.18,4.87-.31.1-1.25.38-2.04.82-.53-1.61-1.15-3.1-2.21-4.85l2.06-.84Z"/><path class="cls-2" d="M636.65,110.96v-2.35h12.12c.38,0,1.25-.05,1.63-.17l1.37,1.34c-.41.5-.65.96-.91,1.56-1.03,2.47-1.7,4.01-3.24,6.41,2.04,1.46,5.57,4.44,7.9,7.39-1.01,1.01-1.13,1.1-1.94,2.09-1.32-1.87-3.38-4.66-7.3-7.56-3.55,4.46-7.63,6.84-10.08,7.87-.53-1.01-.84-1.46-1.66-2.18,3.79-1.37,6.62-3.43,9.31-6.62,2.33-2.78,3.34-5.21,4.2-7.78h-11.4Z"/><path class="cls-2" d="M659.99,107.7c1.75.86,4.22,2.21,6.67,4.39-.31.36-.74.89-1.56,2.16-3.17-2.81-5.57-3.91-6.62-4.39l1.51-2.16ZM658.67,124.91c4.61-.98,12.77-4.13,18.22-13.1.77,1.18.82,1.3,1.61,2.21-4.68,7.37-11.23,10.97-17.57,13.23,0,.26-.1.53-.34.53-.19,0-.31-.17-.38-.29l-1.54-2.57Z"/><path class="cls-2" d="M701.07,110.27c-5.9-.05-11.57,5.26-11.57,9.79,0,1.46.67,4.97,7.27,5.57-.65,1.27-.91,2.09-1.13,2.76-3.77-.77-8.69-2.93-8.69-8.3,0-5.06,4.61-8.11,6.05-9.05-2.83.17-10.85,1.27-12.27,1.66l-.38-3.07c.46.02.84.05,1.37.05,1.25,0,11.91-.55,18.82-2.16l.53,2.76ZM697.01,114.51c.5.5,1.63,1.78,2.18,2.57-.55.36-1.1.94-1.3,1.15-.98-1.39-1.61-2.06-2.18-2.62l1.3-1.1ZM699.39,112.69c.74.62,1.78,1.85,2.28,2.54-.55.31-1.06.86-1.32,1.13-.82-1.18-1.27-1.75-2.21-2.69l1.25-.98Z"/><path class="cls-2" d="M709,118.83c-.41.34-2.88,2.38-2.88,3.89,0,.84.53,1.22.72,1.32,1.61.91,4.9.91,5.59.91,4.92,0,7.85-.84,8.98-1.15.24,1.27.31,1.75.58,2.62-3.62.89-8.76.94-9.46.94-5.57,0-8.95-1.13-8.95-4.42,0-.94.19-2.64,3.65-5.54l1.78,1.44ZM718.91,110.55c-1.75.86-4.97,3.17-6.48,4.78-.31-.34-1.34-1.3-1.66-1.56,1.13-.98,2.23-1.94,3.43-2.83-.96.07-3.53.26-6.1.26-1.66,0-2.33-.07-2.9-.14l-.19-2.59c.82.12,2.64.41,5.4.41.62,0,3.74,0,7.18-.58l1.32,2.26ZM720.16,108.01c.5.46,1.58,1.56,2.28,2.52-.55.46-.72.62-1.15,1.18-.91-1.2-1.58-1.9-2.33-2.59l1.2-1.1ZM721.93,106.09c.94.82,1.75,1.75,2.35,2.45-.48.34-.89.7-1.25,1.2-.84-1.13-1.22-1.63-2.21-2.57l1.1-1.08Z"/><path class="cls-2" d="M733.15,110.75v2.23h-2.57v3.72c.1-.02,1.39-.5,2.45-.96-.07.58-.14,1.15-.14,1.54,0,.31.02.46.07.67-.53.29-.77.41-2.38,1.03v6.77c0,1.87,0,2.93-3.53,2.93-.22,0-.34-.02-.58-.05-.12-1.18-.43-1.9-.65-2.4.34.07.79.14,1.49.14,1.01,0,1.01-.17,1.01-1.39v-5.14c-.5.17-.67.22-2.26.74-.07.29-.17.65-.5.65-.19,0-.26-.14-.29-.34l-.41-2.57c.55-.1,1.13-.22,3.46-.89v-4.46h-3.24v-2.23h3.24v-4.25l2.47.17c.19.02.38.05.38.29,0,.29-.31.38-.6.48v3.31h2.57ZM736.6,120.13c.19.05.38.1.38.31,0,.29-.31.36-.6.43-.07.31-.31,1.54-.36,1.7.6,1.15,1.51,2.14,2.59,2.76v-6.82h-4.99v-2.18h13.23v2.18h-5.93v1.99h4.68v2.11h-4.68v3.41c.7.07,1.34.1,2.06.1,1.85,0,3.34-.26,4.01-.38-.41.96-.53,1.44-.6,2.47-.67.05-1.51.12-3.17.12-2.81,0-5.71,0-7.99-3.43-1.13,2.64-1.99,3.46-2.35,3.82-.43-.46-.89-.84-1.99-1.15.7-.82,2.95-3.38,3.34-7.99l2.38.55ZM745.63,107.19v8.06h-11.23v-8.06h11.23ZM743.3,110.31v-1.37h-6.46v1.37h6.46ZM736.85,111.99v1.49h6.46v-1.49h-6.46Z"/><path class="cls-2" d="M754.7,128.58h-2.52v-12.53c-.84,1.25-1.46,1.97-1.9,2.5-.43-.72-.98-1.32-1.78-1.73,3.1-3.17,5.18-8.09,5.78-10.37l2.28.74c.24.07.41.24.41.41,0,.24-.22.31-.62.34-.84,2.06-1.32,3.12-2.09,4.61.62.17.98.31.98.48,0,.1-.05.19-.14.24-.12.07-.26.14-.41.22v15.1ZM762.02,122.72c.26.14.41.26.41.38,0,.26-.36.34-.7.31-1.66,2.66-3.62,4.44-4.56,5.18-.43-.53-1.37-1.27-2.16-1.51,2.16-1.3,4.13-3.5,4.99-5.47l2.02,1.1ZM765.11,111.2v-4.51l2.45.1c.36.02.65.07.65.31,0,.1-.07.24-.19.29-.14.07-.26.14-.46.22v3.6h3.1v2.35h-3.1v5.16h3.77v2.35h-15.7v-2.35h3.34v-5.16h-2.86v-2.35h2.86v-4.51l2.5.19c.17.02.58.05.58.31,0,.12-.12.19-.19.24-.14.1-.26.14-.41.19v3.58h3.67ZM761.44,113.55v5.16h3.67v-5.16h-3.67ZM766.24,121.38c1.85,2.76,4.01,4.51,5.09,5.3-.72.48-1.44,1.08-1.99,1.85-1.46-1.32-3.22-2.93-5.09-5.88l1.99-1.27Z"/><g class="cls-7"><rect class="cls-4" x="-.03" y="160.68" width="980" height="70"/></g><path class="cls-2" d="M318.17,200.31v2.09h-8.26c2.76,2.95,6.05,3.84,9.19,4.34-.62.62-1.2,1.39-1.44,2.28-6.72-1.42-9.05-4.63-9.96-5.88-2.02,3.6-6.22,5.4-9.5,5.95-.34-1.01-.67-1.46-1.46-2.3,2.81-.41,6.65-1.42,8.62-4.39h-7.9v-2.09h8.81c.14-.58.22-1.06.26-1.66h-9.67v-2.04h9.72v-1.66h-6.77v-1.87h6.77v-1.54h-9.12v-2.02h5.57c-.7-1.01-1.3-1.61-1.66-1.99l2.28-1.08c.38.38,1.3,1.32,2.16,2.64-.79.19-1.08.29-1.44.43h5.38c.12-.17.98-1.61,1.56-3.05l2.54.96c.17.07.26.12.26.29,0,.26-.31.26-.65.24-.14.29-.38.82-.86,1.56h5.57v2.02h-9.14v1.54h6.58v1.87h-6.58v1.66h9.77v2.04h-9.31c.14.05.22.14.22.26,0,.34-.36.41-.82.5-.07.41-.1.6-.17.89h9.46Z"/><path class="cls-2" d="M331.98,197.79c.12.05.34.14.34.34,0,.26-.53.34-.72.36-.26.43-.29.46-.43.65h11.4v2.09h-4.54c.14.41-.72.53-.94.58-.48.82-1.08,1.75-2.18,2.78.98.38,3.98,1.63,5.76,2.93-.82.74-.96.89-1.61,1.73-1.73-1.25-3.24-2.09-5.93-3.26-3.98,2.66-8.42,2.78-10.27,2.86-.14-.79-.38-1.27-.84-2.09,4.83-.02,7.01-.86,8.64-1.68-1.15-.38-1.97-.67-3.48-1.01l-.82.91c-.91-.58-1.2-.67-2.21-.96.67-.58,1.44-1.27,2.66-2.78h-6.05v-2.09h7.61c.1-.17.22-.31.6-.94-.41.17-.46.17-.77.29-.34-.58-1.06-1.42-1.73-1.92,5.59-1.18,6.19-4.32,6.41-5.76h-2.16c-.82,1.34-1.3,1.87-1.73,2.38-.65-.48-1.34-.84-2.11-1.08,1.73-1.97,2.59-3.36,3.55-5.52l2.16.46c.14.02.41.1.41.29,0,.24-.29.34-.65.38-.24.58-.34.82-.53,1.18h9.02l1.03,1.01c-.7,1.42-1.97,3.14-2.66,4.01-.55-.43-1.22-.84-1.97-1.08.86-1.01,1.15-1.54,1.37-2.02h-2.78c.02.34-.48.41-.7.43-.1.46-.14.72-.26,1.06.86,1.1,2.69,3.17,7.13,4.54-.38.38-1.01,1.1-1.37,1.99-3-1.08-4.78-2.35-6.67-4.54-.74,1.25-1.82,2.26-3.07,3l1.08.5ZM320.94,195.94c2.74-1.18,4.25-1.94,6.43-3.22.05.55.26,1.49.46,2.04-1.8,1.18-2.47,1.51-5.54,3.05-.02.29-.1.62-.36.62-.22,0-.31-.29-.36-.46l-.62-2.04ZM322.82,187.06c1.1.55,2.5,1.34,3.91,2.5-.5.53-1.06,1.37-1.34,1.92-1.13-.98-2.3-1.8-3.91-2.64l1.34-1.78ZM329.61,201.22c-.24.26-.43.53-1.15,1.32.79.19,2.38.6,4.18,1.22.48-.41,1.46-1.25,2.14-2.54h-5.16Z"/><path class="cls-2" d="M346.02,197.34v-1.27l-.05.02c-.34-.62-1.22-1.25-1.51-1.44.72-.24,1.8-.6,2.95-1.97h-2.81v-1.63h4.7v-1.15h-3.5v-1.51h3.5v-1.63l2.3.12c.22,0,.43.1.43.26,0,.29-.41.34-.53.34v.91h3.36v1.51h-3.36v1.15h4.2v1.63h-1.13c.5.46.86.6,1.39.67-.31,1.22-.67,1.85-2.18,1.85h-1.58c-.36,0-.5-.02-.7-.07v.77h3.46v1.44h-3.46v1.1c2.16-.22,2.71-.29,3.58-.38-.17.46-.19,1.08-.17,1.39-3.02.55-4.37.67-9.17,1.03-.05.14-.12.46-.41.46-.19,0-.24-.1-.34-.46l-.48-1.7c1.13-.02,2.64-.05,4.78-.17v-1.27h-3.29ZM356.7,193.18c.5.24.86.41,1.58.86.19-.65.31-1.32.38-2.38l-2.3.05-.07-1.99,2.45-.05v-2.81l2.21.05c.22,0,.53.07.53.29,0,.26-.31.36-.53.43v1.99l3.38-.05c-.22,1.34-.36,3.12-.36,4.49,0,.65.07,3.29.72,3.29.29,0,.5-.31.96-1.99.38.82,1.18,1.39,1.34,1.51-.96,2.79-1.71,3.5-2.59,3.5-1.61,0-2.5-2.86-2.5-6.72,0-1.01.05-1.54.07-2.06l-1.2.02c-.1,1.44-.29,2.4-.7,3.65,1.01.79,1.49,1.25,1.92,1.66-.38.46-.96,1.2-1.34,1.63-.38-.43-.7-.79-1.42-1.37-.94,1.8-1.7,2.5-2.33,3.1.02.26-.12.31-.6.38-.12.36-.14.43-.22.65h7.92c-.17,1.63-.62,4.54-1.68,6.29-.53.86-1.49,1.37-3.65,1.37-.41,0-.7-.02-1.27-.07-.07-.7-.43-1.8-.91-2.54.38.07,1.46.24,2.28.24,1.44,0,2.02-.41,2.52-3.29h-6.17c-1.08,1.8-2.95,4.37-8.98,5.64-.12-.62-.77-1.58-1.34-2.11,3.26-.24,6.1-1.46,7.66-3.53h-6.48v-1.99h7.51c.24-.82.26-1.2.29-1.63l2.54.31c.26.02.36.05.46.1-.17-.26-.74-.96-1.68-1.25.43-.29,1.2-.84,2.4-2.93-.82-.55-1.32-.79-1.8-1.03l.98-1.7ZM349.3,195.9v-1.61l1.42.07c-.02-.17-.05-.29-.05-.38v-1.3h-2.52l1.22.41c.12.05.34.12.34.29,0,.34-.6.31-.79.31-.7.86-1.44,1.49-2.64,2.21h3.02ZM352.59,192.68v.82c0,.36.02.41.46.41h.7c.24,0,.6,0,.7-1.22h-1.85Z"/><path class="cls-2" d="M375.8,197.91c0,1.2-1.01,2.16-2.16,2.16s-2.16-.96-2.16-2.16,1.01-2.16,2.16-2.16,2.16.94,2.16,2.16Z"/><path class="cls-2" d="M386.05,188.36c.26.07.38.1.38.29,0,.29-.38.34-.55.36-.84,2.71-1.18,5.81-1.18,8.67,0,1.13.05,3.41.6,5.35.12-.29.17-.48.77-2.09.31-.84.7-1.68.96-2.23.94.74,1.34.94,1.82,1.13-1.27,2.21-2.5,5.78-2.62,7.49l-2.02.46c-1.92-3.96-1.97-9.41-1.97-10.58,0-.89,0-4.87,1.18-9.53l2.62.7ZM397.86,187.59c.5.05.65.07.65.26,0,.24-.26.31-.43.36.02,3.34.02,3.72.05,4.75,2.26-.46,3.19-.82,3.96-1.13-.02,1.06-.02,1.49.05,2.47-.58.22-1.54.58-3.98,1.01,0,4.25,0,6.24-1.03,8.54-1.34,2.93-3.22,4.34-3.98,4.94-.65-.91-1.66-1.54-2.04-1.75,4.37-3.05,4.78-5.91,4.66-11.38-.7.07-3.26.34-6.1.26l-.22-2.54c.79.1,1.22.14,2.35.14.65,0,2.18-.02,3.91-.22-.02-.89-.17-3.98-.46-6.05l2.62.31Z"/><path class="cls-2" d="M414.55,187.81c.26.07.46.14.46.34,0,.17-.14.36-.6.41-.14.7-.22.98-.79,3.6,2.81-.12,5.76.55,5.76,5.76,0,4.66-1.37,7.66-2.33,8.74-.6.67-1.54,1.27-3.38,1.27-.91,0-1.75-.17-2.26-.29.05-1.1-.19-2.28-.29-2.71,1.3.43,2.06.5,2.57.5.72,0,1.56-.12,2.4-2.14.67-1.58.89-4.08.89-5.09,0-2.09-.5-3.74-2.9-3.74-.14,0-.5,0-1.03.07-1.58,5.83-3.65,9.75-6.29,13.25-.72-.48-1.58-.94-2.38-1.25,2.86-3.36,4.9-7.32,6.07-11.57-1.73.41-3,.72-4.85,1.42l-.82-2.62c1.01-.12,5.38-1.15,6.29-1.32.53-2.64.67-4.32.74-5.47l2.74.84ZM420.5,190.59c3.02,2.66,4.94,5.66,4.94,7.71s-1.94,2.71-3.77,3.26c-.31-.7-.86-1.61-1.25-2.16,1.25-.24,2.45-.46,2.45-1.58,0-1.44-2.02-4.15-4.22-6.05l1.85-1.18ZM422.09,188c.24.22,1.3,1.22,2.18,2.45-.55.38-.62.43-1.3.98-.5-.7-1.44-1.8-2.18-2.52l1.3-.91ZM424.27,186.53c.6.55,1.49,1.46,2.23,2.52-.6.34-.96.67-1.44,1.03-.72-1.18-1.22-1.8-2.14-2.69l1.34-.86Z"/><path class="cls-2" d="M439.99,205.57c0,2.9-.98,3.36-5.14,3.26-.1-.89-.38-1.8-.86-2.62.41.07,1.08.19,2.09.19,1.32,0,1.37-.5,1.37-1.73v-6.96h-9.75v-2.35h11.79c-2.04-1.27-4.01-2.26-6.19-3.02l1.49-1.8c1.66.62,2.52.96,3.86,1.61.77-.43,2.02-1.18,3.19-2.16h-11.95v-2.21h15.46l1.18,1.37c-1.06,1.13-3.62,3-5.59,4.18,1.27.77,1.39.84,1.68,1.06-.19.14-.74.5-1.2.98h6.91l1.32,1.3c-1.34,2.3-3.5,4.92-5.47,6.72-.5-.53-1.32-1.2-1.99-1.54,1.75-1.44,3.22-3.17,3.7-4.13h-5.88v7.85Z"/><path class="cls-2" d="M464.24,190.5v-3.7l2.59.1c.22,0,.53.07.53.36,0,.24-.29.36-.53.46v2.78h6.48v2.28h-8.16l-.02,2.81h6.89c0,4.56-.31,8.45-.65,9.91-.79,3.36-3.58,3.34-5.88,3.31-.1-1.1-.22-1.61-.84-2.59.65.05,1.46.14,2.11.14,1.32,0,1.94-.36,2.3-1.85.17-.72.48-2.5.48-6.6h-4.51c-.19,2.42-.62,4.85-2.47,7.66-1.39,2.14-2.74,3.12-3.34,3.55-.6-.67-1.32-1.13-2.11-1.54,2.78-1.78,4.49-4.92,4.97-6.72.38-1.49.62-3.72.62-8.09h-3.34v-2.06c-.62,1.66-1.49,3.43-2.02,4.51,2.28,2.88,2.42,4.73,2.42,5.64,0,1.87-.86,3.48-4.27,3.53-.14-1.13-.46-1.78-1.08-2.57.14.02,1.42.07,1.49.07.38,0,1.46-.02,1.46-1.56,0-1.15-.53-2.78-2.71-4.83,1.06-2.02,1.75-3.38,2.42-5.57h-2.71v18.94h-2.38v-21.17h7.18l.96.86c-.26.82-.43,1.27-.67,1.92h4.78Z"/><path class="cls-2" d="M482.45,197.91c0,1.2-1.01,2.16-2.16,2.16s-2.16-.96-2.16-2.16,1.01-2.16,2.16-2.16,2.16.94,2.16,2.16Z"/><path class="cls-2" d="M496.45,195.58c2.33,1.34,3.67,2.28,4.7,3.07,1.42-2.09,2.18-4.51,2.45-5.33h-6.98c-.17.22-2.45,3.6-5.62,6-.53-.62-.98-1.06-1.97-1.78,4.06-2.62,6.62-6.77,8.04-10.54l2.54.79c.26.07.41.14.41.31,0,.29-.43.31-.55.31-.46.86-.96,1.82-1.46,2.66h6.29c.84,0,1.22-.12,1.58-.24l1.2,1.06c-.17.31-.31.6-.48,1.01-1.87,4.61-2.21,5.42-3.5,7.27,1.61,1.37,2.23,2.14,2.78,2.86-.77.84-1.42,1.78-1.63,2.11-.41-.58-1.1-1.49-2.66-3-3.6,4.01-8.06,5.78-9.72,6.46-.5-.82-.6-.96-1.68-2.21,2.93-.82,6.98-2.93,9.53-5.86-2.33-1.8-3.96-2.76-4.8-3.24l1.54-1.73ZM504.3,186.22c.58.55,1.51,1.56,2.21,2.52-.48.26-1.01.65-1.44,1.06-.29-.38-1.13-1.51-2.21-2.54l1.44-1.03ZM507.7,186.13c.6.53,1.8,1.92,2.28,2.59-.53.36-1.1.74-1.44,1.06-1.25-1.68-1.9-2.35-2.26-2.71l1.42-.94Z"/><path class="cls-2" d="M521.65,208.38h-2.67v-12c-1.13.72-4.51,2.71-8.18,4.06-.41-.65-1.01-1.46-1.87-2.23,4.61-1.34,11.83-4.66,16.99-11.42l2.3,1.7c.14.12.22.22.22.38s-.22.22-.38.22-.31-.02-.46-.07c-2.23,2.64-5.35,5.06-5.95,5.52v13.85Z"/><path class="cls-2" d="M541.41,204.08h9.05v2.35h-20.64v-2.35h8.95v-11.4h-6.67v-2.45h16.08v2.45h-6.77v11.4Z"/><path class="cls-2" d="M554.52,193.18c.94,1.44,1.78,3.22,2.35,4.78-.67.22-1.37.53-2.04.94-.77-2.09-1.22-2.98-2.33-4.85l2.02-.86ZM568.88,193.02c.24.07.43.14.43.34,0,.26-.34.34-.46.36-1.78,7.01-4.7,11.28-11.88,14.19-.5-.77-.86-1.2-1.46-1.82,3.53-1.27,9.75-3.98,11.14-13.75l2.23.7ZM559.73,191.96c.98,1.61,1.66,3.1,2.18,4.87-.31.1-1.25.38-2.04.82-.53-1.61-1.15-3.1-2.21-4.85l2.06-.84Z"/><path class="cls-2" d="M579.73,193.74c2.52,1.25,6.17,3.29,9.03,6-.29.36-.74.91-1.51,2.14-3.14-3-6.53-4.92-8.54-5.91v12.31h-2.62v-20.88l2.64.17c.29.02.43.1.43.29,0,.26-.29.31-.46.36v6.96l1.03-1.44Z"/><path class="cls-2" d="M596.61,188.48c.34.12.53.19.53.41,0,.24-.29.26-.58.29-1.1,3.38-1.61,6.86-1.61,10.37,0,1.58.1,2.3.26,3.26.26-.79.96-2.57,1.39-3.34.19.29.5.84,1.34,1.39-.31.67-1.78,3.82-1.66,6.41l-2.26.65c-.65-1.75-1.49-4.32-1.49-8.9,0-4.2.58-6.96,1.51-11.5l2.54.96ZM602.88,199.59c-.29.58-.74,1.44-.74,2.45,0,1.49,1.73,1.78,4.27,1.78.79,0,3.36,0,5.93-.65-.1.46-.24,1.32-.22,2.64-1.58.24-4.01.36-5.64.36-2.93,0-6.7-.29-6.7-3.41,0-1.25.41-2.45.94-3.6l2.16.43ZM600.69,190.23c.65.05,1.37.12,2.59.12,2.83,0,5.14-.17,7.46-.77.07.48.24,2.11.29,2.45-2.54.5-5.16.7-7.78.7-1.18,0-1.94-.07-2.57-.1v-2.4Z"/><path class="cls-2" d="M619.92,193.71c.12.07.26.22.26.36,0,.31-.5.34-.82.34-1.46,1.7-2.47,2.71-3.84,3.72-.58-.6-1.2-1.06-1.99-1.46,2.11-1.49,3.38-2.93,4.32-4.18l2.06,1.22ZM623.88,197.65c.17.07.43.17.43.36,0,.26-.36.29-.6.29-.7,1.8-1.44,3.12-1.61,3.38,1.25,1.63,1.82,2.57,2.11,3.02-.89.6-1.49,1.22-1.87,1.63-.36-.7-.82-1.49-1.56-2.54-1.42,2.11-2.98,3.67-5.06,5.18-.55-.79-1.22-1.3-2.02-1.68,2.18-1.2,4.2-3.19,5.62-5.42-.34-.41-1.58-1.9-3.07-3.24l1.66-1.49c.77.65.94.82,2.59,2.62.74-1.61.91-2.21,1.1-2.93l2.28.82ZM626.42,189.92v2.16h-12.17v-2.16h5.06v-3.26l2.59.1c.14,0,.5.05.5.31,0,.22-.24.36-.53.5v2.35h4.54ZM622.8,192.42c2.02,1.58,3.7,3.89,4.13,4.49-.55.31-1.34,1.06-1.85,1.51-1.25-1.97-2.45-3.12-4.03-4.58l1.75-1.42ZM626.06,194.55v-2.28h2.9c0-.89.02-4.75.02-5.54l2.59.12c.12,0,.48.02.48.34,0,.24-.31.36-.55.46,0,.72-.07,3.96-.07,4.63h4.34c0,3.77,0,11.71-1.2,14.81-.62,1.58-2.16,1.8-3.46,1.8-.62,0-1.08-.05-1.49-.1,0-.96-.34-1.9-.74-2.66,1.06.19,1.92.26,2.35.26,1.13,0,1.32-.26,1.61-1.75.38-2.09.67-6.41.67-10.08h-2.14c-.36,5.74-1.66,10.71-7.27,14.62-.86-1.03-1.06-1.25-1.99-1.78,6.24-3.79,6.55-8.83,6.79-12.84h-2.86Z"/><path class="cls-2" d="M650.11,208.88h-2.35v-6.96c-3.19,3.48-6.38,5.14-8.18,6.1-.22-.36-.86-1.32-1.92-1.97,4.56-1.63,7.37-4.08,8.52-5.18h-8.11v-2.14h9.7v-1.87h-6.96v-9.29h16.44v9.29h-7.13v1.87h9.86v2.14h-8.5c3.05,2.88,6.86,4.42,8.64,4.78-.94.84-1.18,1.06-1.87,1.99-1.63-.6-5.16-2.28-8.14-5.52v6.77ZM647.76,191.22v-1.78h-4.42v1.78h4.42ZM643.34,193.02v1.82h4.42v-1.82h-4.42ZM654.65,191.22v-1.78h-4.54v1.78h4.54ZM650.11,193.02v1.82h4.54v-1.82h-4.54Z"/><path class="cls-2" d="M683.19,191.22c.05,3.48-.05,12.07-1.25,15.07-.31.77-1.03,2.59-4.9,2.59-.29,0-.5-.02-.7-.05-.14-.94-.48-1.85-.91-2.64.43.07,1.06.17,1.94.17,1.15,0,1.97-.1,2.4-1.15.98-2.45.98-7.25.98-11.74h-5.52c-.98,2.38-1.54,3.24-1.85,3.72-.89-.53-1.3-.74-2.26-.89v11.21h-2.45v-.89h-3.84v1.54h-2.5v-17.07h2.74c.22-.55.91-2.66,1.18-4.18l2.35.46c.24.05.6.12.6.36,0,.22-.17.29-.62.46-.55,1.58-.67,1.87-1.1,2.9h3.65v4.97c.62-.82,2.74-4.44,3.48-9.1l2.3.55c.17.05.5.17.5.36,0,.22-.22.31-.6.41-.1.48-.26,1.25-.79,2.93h7.15ZM664.85,197.67h3.84v-4.32h-3.84v4.32ZM668.7,199.81h-3.84v4.56h3.84v-4.56ZM676.64,196.11c.67,1.25,1.61,4.13,1.85,5.26-1.08.34-1.75.67-2.26.94-.29-1.32-1.18-4.3-1.75-5.28l2.16-.91Z"/><g class="cls-7"><rect class="cls-6" x="-.03" y="240.96" width="980" height="70"/></g><path class="cls-2" d="M167.45,282.65c0,2.54.46,2.79,4.94,2.79,3.14,0,6.31-.05,9.46-.43-.19.79-.22.96-.36,2.59-1.42-.03-7.68.12-8.95.12-5.28,0-7.68-.1-7.68-4.58v-15.41l2.71.17c.22.03.46.05.46.29s-.24.34-.58.48v7.49c3.86-.53,9.24-2.74,11.64-4.71l2.14,1.75c.1.07.19.17.19.29,0,.19-.22.26-.53.26-.12,0-.26,0-.43-.05-3.05,1.99-8.47,4.13-13.01,4.78v4.18ZM184.37,269.26c0,1.2-.96,2.18-2.18,2.18s-2.16-.96-2.16-2.18.98-2.18,2.16-2.18,2.18.96,2.18,2.18ZM181.01,269.26c0,.67.53,1.2,1.18,1.2s1.2-.53,1.2-1.2-.53-1.18-1.2-1.18-1.18.53-1.18,1.18Z"/><path class="cls-2" d="M201.15,274.32c1.06,0,1.61-.1,2.04-.22l1.63,1.13c-.31.5-1.46,2.88-1.7,3.36-3,5.9-5.78,8.3-11.86,10.49-.62-.89-.89-1.18-1.75-2.06,4.58-1.3,9.05-3.48,11.64-10.37h-15.91v-2.33h15.91ZM201.95,268.61v2.28h-13.8v-2.28h13.8Z"/><path class="cls-2" d="M207.7,277.35v-2.28h20.21v2.28h-8.33c-.1,4.46-1.44,6.67-2.71,7.99-.77.81-2.42,2.4-5.47,3.38-.29-.43-.77-1.1-1.85-2.02,6.96-1.94,7.44-6.19,7.51-9.36h-9.36ZM224.65,268.68v2.28h-13.56v-2.28h13.56Z"/><path class="cls-2" d="M240.41,288.44h-2.3v-9.36c-.86.53-3.94,2.26-6.29,3.05-.41-.67-.96-1.32-1.61-1.87,5.14-1.66,9.53-4.08,13.56-9.12l1.94,1.49c.1.07.17.19.17.31,0,.22-.26.26-.65.19-1.97,2.06-3.17,3.12-4.83,4.37v10.95Z"/><path class="cls-2" d="M250.77,271.52v-2.35h12.12c.38,0,1.25-.05,1.63-.17l1.37,1.34c-.41.5-.65.96-.91,1.56-1.03,2.47-1.7,4.01-3.24,6.41,2.04,1.46,5.57,4.44,7.9,7.39-1.01,1.01-1.13,1.1-1.94,2.09-1.32-1.87-3.38-4.66-7.3-7.56-3.55,4.46-7.63,6.84-10.08,7.87-.53-1.01-.84-1.46-1.66-2.19,3.79-1.37,6.62-3.43,9.31-6.62,2.33-2.79,3.34-5.21,4.2-7.78h-11.4Z"/><path class="cls-2" d="M288.25,274.92v2.26h-12.24v-2.23c-1.51.98-2.57,1.46-3.26,1.8-.22-.31-.86-1.22-1.92-2.02,3.41-1.18,8.33-4.46,10.18-7.85l2.9.46c.22.02.38.17.38.34,0,.19-.17.26-.62.36,1.56,2.16,6.19,5.23,9.94,6.43-.84.58-1.66,2.04-1.7,2.13-5.26-2.18-8.38-5.4-9.82-6.89-1.68,1.78-3.22,3.38-6.02,5.21h12.19ZM272.48,286.11c.41-.02,3.29-.22,3.6-.24.77-1.22,1.39-2.21,2.45-4.63h-6.14v-2.26h19.85v2.26h-6.12c1.7,1.46,4.32,4.11,5.9,6.43-.79.5-1.44,1.1-2.04,1.75-.96-1.46-1.37-1.97-1.9-2.62-1.54.24-5.09.72-6.62.89-1.2.14-6.5.7-7.58.82-.12.34-.22.6-.53.6-.19,0-.26-.24-.31-.43l-.55-2.57ZM285.99,281.24h-4.1s.07.12.07.19c0,.36-.58.41-.84.43-.22.43-1.2,2.3-2.14,3.79,2.26-.21,5.21-.46,7.42-.79-.58-.62-1.06-1.13-2.18-2.14l1.78-1.49Z"/><path class="cls-2" d="M308.37,284.57h-5.81l1.32,1.08c.12.1.26.24.26.41,0,.22-.24.26-.41.26s-.31-.05-.48-.12c-1.13.7-3.58,2.18-6.82,3.07-.46-.65-1.2-1.34-1.94-1.82,2.93-.5,5.88-2.09,7.1-2.88h-4.37v-10.68h16.92v10.68h-4.63c2.93,1.87,5.64,2.42,7.03,2.69-.31.26-1.13.98-1.68,1.94-1.46-.43-4.73-1.37-7.61-3.46l1.1-1.18ZM313.31,267.8v5.11h-15.27v-5.11h15.27ZM311.61,276.99v-1.37h-11.81v1.37h11.81ZM299.8,278.52v1.37h11.81v-1.37h-11.81ZM299.8,281.41v1.42h11.81v-1.42h-11.81ZM300.52,269.55v1.71h10.27v-1.71h-10.27Z"/><path class="cls-2" d="M327.9,267.32c.29,1.63.65,2.59,1.3,4.25,2.23-.87,4.15-1.61,6-2.98.86,1.03.96,1.13,1.63,1.9-1.58,1.08-3.77,2.11-6.62,3.19,1.63,3.02,4.2,5.95,5.76,7.15l-1.63,1.54c-2.06-1.3-4.68-1.97-7.13-1.97-3.98,0-4.82,1.78-4.82,2.81,0,1.92,2.52,3.07,6.14,3.07,3.05,0,4.66-.67,5.81-1.15.07.84.31,1.78.62,2.54-2.95.89-5.64.89-6.31.89-6.14,0-8.88-2.5-8.88-5.26,0-2.14,1.87-4.97,6.89-4.97,1.94,0,3.43.38,4.08.55-.72-.94-1.56-2.04-2.81-4.44-3.6,1.06-6.89,1.39-9.07,1.61l-.79-2.5c4.44-.07,7.34-.84,8.83-1.25-.91-2.09-1.34-3.27-1.75-4.39l2.76-.6Z"/><path class="cls-2" d="M351.41,267.87c.22.05.38.05.38.26,0,.26-.34.34-.48.38-.07,1.01-.1,1.54-.12,1.99,1.15,0,6.19-.1,7.22-.02v2.38c-1.25-.07-3-.19-7.27-.12,0,.12-.05,2.62-.02,3.77,3.82-.29,5.64-.79,6.67-1.08v2.45c-1.49.34-2.5.48-6.6.81,0,.48.07,2.62.1,3.05,3.31.67,6.41,2.23,7.92,3.38-.79.91-.94,1.1-1.68,2.09-1.94-1.7-4.01-2.71-6.12-3.36.1,1.66.29,4.56-4.63,4.56-3.46,0-5.69-1.68-5.69-3.58,0-2.54,3.14-3.58,5.76-3.58.5,0,1.3.05,1.92.1,0-.31-.05-2.06-.05-2.52-3.38.07-7.08.14-7.08-1.9,0-.84.5-1.58,1.7-2.69l1.87.6c-.84.74-.94.84-.94,1.15,0,.53.6.58,1.42.62.5.05,1.13.07,2.98.02-.02-.6-.05-3.26-.05-3.82-3.89.14-6.53.48-8.02.65v-2.5c1.25-.1,6.87-.36,8.02-.41-.02-1.78-.02-2.35-.12-3.24l2.9.53ZM347.01,283.13c-1.63,0-3.41.43-3.41,1.66,0,1.42,2.23,1.54,2.76,1.54,2.47,0,2.47-1.46,2.47-2.23,0-.29-.02-.51-.05-.77-.38-.1-.84-.19-1.78-.19Z"/><path class="cls-2" d="M366.35,268.85c.26.1.31.14.31.34,0,.17-.19.34-.65.38-1.32,4.75-1.32,8.93-1.32,9.86,0,1.68.1,2.64.19,3.46.26-.5,1.25-2.83,1.49-3.31.41.65.77,1.1,1.3,1.63-.46.84-2.02,3.7-1.97,6.67l-2.16.43c-.31-1.13-1.18-4.25-1.18-9.17,0-2.88.31-6.94,1.34-11.19l2.64.89ZM378.04,268.37c.24.05.29.14.29.24,0,.31-.34.36-.55.41-.1.77-.19,1.63-.24,3.46,2.14-.36,3.12-.67,4.03-.96l.02,2.42c-.74.17-1.99.48-4.1.82,0,2.62.19,5.59.36,6.65.84.31,3.22,1.18,5.04,2.74-.34.5-.86,1.54-1.18,2.18-1.61-1.49-3-2.09-3.62-2.33.12,3.03-2.71,3.91-4.68,3.91-2.54,0-4.22-1.7-4.22-3.53,0-2.54,2.62-3.55,4.66-3.55.62,0,1.1.07,1.54.14-.14-1.61-.17-2.04-.26-5.9-1.49.14-2.86.21-3.94.21-.77,0-1.27-.02-1.8-.05v-2.5c.72.07,1.61.14,2.9.14s2.26-.07,2.78-.12c0-1.3.02-3.26.05-4.85l2.93.46ZM373.79,282.77c-.31,0-2.5,0-2.5,1.58,0,1.1,1.3,1.56,2.18,1.56,1.06,0,2.26-.57,2.26-1.99,0-.21-.02-.41-.1-.79-.34-.14-.89-.36-1.85-.36Z"/><path class="cls-2" d="M386.16,272.98c1.54.6,4.61,2.13,6.1,3.26-.82.84-1.42,1.87-1.56,2.14-2.38-1.87-5.23-3.03-5.95-3.31l1.42-2.09ZM386.21,286.16c6.89-2.35,13.3-6.91,17.47-13.34.62.98.89,1.29,1.66,2.09-5.14,7.66-13.35,11.95-17.11,13.35-.02.21-.1.57-.38.57-.14,0-.24-.12-.36-.34l-1.27-2.33ZM388.68,267.53c3.19,1.18,5.02,2.18,6.41,3.07-.48.53-1.18,1.54-1.54,2.11-2.23-1.61-4.42-2.54-6.29-3.24l1.42-1.94ZM400.17,268.23c.6.43,1.85,1.44,2.67,2.26-.36.31-.89.86-1.27,1.27-.24-.26-1.37-1.44-2.66-2.38l1.27-1.15ZM402.24,266.5c.74.53,1.97,1.61,2.62,2.3-.53.34-1.1.98-1.25,1.15-.5-.55-1.42-1.51-2.62-2.4l1.25-1.05Z"/><path class="cls-2" d="M419.06,275.72c2.59,2.83,5.54,7.46,6.41,9.84-.31.22-1.46,1.03-2.11,1.71-.41-1.08-.79-1.97-1.44-3.19-8.93,1.56-9.91,1.73-16.32,2.57-.12.36-.22.43-.38.43-.19,0-.31-.19-.36-.43l-.55-2.4c.65-.02,1.18-.05,2.54-.17,1.94-3.7,4.58-10.32,5.9-16.18l2.64.72c.29.07.46.17.46.34,0,.31-.43.38-.58.41-.38,1.03-1.94,5.69-2.3,6.62-.98,2.64-2.09,5.26-3.34,7.8,2.57-.31,5.38-.77,11.14-1.71-1.56-2.42-2.78-3.94-3.84-5.06l2.14-1.29Z"/><path class="cls-2" d="M435,278.19c0,1.2-1.01,2.16-2.16,2.16s-2.16-.96-2.16-2.16,1.01-2.16,2.16-2.16,2.16.94,2.16,2.16Z"/><path class="cls-2" d="M442.56,271.52v-2.35h12.12c.38,0,1.25-.05,1.63-.17l1.37,1.34c-.41.5-.65.96-.91,1.56-1.03,2.47-1.7,4.01-3.24,6.41,2.04,1.46,5.57,4.44,7.9,7.39-1.01,1.01-1.13,1.1-1.94,2.09-1.32-1.87-3.38-4.66-7.3-7.56-3.55,4.46-7.63,6.84-10.08,7.87-.53-1.01-.84-1.46-1.66-2.19,3.79-1.37,6.62-3.43,9.31-6.62,2.33-2.79,3.34-5.21,4.2-7.78h-11.4Z"/><path class="cls-2" d="M470.99,275.86c2.33,1.35,3.67,2.28,4.7,3.07,1.42-2.09,2.18-4.51,2.45-5.33h-6.98c-.17.22-2.45,3.6-5.62,6-.53-.62-.98-1.05-1.97-1.78,4.06-2.62,6.62-6.77,8.04-10.54l2.54.79c.26.07.41.14.41.31,0,.29-.43.31-.55.31-.46.87-.96,1.82-1.46,2.66h6.29c.84,0,1.22-.12,1.58-.24l1.2,1.06c-.17.31-.31.6-.48,1.01-1.87,4.61-2.21,5.43-3.5,7.27,1.61,1.37,2.23,2.14,2.78,2.86-.77.84-1.42,1.78-1.63,2.11-.41-.58-1.1-1.49-2.66-3-3.6,4.01-8.06,5.78-9.72,6.46-.5-.82-.6-.96-1.68-2.21,2.93-.82,6.98-2.93,9.53-5.86-2.33-1.8-3.96-2.76-4.8-3.24l1.54-1.73Z"/><path class="cls-2" d="M486.3,272.98c1.54.6,4.61,2.13,6.1,3.26-.82.84-1.42,1.87-1.56,2.14-2.38-1.87-5.23-3.03-5.95-3.31l1.42-2.09ZM486.35,286.16c6.89-2.35,13.3-6.91,17.47-13.34.62.98.89,1.29,1.66,2.09-5.14,7.66-13.35,11.95-17.11,13.35-.02.21-.1.57-.38.57-.14,0-.24-.12-.36-.34l-1.27-2.33ZM488.82,267.53c3.19,1.18,5.02,2.18,6.41,3.07-.48.53-1.18,1.54-1.54,2.11-2.23-1.61-4.42-2.54-6.29-3.24l1.42-1.94ZM500.32,268.23c.6.43,1.85,1.44,2.67,2.26-.36.31-.89.86-1.27,1.27-.24-.26-1.37-1.44-2.66-2.38l1.27-1.15ZM502.38,266.5c.74.53,1.97,1.61,2.62,2.3-.53.34-1.1.98-1.25,1.15-.5-.55-1.42-1.51-2.62-2.4l1.25-1.05Z"/><path class="cls-2" d="M508,275.02v-2.38h11.3v-5.14l2.59.19c.31.02.48.05.48.26s-.29.34-.48.43v4.25h5.54v2.38h-5.54v10.63c0,1.63-.55,2.3-1.61,2.69-.79.29-2.5.48-3.98.38-.34-1.42-.36-1.58-.96-2.71.74.14,1.7.26,2.45.26,1.51,0,1.51-.48,1.51-2.26v-6.65c-3.96,5.59-8.67,7.87-10.18,8.62-.7-1.25-1.32-1.78-1.68-2.06,4.71-1.85,8.64-5.66,10.61-8.9h-10.06Z"/><path class="cls-2" d="M534.69,268.44c.31.02.5.02.5.24,0,.29-.36.43-.5.5v15.55c4.56-1.54,10.51-5.35,13.73-9.67.58,1.44.62,1.54,1.25,2.57-2.14,2.28-5.33,5.42-11.28,8.33-.74.36-4.01,1.87-4.66,2.21l-1.78-1.78c.07-.31.12-1.1.12-1.42v-16.66l2.62.12Z"/><path class="cls-2" d="M554.4,273.46c.94,1.44,1.78,3.22,2.35,4.78-.67.22-1.37.53-2.04.94-.77-2.09-1.22-2.98-2.33-4.85l2.02-.87ZM568.75,273.29c.24.07.43.14.43.34,0,.27-.34.34-.46.36-1.78,7.01-4.7,11.28-11.88,14.19-.5-.77-.86-1.2-1.46-1.82,3.53-1.27,9.75-3.98,11.14-13.75l2.23.7ZM559.61,272.24c.98,1.61,1.66,3.1,2.18,4.87-.31.1-1.25.38-2.04.82-.53-1.61-1.15-3.1-2.21-4.85l2.06-.84Z"/><path class="cls-2" d="M571.38,271.52v-2.35h12.12c.38,0,1.25-.05,1.63-.17l1.37,1.34c-.41.5-.65.96-.91,1.56-1.03,2.47-1.7,4.01-3.24,6.41,2.04,1.46,5.57,4.44,7.9,7.39-1.01,1.01-1.13,1.1-1.94,2.09-1.32-1.87-3.38-4.66-7.3-7.56-3.55,4.46-7.63,6.84-10.08,7.87-.53-1.01-.84-1.46-1.66-2.19,3.79-1.37,6.62-3.43,9.31-6.62,2.33-2.79,3.34-5.21,4.2-7.78h-11.4Z"/><path class="cls-2" d="M594.71,268.25c1.75.86,4.22,2.21,6.67,4.39-.31.36-.74.89-1.56,2.16-3.17-2.81-5.57-3.91-6.62-4.39l1.51-2.16ZM593.39,285.46c4.61-.98,12.77-4.13,18.22-13.11.77,1.18.82,1.3,1.61,2.21-4.68,7.37-11.23,10.97-17.57,13.22,0,.26-.1.53-.34.53-.19,0-.31-.17-.38-.29l-1.54-2.57Z"/><path class="cls-2" d="M622.62,278.19c0,1.2-1.01,2.16-2.16,2.16s-2.16-.96-2.16-2.16,1.01-2.16,2.16-2.16,2.16.94,2.16,2.16Z"/><path class="cls-2" d="M626.82,287.84c1.27-1.9,3.26-5.3,4.37-8.19.74.96,1.73,1.68,1.9,1.8-.91,2.11-1.01,2.3-3.5,6.84.07.14.17.36.17.53,0,.14-.07.34-.26.34-.1,0-.29-.05-.48-.14l-2.18-1.18ZM628.33,273.15c1.56.79,2.78,1.54,3.94,2.35-.6.74-.94,1.3-1.39,2.14-1.03-.82-2.64-1.82-3.89-2.45l1.34-2.04ZM630.08,267.29c1.66.98,2.76,1.75,3.79,2.59-.6.72-1.1,1.58-1.37,2.06-1.51-1.22-2.4-1.85-3.86-2.66l1.44-1.99ZM634.4,286.47v-7.99h13.85v7.99h1.3v2.06h-16.92v-2.06h1.78ZM647.65,267.89v9.19h-12.26v-9.19h12.26ZM638.44,286.47v-6h-1.82v6h1.82ZM645.23,271.59v-1.78h-7.56v1.78h7.56ZM637.67,273.34v1.9h7.56v-1.9h-7.56ZM642.21,286.47v-6h-1.75v6h1.75ZM646.07,286.47v-6h-1.85v6h1.85Z"/><path class="cls-2" d="M652.46,273.44c1.7.89,3.14,1.85,4.13,2.57-.65.77-1.2,1.78-1.37,2.09-1.32-1.01-2.88-1.97-4.1-2.62l1.34-2.04ZM651.26,287.21c1.54-1.8,3.48-5.57,4.37-7.97.55.74,1.25,1.39,1.87,1.8-1.82,3.84-2.02,4.27-3.67,7.03.1.19.19.38.19.58,0,.12-.05.29-.24.29-.1,0-.14-.02-.31-.14l-2.21-1.58ZM654.14,267.27c1.39.58,3.31,1.75,4.27,2.5-.46.55-.89,1.25-1.39,2.11-1.18-.91-3.05-1.99-4.25-2.59l1.37-2.02ZM666.98,271.42c.26.05.5.1.5.31,0,.14-.07.21-.48.43,1.66,3.02,5.14,6.02,7.44,7.39-.67.55-1.22,1.32-1.56,1.99-.34-.22-.58-.38-1.2-.87v8.43h-2.45v-.79h-6.5v.79h-2.45v-8.23c-.41.34-.65.53-.94.74-.82-.82-1.49-1.27-2.11-1.63,2.21-1.39,5.69-4.2,7.34-9.03l2.4.46ZM664.22,268.16c.38.17.5.26.5.43,0,.26-.22.29-.77.31-.98,1.85-2.38,3.74-4.15,5.59-.94-.79-1.9-1.15-2.23-1.3,2.04-1.68,3.98-4.56,4.51-6l2.14.96ZM670.32,279.58c-2.42-2.09-3.72-3.82-4.66-5.14-1.32,2.28-2.14,3.38-3.94,5.14h8.59ZM669.24,286.16v-4.37h-6.5v4.37h6.5ZM668.81,267.03c1.68,2.88,4.27,4.8,5.18,5.5-.98.65-1.27.89-2.02,1.66-1.85-1.51-4.01-3.72-5.26-5.9l2.09-1.25Z"/><path class="cls-2" d="M690.71,276.36v-3.72l2.14.17c.19.02.53.05.53.29,0,.17-.24.31-.46.43v2.16l3-.96,1.27.58v5.35c0,.87,0,3.03-3.34,2.88-.02-.84-.48-1.9-.74-2.33.19.02.41.07.7.07.58,0,1.15-.07,1.15-1.11v-2.74l-2.04.62v6.31h-2.21v-5.62l-1.82.58v5.5c0,1.32.58,1.63,1.85,1.63h3.65c1.03,0,1.63-.17,1.8-2.59.26.29,1.03,1.03,2.23,1.15-.36,2.59-1.22,3.67-3.65,3.67h-4.51c-1.58,0-3.62-.22-3.62-3.02v-5.64l-1.37.43-.43-1.8c0,4.92-.46,7.32-.79,8.38-.6,1.97-2.38,2.14-3.87,2.23-.1-1.73-.55-2.35-.82-2.69.43.1,1.03.21,1.46.21.86,0,1.27-.17,1.63-3.1.17-1.27.26-4.34.26-5.86h-1.99c-.19,4.59-1.37,8.57-3.22,11.14-.48-.5-1.42-1.1-2.14-1.34,3-4.32,2.98-8.23,2.95-14.62h-2.54v-2.18h3.74v-3.74l2.5.14c.24.02.53.05.53.31,0,.24-.31.36-.53.46v2.83h3.36v1.9c.53-.74,2.16-3.03,2.76-5.79l2.33.72c.17.05.41.12.41.36s-.34.31-.62.36c-.12.29-.22.58-.6,1.51h8.33v2.09h-9.36c-.6,1.01-.84,1.42-1.39,2.23l1.63.07c.14,0,.5.02.5.31,0,.17-.22.34-.48.46v1.87l1.82-.58ZM686.63,277.66v-2.62c-.38.5-.58.77-.91,1.2-.5-.53-1.3-1.13-1.99-1.51.38-.38.72-.72,1.46-1.71h-4.42v2.59h4.06v2.62l1.8-.58Z"/><path class="cls-2" d="M709.24,271.08v1.92h-9.36v-1.92h9.36ZM708.51,280.81v7.99h-2.3v-1.13h-3.24v1.56h-2.3v-8.42h7.85ZM707.99,267.72v1.97h-7.1v-1.97h7.1ZM707.96,274.35v1.85h-7.08v-1.85h7.08ZM707.96,277.59v1.85h-7.08v-1.85h7.08ZM702.97,282.75v2.83h3.24v-2.83h-3.24ZM712.71,279.92c.43.79,1.06,1.9,2.59,3.38,1.01-1.06,1.75-2.16,2.38-3.55h-8.02v-2.16h10.15l.94,1.1c-1.01,2.28-2.06,4.2-3.7,6.03.5.34,2.57,1.78,5.23,2.4-.67.67-1.13,1.27-1.51,2.04-2.16-.72-4.15-1.78-5.47-2.76-1.75,1.42-3.82,2.33-5.06,2.83-.38-.79-1.2-1.75-1.61-2.09,1.58-.38,3.12-1.01,4.92-2.3-.36-.34-1.75-1.78-2.71-3.67l1.87-1.25ZM718.45,267.77v5.71c0,.31.12.55.53.55h.7c.34,0,.82,0,.96-2.23.6.46,1.2.77,1.92.96-.48,2.47-.89,3.43-2.38,3.43h-1.94c-2.11,0-2.11-1.63-2.11-2.21v-4.13h-2.71c-.07,2.45-.14,4.95-2.35,7.32-.62-.55-1.46-1.05-2.16-1.25,2.06-1.8,2.06-4.13,2.06-5.76v-2.4h7.49Z"/><path class="cls-2" d="M735.08,268.01c.31.12.46.19.46.38,0,.24-.1.27-.77.38-.67,1.32-.91,1.9-1.44,3.1,2.74.29,4.44.22,5.18.17-.43,1.13-.65,2.26-.7,2.57-2.5.03-4.66-.24-5.33-.31-.5,1.37-.98,2.69-1.2,3.34,2.76.34,4.2.36,6.26.36-.34.89-.65,2.16-.7,2.4-3.26-.1-5.45-.38-6.22-.5-.12.5-.34,1.42-.34,2.69,0,2.95,2.21,3.82,4.71,3.82,3.34,0,5.45-1.51,5.45-4.27,0-1.58-.86-3.22-1.49-4.2,1.27-.36,1.99-.79,2.35-1.01,1.27,2.18,1.75,3.91,1.75,5.4,0,4.95-4.82,6.38-8.09,6.38-6.24,0-7.1-4.22-7.1-6.22,0-1.42.26-2.42.38-2.95-1.94-.36-3.19-.74-3.94-.98l.53-2.35c1.25.41,2.26.7,4.06,1.06.53-1.75.86-2.69,1.08-3.36-2.04-.41-3.12-.72-4.37-1.13l.5-2.47c1.78.62,2.98.94,4.7,1.25.26-.72,1.44-3.89,1.66-4.54l2.59,1.01Z"/><path class="cls-2" d="M753.52,289.18h-2.23v-9.6c-.79,1.85-1.73,3.5-3.34,5.54-1.01-.84-1.3-1.06-2.23-1.39,3-2.95,4.54-6.02,5.3-7.85h-4.8v-2.09h5.06v-3.29c-1.18.19-2.57.38-3.74.46-.43-.89-.65-1.32-1.18-2.04,3.07-.07,6.1-.5,9.48-1.85l1.46,1.58c.1.1.17.31.17.41,0,.14-.07.24-.29.24-.17,0-.29-.07-.62-.19-1.22.48-2.47.79-3.05.96v3.72h4.34v2.09h-4.1c1.25,2.3,2.59,3.77,4.13,5.16-.72.6-1.18,1.08-1.68,1.73-1.08-1.2-1.82-2.3-2.69-4.06v10.46ZM761.9,269.24c.34.02.58.02.58.31,0,.24-.1.27-.58.41v13.63h-2.45v-14.52l2.45.17ZM767.28,267.39c.26.03.5.17.5.31,0,.19-.24.31-.62.46v17.86c0,2.62-.77,3.26-4.97,3.12-.17-1.13-.55-1.94-.89-2.52,1.13.19,1.97.19,2.23.19.96,0,1.18-.21,1.18-1.1v-18.53l2.57.21Z"/><path class="cls-2" d="M782.36,288.05h-2.5v-7.03h-5.38c-.26,2.57-.62,5.23-2.47,8.16-.55-.41-1.06-.7-2.69-1.06.79-.98,2.66-3.36,2.66-10.82v-9.22h18.36v17.79c0,2.69-1.3,3.36-4.92,3.22-.12-.96-.48-1.92-.96-2.71.41.07,1.06.19,1.94.19,1.3,0,1.37-.46,1.37-1.46v-4.08h-5.42v7.03ZM779.86,275.62h-5.18v1.35c0,.12-.02.77-.05,1.78h5.23v-3.12ZM779.86,270.29h-5.18v3.12h5.18v-3.12ZM782.36,273.41h5.42v-3.12h-5.42v3.12ZM782.36,278.74h5.42v-3.12h-5.42v3.12Z"/><path class="cls-2" d="M811.89,285.85c0,2.93-1.73,3.26-5.42,3.24-.05-.55-.14-1.49-.91-2.9.82.14,1.3.24,1.94.24,1.78,0,1.78-.43,1.78-1.27v-14.79h-16.23v-2.3h22.03v2.3h-3.19v15.48ZM805.17,273.51v9.48h-6.77v2.02h-2.52v-11.5h9.29ZM798.4,275.79v4.9h4.27v-4.9h-4.27Z"/></g></g></svg>