<?xml version="1.0" encoding="UTF-8"?><svg id="_レイヤー_2" xmlns="http://www.w3.org/2000/svg" xmlns:xlink="http://www.w3.org/1999/xlink" viewBox="0 0 717.53 45.6"><defs><style>.cls-1{fill:url(#_新規グラデーションスウォッチ_1);stroke-width:0px;}</style><linearGradient id="_新規グラデーションスウォッチ_1" x1="0" y1="22.8" x2="717.53" y2="22.8" gradientUnits="userSpaceOnUse"><stop offset="0" stop-color="#f7b52c"/><stop offset="1" stop-color="#f7742c"/></linearGradient></defs><g id="_レイヤー_1-2"><path class="cls-1" d="M32.05,36.05v5.59H0c.53-8.19,4.34-10.75,16.24-18.65,7.09-4.72,8.1-6.03,8.1-8.92,0-4.05-3.95-5.35-7.47-5.35-7.23,0-8.58,4.34-8.82,8.72H.63c.19-3.33.92-14.85,16.24-14.85,9.83,0,14.85,5.16,14.85,11.42,0,5.4-2.99,8.48-10.03,12.92-7.33,4.63-9.3,6.17-11.76,9.11h22.12Z"/><path class="cls-1" d="M60.76,27.52h6.22v5.59h-6.22v8.53h-7.23v-8.53h-18.94v-5.59L53.53,3.66h7.23v23.86ZM53.53,27.52v-15.81l-12.58,15.81h12.58Z"/><path class="cls-1" d="M86,5.01v32.34h-5.45v-1.83h-3.9v3.95h-5.4V5.01h14.75ZM80.56,17.54v-7.42h-3.9v7.42h3.9ZM76.65,22.7v7.76h3.9v-7.76h-3.9ZM108.95,21.3c.58.05.92.24.92.48,0,.43-.63.72-.87.82v2.89h4.92v5.21h-4.92v9.3c0,4.34-2.22,5.78-9.98,5.4-.19-2.55-.77-4.19-2.12-6.17,1.01.19,3.66.43,4.29.43,1.3,0,1.74-.34,1.74-1.98v-6.99h-9.74c.67.63,3.42,3.42,5.25,6.17-1.4,1.06-1.98,1.59-4.58,3.95-.53-.77-3.04-4.72-5.64-7.09l3.71-3.04h-4.05v-5.21h15.04v-4.43h-15.76v-5.25h9.79v-3.9h-8.58v-5.25h8.58V1.2l6.7.24c.39,0,.72.19.72.58,0,.43-.58.67-1.21.87v3.76h9.45v5.25h-9.45v3.9h11.18v5.25h-7.62l2.22.24Z"/><path class="cls-1" d="M137.91,2.12v16.05h-13.21v26.99h-5.69V2.12h18.9ZM132.32,8.34v-2.36h-7.62v2.36h7.62ZM124.7,11.62v2.6h7.62v-2.6h-7.62ZM149.62,38.9h-14.65v1.83h-5.3v-19.62h19.96v17.79ZM144.37,28v-2.55h-9.4v2.55h9.4ZM134.97,31.91v2.65h9.4v-2.65h-9.4ZM160.23,2.12v37.65c0,3.66-1.64,5.83-7.52,5.83-.43,0-.77,0-1.11-.05-.53-2.8-1.11-3.95-2.75-6.36,1.83.58,3.33.58,3.71.58,1.49,0,2.07-.34,2.07-2.51v-19.09h-13.3V2.12h18.9ZM154.49,8.24v-2.36h-7.57v2.36h7.57ZM146.92,11.62v2.41h7.57v-2.41h-7.57Z"/><path class="cls-1" d="M197.15,4.34c.96,0,2.41-.1,3.33-.34l4.77,3.95c-.63.82-.96,1.35-1.49,2.65-4.68,11.67-5.64,13.88-9.3,18.75-5.64,7.57-12.92,11.71-18.41,14.61-1.25-1.74-2.8-3.23-5.06-5.01,12.53-5.69,19.67-11.67,25.5-28.54h-30.27v-6.07h30.95Z"/><path class="cls-1" d="M227.98,43.91h-6.03v-17.64c-.67.39-7.04,4-11.04,5.4-.96-1.64-2.41-3.42-4.1-4.82,8.15-2.65,17.45-6.8,26.46-17.83l4.87,3.81c.19.14.34.34.34.58,0,.43-.34.48-.63.48s-.43-.05-.67-.1c-3.08,3.23-5.88,5.88-9.21,8.39v21.74Z"/><path class="cls-1" d="M252.9,13.4c1.74,2.84,3.42,6.41,4.53,9.16-1.25.43-3.37,1.3-5.21,2.51-1.45-3.71-2.75-6.12-4.63-9.45l5.3-2.22ZM280.85,13.69c.48.14.87.24.87.63,0,.48-.63.63-.92.67-3.71,15.09-10.03,23.04-23.38,28.58-1.69-2.7-2.84-3.76-3.86-4.63,10.03-3.81,18.94-9.59,21.4-27.09l5.88,1.83ZM262.97,11.09c1.4,2.31,2.89,5.11,4.15,9.35-1.01.39-3.47,1.21-5.21,2.12-1.06-2.94-2.65-6.51-4.29-9.3l5.35-2.17Z"/><path class="cls-1" d="M303.29,14.65c6.75,3.37,13.35,7.66,17.4,11.67-1.88,1.98-2.55,2.8-4.63,5.25-5.88-5.64-11.86-9.01-15.23-10.8v23.52h-6.84V2.02l6.84.38c.48.05.92.1.92.53,0,.53-.63.67-.92.72v14.46l2.46-3.47Z"/><path class="cls-1" d="M347.96,45.12h-6.6v-13.5c-2.51,1.69-6.89,4.19-13.93,6.7-1.06-2.51-3.04-4.92-3.52-5.54,11.66-3.57,18.17-8,25.11-15.04h-20.2v-5.83h25.45c1.01,0,1.59-.14,2.94-.48l3.47,3.47c-.82.63-2.02,1.54-2.8,2.36-6.51,6.65-7.23,7.42-9.93,9.79v18.08ZM339.43.34c4.05,1.06,10.6,3.9,13.26,5.35-1.54,2.41-2.22,3.47-3.18,5.3-1.59-.96-6.99-4.05-13.3-5.83l3.23-4.82ZM353.6,24.97c4.15,2.6,8.24,5.3,11.86,8.58-.72.87-3.28,4.24-3.81,5.01-3.57-3.66-9.21-7.47-12.1-9.21l4.05-4.39Z"/><path class="cls-1" d="M373.09,10.94v-6.12h24.49c.77,0,2.55-.1,3.33-.38l3.28,3.52c-.96,1.25-1.49,2.36-1.83,3.08-2.02,4.72-3.13,7.28-6.22,12.29,3.66,2.75,11.23,9.3,15.04,13.93-1.69,1.83-4.39,4.82-4.96,5.5-2.6-3.62-6.6-8.87-13.69-14.36-3.33,4.19-11.13,11.57-19.28,15.04-1.49-2.6-2.31-3.71-4.58-5.64,2.89-1.01,9.93-3.62,17.06-11.28,5.21-5.54,7.04-10.07,9.11-15.57h-21.74Z"/><path class="cls-1" d="M418.6,12c3.76,1.45,9.83,5.01,11.71,6.56-1.74,1.83-3.47,4.53-4.05,5.5-4.53-3.81-9.83-5.98-11.38-6.6l3.71-5.45ZM417.68,38.22c15.52-5.3,27.81-15.95,34.46-26.12.53.96,1.54,2.84,4.24,5.5-7.28,10.89-21.69,21.74-33.69,26.17-.1.48-.24,1.16-.82,1.16-.34,0-.48-.24-.72-.67l-3.47-6.03ZM423.47,1.25c5.16,1.93,8.53,3.52,12.44,5.88-.96,1.06-3.13,4.19-3.9,5.35-3.71-2.65-7.91-4.68-12.1-6.22l3.57-5.01ZM445.4,3.66c1.49,1.06,4.15,3.28,5.45,4.63-.87.82-2.26,2.22-3.13,3.08-.53-.53-2.89-2.99-5.4-4.87l3.08-2.84ZM449.93,0c1.54,1.11,4.1,3.37,5.21,4.63-.48.34-1.11.77-2.94,2.7-1.74-1.78-3.38-3.33-5.25-4.72l2.99-2.6Z"/><path class="cls-1" d="M484.52,18.22c5.06,5.83,10.7,14.8,12.24,19.23-.29.19-4.15,3.08-5.5,4.29-1.11-2.94-2.02-4.82-2.51-5.83-19.18,3.33-19.62,3.37-32.01,4.87-.19.67-.38.87-.77.87-.34,0-.58-.48-.67-.87l-1.54-6.27c.82-.05,4.43-.34,5.21-.43,3.18-5.83,8.87-20,11.42-31.67l6.99,1.83c.53.14.87.34.87.67,0,.58-.53.82-1.16.92-.77,2.12-4.05,11.42-4.77,13.26-1.88,4.87-3.95,9.69-6.22,14.36,4.43-.43,13.54-1.64,19.67-2.75-4.29-6.36-5.78-7.95-6.94-9.16l5.69-3.33Z"/><path class="cls-1" d="M529.51,30.03c.72-.92,2.41-3.04,3.37-6.65h6.41c-1.25,3.86-3.47,7.66-6.27,10.51l7.33,7.76h-8.29l-3.42-3.71c-2.17,1.64-7.33,4.77-13.98,4.77-7.95,0-13.16-4.43-13.16-11.23,0-7.28,5.54-9.98,9.59-11.86-2.7-2.7-4.53-4.53-4.53-8,0-4.82,4.24-9.01,11.67-9.01,7.95,0,11.71,4.53,11.71,9.45,0,5.21-5.01,7.95-8.97,9.35l8.53,8.63ZM515.09,23.43c-1.78.72-6.94,2.8-6.94,7.86,0,5.78,5.88,5.83,7.66,5.83,3.62,0,6.31-1.16,9.25-3.13l-9.98-10.56ZM524.16,11.38c0-1.88-1.54-4.39-5.78-4.39s-5.88,2.41-5.88,4.29c0,2.22,2.7,4.43,4.82,6.27,5.88-2.36,6.84-4.34,6.84-6.17Z"/><path class="cls-1" d="M548.31,10.94v-6.12h24.49c.77,0,2.55-.1,3.33-.38l3.28,3.52c-.96,1.25-1.49,2.36-1.83,3.08-2.02,4.72-3.13,7.28-6.22,12.29,3.66,2.75,11.23,9.3,15.04,13.93-1.69,1.83-4.39,4.82-4.96,5.5-2.6-3.62-6.6-8.87-13.69-14.36-3.33,4.19-11.13,11.57-19.28,15.04-1.49-2.6-2.31-3.71-4.58-5.64,2.89-1.01,9.93-3.62,17.06-11.28,5.21-5.54,7.04-10.07,9.11-15.57h-21.74Z"/><path class="cls-1" d="M605.52,18.41c2.46,1.4,5.11,2.94,8.44,5.3,2.55-4.15,3.62-7.18,4.15-8.82h-12.58c-.82,1.21-5.16,7.18-10.65,11.38-1.88-1.93-2.84-2.75-5.11-4.39,7.33-4.82,12.58-12.34,15.91-20.63l6.46,2.07c.58.19.87.29.87.58,0,.63-.87.63-1.16.67-.77,1.45-1.49,2.75-2.6,4.63h11.47c1.74,0,2.55-.24,3.23-.48l2.99,2.6c-.34.58-.67,1.25-1.01,2.02-3.52,8.48-4.19,10.17-6.89,14.27,3.04,2.6,4.05,4,4.82,5.01-1.4,1.64-3.42,4.48-4.05,5.45-1.21-1.59-2.51-3.28-4.67-5.35-6.8,7.42-14.32,10.56-18.51,12.24-.87-1.4-1.83-2.89-4.43-5.54,4.72-1.3,12.72-4.96,18.12-10.84-3.42-2.6-6.51-4.43-8.68-5.74l3.9-4.43Z"/><path class="cls-1" d="M636.03,12c3.76,1.45,9.83,5.01,11.71,6.56-1.74,1.83-3.47,4.53-4.05,5.5-4.53-3.81-9.83-5.98-11.38-6.6l3.71-5.45ZM635.12,38.22c15.52-5.3,27.81-15.95,34.46-26.12.53.96,1.54,2.84,4.24,5.5-7.28,10.89-21.69,21.74-33.69,26.17-.1.48-.24,1.16-.82,1.16-.34,0-.48-.24-.72-.67l-3.47-6.03ZM640.9,1.25c5.16,1.93,8.53,3.52,12.44,5.88-.96,1.06-3.13,4.19-3.9,5.35-3.71-2.65-7.91-4.68-12.1-6.22l3.57-5.01ZM662.83,3.66c1.49,1.06,4.15,3.28,5.45,4.63-.87.82-2.26,2.22-3.13,3.08-.53-.53-2.89-2.99-5.4-4.87l3.08-2.84ZM667.37,0c1.54,1.11,4.1,3.37,5.21,4.63-.48.34-1.11.77-2.94,2.7-1.74-1.78-3.38-3.33-5.25-4.72l2.99-2.6Z"/><path class="cls-1" d="M678.14,17.64v-6.17h22.08V1.73l6.8.43c.58.05.96.19.96.53,0,.43-.53.67-.96.87v7.91h10.51v6.17h-10.51v20.53c0,4.77-2.46,6.46-11.04,6.36-.67-3.38-.87-4.05-2.41-6.94.63.14,2.55.53,4.15.53,2.51,0,2.51-1.01,2.51-3.62v-10.7c-6.75,9.01-13.79,13.16-18.61,15.62-.34-.58-1.93-3.37-4.39-5.25,9.35-3.86,16.44-10.8,19.91-16.53h-18.99Z"/></g></svg>